<svg width="41" height="40" viewBox="0 0 41 40" fill="none" xmlns="http://www.w3.org/2000/svg">
<g id="Frame" clip-path="url(#clip0_584_3233)">
<path id="Vector" d="M8.20874 17.0833C13.0412 17.0833 16.9587 13.1657 16.9587 8.33325V2.49992C16.9587 0.889088 18.2646 -0.416748 19.8754 -0.416748C21.4862 -0.416748 22.7921 0.889088 22.7921 2.49992V8.33325C22.7921 13.1657 26.7096 17.0833 31.5421 17.0833H37.3754C38.9862 17.0833 40.2921 18.3891 40.2921 19.9999C40.2921 21.6108 38.9862 22.9166 37.3754 22.9166H31.5421C26.7096 22.9166 22.7921 26.8341 22.7921 31.6666V37.4999C22.7921 39.1108 21.4862 40.4166 19.8754 40.4166C18.2646 40.4166 16.9587 39.1108 16.9587 37.4999V31.6666C16.9587 26.8341 13.0412 22.9166 8.20874 22.9166H2.37541C0.764576 22.9166 -0.54126 21.6108 -0.54126 19.9999C-0.54126 18.3891 0.764576 17.0833 2.37541 17.0833H8.20874Z" fill="#244AB4"/>
</g>
<defs>
<clipPath id="clip0_584_3233">
<rect width="40" height="40" fill="white" transform="translate(0.5)"/>
</clipPath>
</defs>
</svg>
