<svg width="23" height="16" viewBox="0 0 23 16" fill="none" xmlns="http://www.w3.org/2000/svg">
<g id="Sponsor-amico 2" clip-path="url(#clip0_1548_14030)">
<g id="freepik--Coins--inject-2">
<g id="freepik--coins--inject-2">
<path id="Vector" d="M3.25887 6.69316C3.64223 6.09545 4.17202 5.60566 4.79792 5.2703C7.3122 3.81696 11.3903 3.81696 13.9065 5.2703C14.5328 5.6051 15.0627 6.09501 15.4455 6.69316H15.7941V8.00934C15.7484 8.92363 15.1217 9.8303 13.9122 10.5293C11.396 11.9808 7.31792 11.9808 4.80363 10.5293C3.59411 9.8303 2.96173 8.92363 2.91602 8.00934V6.69316H3.25887Z" fill="#F6AF54"/>
<path id="Vector_2" opacity="0.25" d="M3.25887 6.69316C3.64223 6.09545 4.17202 5.60566 4.79792 5.2703C7.3122 3.81696 11.3903 3.81696 13.9065 5.2703C14.5328 5.6051 15.0627 6.09501 15.4455 6.69316H15.7941V8.00934C15.7484 8.92363 15.1217 9.8303 13.9122 10.5293C11.396 11.9808 7.31792 11.9808 4.80363 10.5293C3.59411 9.8303 2.96173 8.92363 2.91602 8.00934V6.69316H3.25887Z" fill="black"/>
<path id="Vector_3" opacity="0.1" d="M9.35156 4.1908C10.9992 4.1908 12.6487 4.55461 13.9058 5.28032C14.5321 5.61512 15.0621 6.10503 15.4449 6.70318H15.7935V8.01937C15.7478 8.93365 15.1211 9.84032 13.9116 10.5394C12.6544 11.2651 11.0049 11.6289 9.35728 11.6289L9.35156 4.1908Z" fill="black"/>
<path id="Vector_4" opacity="0.1" d="M12.8701 4.78479C13.2284 4.9177 13.575 5.08016 13.9063 5.27051C14.5326 5.60531 15.0625 6.09522 15.4454 6.69337H15.7939V8.00955C15.7482 8.92384 15.1215 9.8305 13.912 10.5296C13.5803 10.7191 13.2338 10.8816 12.8758 11.0153L12.8701 4.78479Z" fill="black"/>
<path id="Vector_5" opacity="0.5" d="M5.83299 4.78479C5.47457 4.91732 5.12795 5.0798 4.7968 5.27051C4.1705 5.60531 3.64059 6.09522 3.25775 6.69337H2.90918V8.00955C2.95489 8.92384 3.58728 9.8305 4.7968 10.5296C5.12835 10.7195 5.4749 10.8819 5.83299 11.0153V4.78479Z" fill="#F6AF54"/>
<path id="Vector_6" d="M13.9054 4.06461C16.4216 5.51604 16.4216 7.87414 13.9054 9.32366C11.7054 10.5941 8.30731 10.7522 5.80635 9.79985L5.70731 9.75985C5.39343 9.6372 5.0891 9.4914 4.79683 9.32366C2.70159 8.11223 2.34921 6.27604 3.75112 4.85318C4.06275 4.54462 4.41447 4.27938 4.79683 4.06461C7.31112 2.61128 11.3892 2.61128 13.9054 4.06461Z" fill="#F6AF54"/>
<path id="Vector_7" opacity="0.2" d="M13.9054 4.06461C16.4216 5.51604 16.4216 7.87414 13.9054 9.32366C11.7054 10.5941 8.30731 10.7522 5.80635 9.79985L5.70731 9.75985C5.39343 9.6372 5.0891 9.4914 4.79683 9.32366C2.70159 8.11223 2.34921 6.27604 3.75112 4.85318C4.06275 4.54462 4.41447 4.27938 4.79683 4.06461C7.31112 2.61128 11.3892 2.61128 13.9054 4.06461Z" fill="black"/>
<path id="Vector_8" opacity="0.5" d="M3.75966 4.85352C3.4874 5.16229 3.28597 5.52688 3.16949 5.92173C3.05301 6.31657 3.0243 6.73212 3.08537 7.13923C3.30823 8.41733 5.0987 9.49351 5.71585 9.75066C5.40197 9.62801 5.09764 9.48221 4.80537 9.31446C2.6987 8.11256 2.35013 6.27447 3.75966 4.85352Z" fill="#F5F5F5"/>
<path id="Vector_9" opacity="0.5" d="M14.9513 8.53362C15.225 8.22386 15.4271 7.85763 15.5434 7.46095C15.6596 7.06426 15.687 6.64686 15.6237 6.23838C15.4008 4.96028 13.6123 3.886 12.9951 3.62695C13.3089 3.75062 13.6132 3.89704 13.9056 4.06505C16.0027 5.27457 16.3513 7.11457 14.9513 8.53362Z" fill="#F5F5F5"/>
<path id="Vector_10" d="M9.35381 10.1448C12.6612 10.1448 15.3424 8.59694 15.3424 6.68761C15.3424 4.77828 12.6612 3.23047 9.35381 3.23047C6.04641 3.23047 3.36523 4.77828 3.36523 6.68761C3.36523 8.59694 6.04641 10.1448 9.35381 10.1448Z" fill="#F6AF54"/>
<path id="Vector_11" opacity="0.4" d="M9.35381 10.1448C12.6612 10.1448 15.3424 8.59694 15.3424 6.68761C15.3424 4.77828 12.6612 3.23047 9.35381 3.23047C6.04641 3.23047 3.36523 4.77828 3.36523 6.68761C3.36523 8.59694 6.04641 10.1448 9.35381 10.1448Z" fill="white"/>
<path id="Vector_12" opacity="0.2" d="M3.63675 7.72176C3.15675 6.83033 3.31294 5.85128 4.10723 5.0189C4.26298 4.85661 4.4325 4.70811 4.61389 4.57509C4.76897 4.45841 4.93119 4.35154 5.0996 4.25509C5.19484 4.19985 5.29008 4.14652 5.39484 4.09509C5.14532 4.50462 5.23675 4.94271 6.64627 5.02652C9.40627 5.18652 5.90913 7.82461 5.90913 7.82461C5.90913 7.82461 4.13961 6.96557 3.63675 7.72176Z" fill="white"/>
<path id="Vector_13" opacity="0.5" d="M3.92275 6.99057C3.50751 6.94485 3.3037 6.52009 3.4637 6.03819C3.6237 5.55628 4.09037 5.20771 4.5056 5.25533C4.92084 5.30295 5.12465 5.72771 4.96465 6.20771C4.80465 6.68771 4.33037 7.04771 3.92275 6.99057Z" fill="white"/>
<path id="Vector_14" d="M8.28789 9.1888C8.42312 8.16404 12.9012 5.33357 12.9012 5.33357C12.9012 5.33357 13.8936 4.93547 13.5641 4.24023C13.73 4.33419 13.8903 4.43787 14.0441 4.55071C14.1469 4.625 14.2441 4.70119 14.3355 4.78119C15.6688 5.93547 15.6688 7.44785 14.3355 8.60785C14.243 8.68962 14.1464 8.76655 14.046 8.83833C13.9035 8.9429 13.7553 9.03956 13.6022 9.12785C13.4498 9.21738 13.2898 9.29928 13.126 9.37738C12.9965 9.43833 12.8612 9.49738 12.7241 9.55071C12.5869 9.60404 12.446 9.65547 12.3031 9.70309C11.8677 9.84434 11.4219 9.95133 10.9698 10.0231C10.8707 10.0402 10.7698 10.0536 10.6707 10.0669C10.2286 10.1242 9.78322 10.1522 9.33741 10.1507C8.78998 10.1496 8.2435 10.105 7.70312 10.0174C7.70312 10.0174 8.4155 9.86309 8.28789 9.1888Z" fill="#F6AF54"/>
<path id="Vector_15" opacity="0.3" d="M8.28789 9.1888C8.42312 8.16404 12.9012 5.33357 12.9012 5.33357C12.9012 5.33357 13.8936 4.93547 13.5641 4.24023C13.73 4.33419 13.8903 4.43787 14.0441 4.55071C14.1469 4.625 14.2441 4.70119 14.3355 4.78119C15.6688 5.93547 15.6688 7.44785 14.3355 8.60785C14.243 8.68962 14.1464 8.76655 14.046 8.83833C13.9035 8.9429 13.7553 9.03956 13.6022 9.12785C13.4498 9.21738 13.2898 9.29928 13.126 9.37738C12.9965 9.43833 12.8612 9.49738 12.7241 9.55071C12.5869 9.60404 12.446 9.65547 12.3031 9.70309C11.8677 9.84434 11.4219 9.95133 10.9698 10.0231C10.8707 10.0402 10.7698 10.0536 10.6707 10.0669C10.2286 10.1242 9.78322 10.1522 9.33741 10.1507C8.78998 10.1496 8.2435 10.105 7.70312 10.0174C7.70312 10.0174 8.4155 9.86309 8.28789 9.1888Z" fill="white"/>
<path id="Vector_16" d="M12.5101 4.86656C14.1824 5.83227 14.2491 7.37132 12.7139 8.38275C12.6491 8.42656 12.5805 8.46847 12.5101 8.50847C10.7672 9.51609 7.93863 9.51609 6.20149 8.50847C4.46434 7.50085 4.45863 5.87227 6.20149 4.86656C6.27196 4.82656 6.34625 4.78656 6.42053 4.74846C8.17291 3.86275 10.8396 3.90275 12.5101 4.86656Z" fill="#F6AF54"/>
<path id="Vector_17" opacity="0.2" d="M12.5101 4.86656C14.1824 5.83227 14.2491 7.37132 12.7139 8.38275C12.6491 8.42656 12.5805 8.46847 12.5101 8.50847C10.7672 9.51609 7.93863 9.51609 6.20149 8.50847C4.46434 7.50085 4.45863 5.87227 6.20149 4.86656C6.27196 4.82656 6.34625 4.78656 6.42053 4.74846C8.17291 3.86275 10.8396 3.90275 12.5101 4.86656Z" fill="black"/>
<path id="Vector_18" d="M9.35363 9.14847C11.709 9.14847 13.6184 8.04666 13.6184 6.68751C13.6184 5.32837 11.709 4.22656 9.35363 4.22656C6.99827 4.22656 5.08887 5.32837 5.08887 6.68751C5.08887 8.04666 6.99827 9.14847 9.35363 9.14847Z" fill="#F6AF54"/>
<path id="Vector_19" opacity="0.5" d="M9.35363 9.14847C11.709 9.14847 13.6184 8.04666 13.6184 6.68751C13.6184 5.32837 11.709 4.22656 9.35363 4.22656C6.99827 4.22656 5.08887 5.32837 5.08887 6.68751C5.08887 8.04666 6.99827 9.14847 9.35363 9.14847Z" fill="black"/>
<path id="Vector_20" d="M12.369 5.63415C10.7042 4.67224 8.00324 4.67224 6.33848 5.63415C5.65848 6.02653 5.25467 6.51987 5.13086 7.03225C5.25467 7.54272 5.65848 8.03606 6.33848 8.42844C8.00324 9.39034 10.7042 9.39034 12.369 8.42844C13.049 8.03606 13.4528 7.54272 13.5766 7.03225C13.4528 6.51987 13.049 6.02653 12.369 5.63415Z" fill="#F6AF54"/>
<path id="Vector_21" opacity="0.35" d="M12.369 5.63415C10.7042 4.67224 8.00324 4.67224 6.33848 5.63415C5.65848 6.02653 5.25467 6.51987 5.13086 7.03225C5.25467 7.54272 5.65848 8.03606 6.33848 8.42844C8.00324 9.39034 10.7042 9.39034 12.369 8.42844C13.049 8.03606 13.4528 7.54272 13.5766 7.03225C13.4528 6.51987 13.049 6.02653 12.369 5.63415Z" fill="black"/>
<path id="Vector_22" d="M12.0392 7.42857V6.92C12.0392 6.71047 11.8945 6.50857 11.584 6.32571H11.5726C11.0011 5.99428 10.4087 6.0381 9.88303 6.16953C9.66017 6.22476 9.44684 6.29905 9.25255 6.36C9.03049 6.4421 8.80413 6.51204 8.57446 6.56952C8.46897 6.5938 8.36073 6.60404 8.25255 6.6C8.15977 6.59508 8.06899 6.57109 7.98589 6.52952L8.00684 6.51429L8.07351 6.47428C8.13061 6.43954 8.1905 6.40959 8.25255 6.38476C8.40194 6.31814 8.56311 6.28198 8.72664 6.27838C8.89016 6.27479 9.05276 6.30383 9.20494 6.36381L9.7516 5.81143V5.30476C9.26971 5.14158 8.75058 5.12304 8.25827 5.25143C8.09531 5.29287 7.93604 5.34766 7.78208 5.41524L7.23541 5.10095L6.58398 5.4819V5.98857L6.80684 6.11809C6.7458 6.20452 6.71257 6.30753 6.7116 6.41334V6.9181C6.7116 7.12762 6.86208 7.32762 7.17637 7.51047C7.45041 7.67053 7.76011 7.75958 8.07732 7.76953C8.13636 7.76953 8.19732 7.76953 8.25827 7.76953C8.58891 7.74573 8.91459 7.67585 9.22589 7.56191L9.41636 7.49714L8.86589 8.04762V8.55429C9.2052 8.68278 9.56709 8.74093 9.92957 8.72521C10.292 8.7095 10.6475 8.62023 10.9745 8.46286L11.5135 8.77524L12.1668 8.39429V7.88762L11.9421 7.7581C12.0063 7.66026 12.0401 7.5456 12.0392 7.42857ZM10.6621 7.38476C10.6133 7.4128 10.5631 7.43823 10.5116 7.46096C10.1719 7.60599 9.78868 7.61146 9.44494 7.47619C9.95541 7.29524 10.3821 7.13905 10.7459 7.33143C10.7211 7.35047 10.6926 7.36952 10.6621 7.38667V7.38476Z" fill="#F6AF54"/>
<path id="Vector_23" d="M9.88303 6.16561C9.66017 6.22085 9.44684 6.29514 9.25255 6.35609C9.03049 6.43819 8.80413 6.50813 8.57446 6.56562C8.46897 6.58989 8.36073 6.60014 8.25255 6.59609C8.14299 6.59085 8.03638 6.5588 7.94208 6.50276C7.73065 6.38276 7.70208 6.20561 8.00684 6.00371L8.07351 5.96371C8.13102 5.92971 8.19085 5.8998 8.25255 5.87419C8.40205 5.80798 8.56319 5.77205 8.72665 5.76845C8.89011 5.76485 9.05267 5.79367 9.20494 5.85324L9.7516 5.30085C9.26971 5.13766 8.75058 5.11912 8.25827 5.24752C8.09531 5.28896 7.93604 5.34375 7.78208 5.41133L7.23541 5.09705L6.58398 5.478L7.12303 5.79038C6.57446 6.20752 6.56303 6.6399 7.18018 6.99609C7.45396 7.15675 7.76382 7.24584 8.08113 7.25514H8.26208C8.59267 7.22981 8.91824 7.15931 9.2297 7.04561C9.85446 6.83609 10.3726 6.59038 10.784 6.83228C11.0659 6.99609 10.9878 7.20181 10.6773 7.38085C10.6285 7.40889 10.5783 7.43432 10.5268 7.45704C10.3546 7.52897 10.1697 7.56601 9.98303 7.56601C9.79634 7.56601 9.6115 7.52897 9.43922 7.45704L8.86779 8.02847C9.2071 8.15696 9.56899 8.21512 9.93147 8.1994C10.294 8.18368 10.6495 8.09442 10.9764 7.93705L11.5154 8.24942L12.1687 7.86847L11.6278 7.558C12.1707 7.13704 12.2335 6.6799 11.5992 6.30847H11.5878C10.9973 5.99038 10.4087 6.03419 9.88303 6.16561Z" fill="#F6AF54"/>
<g id="Group" opacity="0.3">
<path id="Vector_24" d="M9.88303 6.16561C9.66017 6.22085 9.44684 6.29514 9.25255 6.35609C9.03049 6.43819 8.80413 6.50813 8.57446 6.56562C8.46897 6.58989 8.36073 6.60014 8.25255 6.59609C8.14299 6.59085 8.03638 6.5588 7.94208 6.50276C7.73065 6.38276 7.70208 6.20561 8.00684 6.00371L8.07351 5.96371C8.13102 5.92971 8.19085 5.8998 8.25255 5.87419C8.40205 5.80798 8.56319 5.77205 8.72665 5.76845C8.89011 5.76485 9.05267 5.79367 9.20494 5.85324L9.7516 5.30085C9.26971 5.13766 8.75058 5.11912 8.25827 5.24752C8.09531 5.28896 7.93604 5.34375 7.78208 5.41133L7.23541 5.09705L6.58398 5.478L7.12303 5.79038C6.57446 6.20752 6.56303 6.6399 7.18018 6.99609C7.45396 7.15675 7.76382 7.24584 8.08113 7.25514H8.26208C8.59267 7.22981 8.91824 7.15931 9.2297 7.04561C9.85446 6.83609 10.3726 6.59038 10.784 6.83228C11.0659 6.99609 10.9878 7.20181 10.6773 7.38085C10.6285 7.40889 10.5783 7.43432 10.5268 7.45704C10.3546 7.52897 10.1697 7.56601 9.98303 7.56601C9.79634 7.56601 9.6115 7.52897 9.43922 7.45704L8.86779 8.02847C9.2071 8.15696 9.56899 8.21512 9.93147 8.1994C10.294 8.18368 10.6495 8.09442 10.9764 7.93705L11.5154 8.24942L12.1687 7.86847L11.6278 7.558C12.1707 7.13704 12.2335 6.6799 11.5992 6.30847H11.5878C10.9973 5.99038 10.4087 6.03419 9.88303 6.16561Z" fill="white"/>
</g>
<path id="Vector_25" opacity="0.45" d="M6.57324 5.4801L7.23038 5.18295L7.77134 5.41915L7.22467 5.10486L6.57324 5.4801Z" fill="#F5F5F5"/>
<path id="Vector_26" opacity="0.45" d="M8.1709 5.27625C8.63549 5.18219 9.11567 5.1985 9.5728 5.32387L9.19185 5.86101L9.73852 5.30863C9.23167 5.13727 8.68439 5.12596 8.1709 5.27625Z" fill="#F5F5F5"/>
<path id="Vector_27" opacity="0.45" d="M11.5684 6.32173H11.5799C12.2141 6.69316 12.1513 7.1503 11.6084 7.57126C12.0903 7.04745 12.0027 6.68173 11.4808 6.37887C10.9864 6.12868 10.4223 6.05155 9.87891 6.15983C10.4084 6.03411 10.997 5.9903 11.5684 6.32173Z" fill="#F5F5F5"/>
<path id="Vector_28" opacity="0.45" d="M11.6124 7.57715L12.0257 7.89525L11.5 8.26477L12.1514 7.88763L11.6124 7.57715Z" fill="#F5F5F5"/>
<path id="Vector_29" opacity="0.45" d="M10.5106 7.46289C10.1882 7.62492 9.81594 7.65697 9.47061 7.55241L8.85156 8.04385L9.42299 7.47242C9.5959 7.54284 9.78106 7.57826 9.96775 7.57663C10.1544 7.57499 10.339 7.53633 10.5106 7.46289Z" fill="#F5F5F5"/>
<path id="Vector_30" opacity="0.45" d="M8.5687 6.57363C8.44188 6.62525 8.30447 6.64545 8.16816 6.63252C8.03185 6.61958 7.90069 6.57389 7.78584 6.49934C7.59537 6.33743 7.71918 6.1641 8.00108 6.01172C7.69632 6.21362 7.72489 6.39267 7.93632 6.51077C8.03062 6.56681 8.13723 6.59886 8.2468 6.6041C8.35497 6.60815 8.46321 6.5979 8.5687 6.57363Z" fill="#F5F5F5"/>
<path id="Vector_31" opacity="0.45" d="M7.10698 5.79626C7.05936 5.83817 6.66698 6.20388 6.84031 6.5696C7.01365 6.93531 7.60222 7.2115 8.06508 7.26103C7.74777 7.25173 7.43791 7.16264 7.16412 7.00198C6.54698 6.64579 6.55841 6.21341 7.10698 5.79626Z" fill="#F5F5F5"/>
<path id="Vector_32" d="M4.95907 5.257C5.34243 4.65929 5.87222 4.1695 6.49812 3.83414C9.01431 2.38081 13.0924 2.38081 15.6086 3.83414C16.2344 4.16893 16.7637 4.65888 17.1457 5.257H17.4943V6.57319C17.4467 7.48747 16.8219 8.39414 15.6124 9.09319C13.0962 10.5465 9.01811 10.5465 6.50192 9.09319C5.2924 8.39604 4.66193 7.48747 4.61621 6.57319V5.257H4.95907Z" fill="#F6AF54"/>
<path id="Vector_33" opacity="0.25" d="M4.95907 5.257C5.34243 4.65929 5.87222 4.1695 6.49812 3.83414C9.01431 2.38081 13.0924 2.38081 15.6086 3.83414C16.2344 4.16893 16.7637 4.65888 17.1457 5.257H17.4943V6.57319C17.4467 7.48747 16.8219 8.39414 15.6124 9.09319C13.0962 10.5465 9.01811 10.5465 6.50192 9.09319C5.2924 8.39604 4.66193 7.48747 4.61621 6.57319V5.257H4.95907Z" fill="black"/>
<path id="Vector_34" opacity="0.1" d="M11.0527 2.74475C12.7023 2.74475 14.3499 3.10856 15.6089 3.83428C16.2347 4.16906 16.764 4.65901 17.1461 5.25713H17.4946V6.57332C17.447 7.48761 16.8223 8.39427 15.6127 9.09332C14.3537 9.81903 12.7061 10.1828 11.0565 10.1828L11.0527 2.74475Z" fill="black"/>
<path id="Vector_35" opacity="0.1" d="M14.5703 3.34863C14.929 3.48195 15.2762 3.6444 15.6084 3.83435C16.2342 4.16914 16.7635 4.65909 17.1456 5.25721H17.4941V6.5734C17.4465 7.48768 16.8217 8.39435 15.6122 9.0934C15.28 9.28334 14.9328 9.44579 14.5741 9.57911L14.5703 3.34863Z" fill="black"/>
<path id="Vector_36" opacity="0.5" d="M7.53421 3.34863C7.17628 3.48233 6.82975 3.64477 6.49802 3.83435C5.87212 4.16971 5.34233 4.6595 4.95897 5.25721H4.6123V6.5734C4.65802 7.48768 5.2885 8.39435 6.49802 9.0934C6.82975 9.28298 7.17628 9.44542 7.53421 9.57911V3.34863Z" fill="#F6AF54"/>
<path id="Vector_37" d="M15.6086 2.62882C18.1229 4.08025 18.1229 6.43835 15.6086 7.88787C13.4067 9.15835 10.0086 9.31835 7.50958 8.36406L7.40863 8.32597C7.09522 8.20151 6.79098 8.05512 6.49816 7.88787C4.40292 6.67645 4.05244 4.84026 5.45244 3.4193C5.76338 3.11076 6.11447 2.84551 6.49625 2.63073C9.01435 1.17549 13.0924 1.17549 15.6086 2.62882Z" fill="#F6AF54"/>
<path id="Vector_38" opacity="0.2" d="M15.6086 2.62882C18.1229 4.08025 18.1229 6.43835 15.6086 7.88787C13.4067 9.15835 10.0086 9.31835 7.50958 8.36406L7.40863 8.32597C7.09522 8.20151 6.79098 8.05512 6.49816 7.88787C4.40292 6.67645 4.05244 4.84026 5.45244 3.4193C5.76338 3.11076 6.11447 2.84551 6.49625 2.63073C9.01435 1.17549 13.0924 1.17549 15.6086 2.62882Z" fill="black"/>
<path id="Vector_39" opacity="0.5" d="M5.45299 3.42834C5.1804 3.73687 4.97889 4.10149 4.8627 4.49645C4.74652 4.89142 4.71849 5.30708 4.78061 5.71406C5.00347 6.99215 6.79204 8.06835 7.40918 8.32739C7.09577 8.20294 6.79153 8.05654 6.49871 7.8893C4.40156 6.67597 4.05299 4.83787 5.45299 3.42834Z" fill="#F5F5F5"/>
<path id="Vector_40" opacity="0.5" d="M16.6515 7.09692C16.9241 6.78835 17.1257 6.42378 17.2422 6.02887C17.3587 5.63397 17.3873 5.21833 17.3258 4.81121C17.1029 3.53311 15.3125 2.45692 14.6953 2.19788C15.0098 2.32116 15.3148 2.46759 15.6077 2.63597C17.7048 3.83978 18.0534 5.67788 16.6515 7.09692Z" fill="#F5F5F5"/>
<path id="Vector_41" d="M6.82265 7.69731C4.4836 6.34683 4.4836 4.15826 6.82265 2.80778C9.16169 1.4573 12.9522 1.4573 15.2912 2.80778C17.6303 4.15826 17.6284 6.34683 15.2912 7.69731C12.9541 9.04778 9.15979 9.04778 6.82265 7.69731Z" fill="#F6AF54"/>
<path id="Vector_42" opacity="0.4" d="M6.82265 7.69731C4.4836 6.34683 4.4836 4.15826 6.82265 2.80778C9.16169 1.4573 12.9522 1.4573 15.2912 2.80778C17.6303 4.15826 17.6284 6.34683 15.2912 7.69731C12.9541 9.04778 9.15979 9.04778 6.82265 7.69731Z" fill="white"/>
<path id="Vector_43" opacity="0.2" d="M5.34071 6.28585C4.85881 5.39632 5.0169 4.41537 5.81119 3.58299C5.96694 3.4207 6.13646 3.27221 6.31785 3.13918C6.47535 3.02407 6.63874 2.91726 6.80738 2.81918C6.90452 2.76394 6.99785 2.71061 7.10261 2.65918C6.855 3.0687 6.94452 3.50871 8.35595 3.59061C11.1159 3.75061 7.6188 6.38871 7.6188 6.38871C7.6188 6.38871 5.83404 5.52394 5.34071 6.28585Z" fill="white"/>
<path id="Vector_44" opacity="0.5" d="M5.62477 5.55629C5.21144 5.50867 5.00572 5.0839 5.16763 4.6039C5.32953 4.1239 5.7943 3.77533 6.20763 3.82104C6.62096 3.86676 6.82668 4.29343 6.66668 4.77343C6.50668 5.25343 6.04572 5.602 5.62477 5.55629Z" fill="white"/>
<path id="Vector_45" d="M9.98891 7.75441C10.1242 6.72964 14.6042 3.89155 14.6042 3.89155C14.6042 3.89155 15.5984 3.49346 15.2689 2.79822C15.434 2.89262 15.5936 2.99628 15.747 3.10869C15.848 3.18048 15.9453 3.2574 16.0384 3.33917C17.3718 4.49346 17.3718 6.00584 16.0384 7.16584C15.947 7.24584 15.848 7.32203 15.747 7.39822C15.6043 7.50193 15.4562 7.59794 15.3032 7.68584C15.1508 7.77536 14.9927 7.85727 14.8289 7.93536C14.6975 7.99631 14.5622 8.05536 14.4251 8.1087C14.288 8.16203 14.1489 8.21345 14.0041 8.26107C13.5687 8.40221 13.1229 8.5092 12.6708 8.58107C12.5699 8.59822 12.4708 8.61155 12.3699 8.62488C11.3822 8.75134 10.3814 8.73466 9.39844 8.57536C9.39844 8.57536 10.1165 8.42679 9.98891 7.75441Z" fill="#F6AF54"/>
<path id="Vector_46" opacity="0.3" d="M9.98891 7.75441C10.1242 6.72964 14.6042 3.89155 14.6042 3.89155C14.6042 3.89155 15.5984 3.49346 15.2689 2.79822C15.434 2.89262 15.5936 2.99628 15.747 3.10869C15.848 3.18048 15.9453 3.2574 16.0384 3.33917C17.3718 4.49346 17.3718 6.00584 16.0384 7.16584C15.947 7.24584 15.848 7.32203 15.747 7.39822C15.6043 7.50193 15.4562 7.59794 15.3032 7.68584C15.1508 7.77536 14.9927 7.85727 14.8289 7.93536C14.6975 7.99631 14.5622 8.05536 14.4251 8.1087C14.288 8.16203 14.1489 8.21345 14.0041 8.26107C13.5687 8.40221 13.1229 8.5092 12.6708 8.58107C12.5699 8.59822 12.4708 8.61155 12.3699 8.62488C11.3822 8.75134 10.3814 8.73466 9.39844 8.57536C9.39844 8.57536 10.1165 8.42679 9.98891 7.75441Z" fill="white"/>
<path id="Vector_47" d="M14.2125 3.42874C15.8829 4.39445 15.9515 5.9335 14.4163 6.94493C14.3515 6.98874 14.2829 7.03065 14.2106 7.07255C12.4696 8.07826 9.63913 8.07826 7.9039 7.07255C6.16866 6.06684 6.16104 4.43636 7.9039 3.42874C7.97628 3.38874 8.04866 3.34874 8.12295 3.31065C9.87342 2.42684 12.5401 2.47636 14.2125 3.42874Z" fill="#F6AF54"/>
<path id="Vector_48" opacity="0.2" d="M14.2125 3.42874C15.8829 4.39445 15.9515 5.9335 14.4163 6.94493C14.3515 6.98874 14.2829 7.03065 14.2106 7.07255C12.4696 8.07826 9.63913 8.07826 7.9039 7.07255C6.16866 6.06684 6.16104 4.43636 7.9039 3.42874C7.97628 3.38874 8.04866 3.34874 8.12295 3.31065C9.87342 2.42684 12.5401 2.47636 14.2125 3.42874Z" fill="black"/>
<path id="Vector_49" d="M14.0699 3.51234C15.7365 4.46472 15.7365 6.03234 14.0699 6.99234C12.4032 7.95234 9.70604 7.95424 8.04128 6.99234C6.37652 6.03043 6.37461 4.47234 8.04128 3.51234C9.70794 2.55234 12.4051 2.55044 14.0699 3.51234Z" fill="#F6AF54"/>
<path id="Vector_50" opacity="0.5" d="M14.0699 3.51234C15.7365 4.46472 15.7365 6.03234 14.0699 6.99234C12.4032 7.95234 9.70604 7.95424 8.04128 6.99234C6.37652 6.03043 6.37461 4.47234 8.04128 3.51234C9.70794 2.55234 12.4051 2.55044 14.0699 3.51234Z" fill="black"/>
<path id="Vector_51" d="M14.0702 4.19054C12.4054 3.22864 9.70636 3.22864 8.0416 4.19054C7.3597 4.58483 6.95779 5.07626 6.83398 5.58864C6.95779 6.09912 7.3597 6.59245 8.0416 6.98483C9.70636 7.94674 12.4054 7.94674 14.0702 6.98483C14.7521 6.59245 15.154 6.09912 15.2778 5.58864C15.154 5.08388 14.7521 4.59245 14.0702 4.19054Z" fill="#F6AF54"/>
<path id="Vector_52" opacity="0.35" d="M14.0702 4.19054C12.4054 3.22864 9.70636 3.22864 8.0416 4.19054C7.3597 4.58483 6.95779 5.07626 6.83398 5.58864C6.95779 6.09912 7.3597 6.59245 8.0416 6.98483C9.70636 7.94674 12.4054 7.94674 14.0702 6.98483C14.7521 6.59245 15.154 6.09912 15.2778 5.58864C15.154 5.08388 14.7521 4.59245 14.0702 4.19054Z" fill="black"/>
<path id="Vector_53" d="M13.7396 5.99429C13.7396 5.91048 13.7396 5.57143 13.7396 5.48572C13.7396 5.27619 13.5968 5.07429 13.2844 4.89143C12.7129 4.56 12.1206 4.60381 11.5929 4.73715C11.3682 4.79429 11.1548 4.86667 10.9606 4.92762C10.7394 5.01056 10.5137 5.08052 10.2844 5.13715C10.1789 5.16151 10.0706 5.17176 9.96247 5.16763C9.86976 5.16223 9.77907 5.13826 9.6958 5.09715L9.71675 5.08191L9.78342 5.04191C9.84134 5.00866 9.90112 4.97877 9.96247 4.95239C10.1119 4.88598 10.2731 4.84993 10.4366 4.84633C10.6001 4.84273 10.7626 4.87166 10.9149 4.93144L11.4615 4.37905V3.87429C10.9793 3.70943 10.4593 3.69021 9.96628 3.81905C9.80395 3.86052 9.64532 3.91532 9.49199 3.98286L8.94532 3.66858L8.29199 4.04953V4.5562L8.51485 4.68572C8.45546 4.77297 8.4224 4.87545 8.41961 4.98096V5.48572C8.41961 5.69524 8.57009 5.89715 8.88437 6.0781C9.15842 6.23816 9.46812 6.3272 9.78532 6.33715H9.9758C10.3064 6.31196 10.632 6.24147 10.9434 6.12763L11.1339 6.06286L10.5834 6.61525V7.12001C10.9227 7.2485 11.2846 7.30665 11.6471 7.29093C12.0096 7.27522 12.3651 7.18595 12.692 7.02858L13.231 7.34096L13.8844 6.96001V6.45334L13.6596 6.32572C13.7194 6.22596 13.7473 6.11033 13.7396 5.99429ZM12.3644 5.95048C12.3149 5.97853 12.2641 6.00396 12.212 6.02668C11.8722 6.17151 11.4891 6.17698 11.1453 6.04191C11.6577 5.85143 12.0825 5.70477 12.4463 5.89715C12.4203 5.91688 12.3929 5.9347 12.3644 5.95048Z" fill="#F6AF54"/>
<path id="Vector_54" d="M11.5842 4.73129C11.3594 4.78843 11.1461 4.86081 10.9518 4.92176C10.7306 5.0047 10.5049 5.07466 10.2756 5.13129C10.1701 5.15565 10.0619 5.1659 9.95368 5.16177C9.84445 5.15607 9.73809 5.12475 9.6432 5.07034C9.43368 4.94843 9.4032 4.77129 9.70796 4.57129C9.72892 4.55605 9.75177 4.54272 9.77463 4.52938C9.83255 4.49614 9.89233 4.46625 9.95368 4.43986C10.1033 4.37396 10.2644 4.33819 10.4278 4.33459C10.5912 4.331 10.7537 4.35965 10.9061 4.41891L11.4527 3.86843C10.9706 3.70357 10.4505 3.68436 9.95749 3.81319C9.79516 3.85467 9.63653 3.90946 9.4832 3.977L8.93654 3.66272L8.2832 4.04367L8.82415 4.35605C8.27558 4.77129 8.26416 5.20367 8.8813 5.55986C9.15535 5.71992 9.46504 5.80896 9.78225 5.81891C9.8432 5.81891 9.90415 5.81891 9.97273 5.81891C10.3033 5.79372 10.6289 5.72322 10.9403 5.60939C11.567 5.39986 12.0832 5.15415 12.4946 5.39796C12.7784 5.55986 12.7003 5.76557 12.3899 5.94462C12.3408 5.97342 12.2899 5.99887 12.2375 6.02081C12.0657 6.09321 11.8811 6.1305 11.6946 6.1305C11.5082 6.1305 11.3236 6.09321 11.1518 6.02081L10.5803 6.59224C10.9199 6.71975 11.2816 6.77738 11.644 6.76167C12.0063 6.74596 12.3617 6.65723 12.6889 6.50081L13.228 6.81129L13.8813 6.43034L13.3422 6.11986C13.8832 5.69891 13.9461 5.24177 13.3118 4.87034C12.7118 4.55415 12.1118 4.59796 11.5842 4.73129Z" fill="#F6AF54"/>
<g id="Group_2" opacity="0.3">
<path id="Vector_55" d="M11.5842 4.73165C11.3594 4.7888 11.1461 4.86118 10.9518 4.92213C10.7306 5.00506 10.5049 5.07502 10.2756 5.13166C10.1701 5.15602 10.0619 5.16627 9.95368 5.16213C9.84445 5.15643 9.73809 5.12511 9.6432 5.0707C9.43368 4.9488 9.4032 4.77166 9.70796 4.57166C9.72892 4.55642 9.75177 4.54308 9.77463 4.52975C9.83255 4.4965 9.89233 4.46661 9.95368 4.44023C10.1033 4.37433 10.2644 4.33856 10.4278 4.33496C10.5912 4.33137 10.7537 4.36002 10.9061 4.41928L11.4527 3.8688C10.9706 3.70394 10.4505 3.68472 9.95749 3.81356C9.79516 3.85503 9.63653 3.90982 9.4832 3.97737L8.93654 3.66309L8.2832 4.04404L8.82415 4.35642C8.27558 4.77165 8.26416 5.20404 8.8813 5.56023C9.15535 5.72028 9.46504 5.80933 9.78225 5.81927C9.8432 5.81927 9.90415 5.81927 9.97273 5.81927C10.3033 5.79409 10.6289 5.72359 10.9403 5.60975C11.567 5.40023 12.0832 5.15451 12.4946 5.39832C12.7784 5.56023 12.7003 5.76594 12.3899 5.94499C12.3408 5.97378 12.2899 5.99924 12.2375 6.02118C12.0657 6.09357 11.8811 6.13087 11.6946 6.13087C11.5082 6.13087 11.3236 6.09357 11.1518 6.02118L10.5803 6.5926C10.9199 6.72011 11.2816 6.77774 11.644 6.76203C12.0063 6.74632 12.3617 6.6576 12.6889 6.50118L13.228 6.81166L13.8813 6.4307L13.3422 6.12023C13.8832 5.69928 13.9461 5.24213 13.3118 4.8707C12.7118 4.55451 12.1118 4.59832 11.5842 4.73165Z" fill="white"/>
</g>
<path id="Vector_56" opacity="0.45" d="M8.27344 4.04572L8.93249 3.74668L9.47344 3.98477L8.92677 3.66858L8.27344 4.04572Z" fill="#F5F5F5"/>
<path id="Vector_57" opacity="0.45" d="M9.87109 3.84012C10.3364 3.74703 10.817 3.76334 11.2749 3.88774L10.894 4.42488L11.4406 3.8744C10.9335 3.70153 10.3853 3.68955 9.87109 3.84012Z" fill="#F5F5F5"/>
<path id="Vector_58" opacity="0.45" d="M13.283 4.88584C13.9173 5.25727 13.8544 5.71441 13.3135 6.13536C13.7935 5.61155 13.7058 5.24584 13.1839 4.94488C12.69 4.69325 12.1254 4.61606 11.582 4.72584C12.1116 4.59822 12.7116 4.55441 13.283 4.88584Z" fill="#F5F5F5"/>
<path id="Vector_59" opacity="0.45" d="M13.3136 6.14099L13.7288 6.45909L13.2012 6.82861L13.8545 6.45337L13.3136 6.14099Z" fill="#F5F5F5"/>
<path id="Vector_60" opacity="0.45" d="M12.2128 6.02673C11.8904 6.18876 11.5181 6.2208 11.1728 6.11625L10.5537 6.60959L11.1251 6.03816C11.298 6.10902 11.4833 6.14451 11.6701 6.14255C11.8569 6.14059 12.0414 6.10121 12.2128 6.02673Z" fill="#F5F5F5"/>
<path id="Vector_61" opacity="0.45" d="M10.2694 5.14264C10.1429 5.19426 10.0058 5.21446 9.86982 5.20153C9.73382 5.18859 9.60297 5.14289 9.48848 5.06835C9.298 4.90645 9.41991 4.73312 9.70181 4.58264C9.39705 4.78264 9.42753 4.96359 9.63705 5.08169C9.73194 5.1361 9.8383 5.16742 9.94753 5.17312C10.0557 5.17725 10.164 5.167 10.2694 5.14264Z" fill="#F5F5F5"/>
<path id="Vector_62" opacity="0.45" d="M8.80913 4.36194C8.76342 4.40194 8.37103 4.76766 8.54437 5.13337C8.7177 5.49908 9.30627 5.77527 9.76722 5.82479C9.45002 5.81485 9.14032 5.72581 8.86627 5.56575C8.24913 5.20956 8.26056 4.77718 8.80913 4.36194Z" fill="#F5F5F5"/>
<path id="Vector_63" d="M2.66317 3.76029C3.04548 3.16171 3.57552 2.67168 4.20222 2.33744C6.7165 0.884103 10.7946 0.884103 13.3108 2.33744C13.9371 2.67224 14.467 3.16215 14.8498 3.76029H15.1984V5.07649C15.1527 5.99077 14.526 6.89744 13.3165 7.59649C10.8003 9.04792 6.72222 9.04792 4.20793 7.59649C2.99841 6.89744 2.36603 5.99077 2.32031 5.07649V3.76029H2.66317Z" fill="#F6AF54"/>
<path id="Vector_64" opacity="0.25" d="M2.66317 3.76029C3.04548 3.16171 3.57552 2.67168 4.20222 2.33744C6.7165 0.884103 10.7946 0.884103 13.3108 2.33744C13.9371 2.67224 14.467 3.16215 14.8498 3.76029H15.1984V5.07649C15.1527 5.99077 14.526 6.89744 13.3165 7.59649C10.8003 9.04792 6.72222 9.04792 4.20793 7.59649C2.99841 6.89744 2.36603 5.99077 2.32031 5.07649V3.76029H2.66317Z" fill="black"/>
<path id="Vector_65" opacity="0.1" d="M8.75781 1.24768C10.4054 1.24768 12.055 1.60959 13.3121 2.3372C13.9384 2.67201 14.4683 3.16192 14.8511 3.76006H15.1997V5.07625C15.154 5.99054 14.5273 6.89721 13.3178 7.59626C12.0607 8.32197 10.4111 8.68578 8.76353 8.68578L8.75781 1.24768Z" fill="black"/>
<path id="Vector_66" opacity="0.1" d="M12.2764 1.85156C12.6346 1.98447 12.9812 2.14693 13.3126 2.33727C13.9389 2.67208 14.4688 3.16199 14.8516 3.76013H15.2002V5.07632C15.1545 5.99061 14.5278 6.89728 13.3183 7.59633C12.9861 7.78514 12.6397 7.94754 12.2821 8.08204L12.2764 1.85156Z" fill="black"/>
<path id="Vector_67" opacity="0.5" d="M5.23924 1.85156C4.88082 1.98409 4.5342 2.14657 4.20305 2.33727C3.57635 2.67152 3.04631 3.16154 2.664 3.76013H2.31543V5.07632C2.36114 5.99061 2.99353 6.89728 4.20305 7.59633C4.53499 7.7855 4.88149 7.94792 5.23924 8.08204V1.85156Z" fill="#F6AF54"/>
<path id="Vector_68" d="M13.3107 1.12959C15.8269 2.58292 15.8269 4.93911 13.3107 6.39054C11.1107 7.66101 7.71258 7.81911 5.21163 6.86673L5.11258 6.82673C4.79871 6.70408 4.49438 6.55828 4.2021 6.39054C2.10687 5.17911 1.75448 3.34292 3.15639 1.92006C3.46839 1.6114 3.82005 1.34558 4.2021 1.12959C6.71639 -0.321841 10.7945 -0.321841 13.3107 1.12959Z" fill="#F6AF54"/>
<path id="Vector_69" opacity="0.2" d="M13.3107 1.12959C15.8269 2.58292 15.8269 4.93911 13.3107 6.39054C11.1107 7.66101 7.71258 7.81911 5.21163 6.86673L5.11258 6.82673C4.79871 6.70408 4.49438 6.55828 4.2021 6.39054C2.10687 5.17911 1.75448 3.34292 3.15639 1.92006C3.46839 1.6114 3.82005 1.34558 4.2021 1.12959C6.71639 -0.321841 10.7945 -0.321841 13.3107 1.12959Z" fill="black"/>
<path id="Vector_70" opacity="0.5" d="M3.15749 1.91992C2.8839 2.2298 2.6817 2.59598 2.56519 2.99258C2.44867 3.38919 2.42069 3.80655 2.4832 4.21516C2.70606 5.49326 4.49654 6.56945 5.11368 6.82659C4.7998 6.70394 4.49547 6.55814 4.2032 6.3904C2.10416 5.17897 1.75558 3.34087 3.15749 1.91992Z" fill="#F5F5F5"/>
<path id="Vector_71" opacity="0.5" d="M14.3576 5.60027C14.6299 5.2916 14.8313 4.92697 14.9475 4.53205C15.0636 4.13713 15.0918 3.72153 15.0299 3.31455C14.8071 2.03646 13.0185 0.960268 12.4014 0.703125C12.7151 0.826794 13.0194 0.973213 13.3118 1.14122C15.409 2.34122 15.7595 4.19074 14.3576 5.60027Z" fill="#F5F5F5"/>
<path id="Vector_72" d="M4.52141 6.19986C2.18427 4.84939 2.18427 2.66082 4.52141 1.31034C6.85855 -0.0401337 10.6509 -0.0401337 12.99 1.31034C15.329 2.66082 15.329 4.84939 12.99 6.19986C10.6509 7.55034 6.86427 7.55034 4.52141 6.19986Z" fill="#F6AF54"/>
<path id="Vector_73" opacity="0.4" d="M4.52141 6.19986C2.18427 4.84939 2.18427 2.66082 4.52141 1.31034C6.85855 -0.0401337 10.6509 -0.0401337 12.99 1.31034C15.329 2.66082 15.329 4.84939 12.99 6.19986C10.6509 7.55034 6.86427 7.55034 4.52141 6.19986Z" fill="white"/>
<path id="Vector_74" opacity="0.2" d="M3.043 4.78687C2.563 3.89735 2.71919 2.9183 3.51348 2.08592C3.66923 1.92362 3.83875 1.77513 4.02014 1.64211C4.17522 1.52543 4.33744 1.41855 4.50585 1.32211C4.60109 1.26497 4.69633 1.21163 4.80109 1.16211C4.55157 1.57163 4.643 2.00973 6.05252 2.09163C8.81252 2.25354 5.31538 4.89163 5.31538 4.89163C5.31538 4.89163 3.53633 4.03259 3.043 4.78687Z" fill="white"/>
<path id="Vector_75" opacity="0.5" d="M3.329 4.05732C2.91376 4.0116 2.70995 3.58493 2.86995 3.10493C3.02995 2.62493 3.49662 2.27446 3.91185 2.32208C4.32709 2.3697 4.5309 2.79446 4.36899 3.27446C4.20709 3.75446 3.74233 4.10493 3.329 4.05732Z" fill="white"/>
<path id="Vector_76" d="M7.69409 6.25507C7.82933 5.23031 12.3093 2.39412 12.3093 2.39412C12.3093 2.39412 13.3017 1.99411 12.9722 1.30078C13.1382 1.39474 13.2984 1.49841 13.4522 1.61126C13.555 1.68554 13.6522 1.76174 13.7436 1.84174C15.0769 2.99602 15.0769 4.5084 13.7436 5.6684C13.6511 5.75018 13.5545 5.8271 13.4541 5.89888C13.3111 6.00279 13.163 6.09942 13.0103 6.1884C12.8579 6.27792 12.6979 6.35983 12.5341 6.43792C12.4046 6.49888 12.2693 6.55792 12.1303 6.61126C11.9912 6.66459 11.8541 6.71602 11.7112 6.76174C11.2761 6.90448 10.8302 7.01213 10.3779 7.08364L10.0769 7.12745C9.63476 7.18398 9.18939 7.21197 8.74361 7.21126C8.19546 7.21039 7.64828 7.16516 7.10742 7.07602C7.10742 7.07602 7.82171 6.92935 7.69409 6.25507Z" fill="#F6AF54"/>
<path id="Vector_77" opacity="0.3" d="M7.69409 6.25507C7.82933 5.23031 12.3093 2.39412 12.3093 2.39412C12.3093 2.39412 13.3017 1.99411 12.9722 1.30078C13.1382 1.39474 13.2984 1.49841 13.4522 1.61126C13.555 1.68554 13.6522 1.76174 13.7436 1.84174C15.0769 2.99602 15.0769 4.5084 13.7436 5.6684C13.6511 5.75018 13.5545 5.8271 13.4541 5.89888C13.3111 6.00279 13.163 6.09942 13.0103 6.1884C12.8579 6.27792 12.6979 6.35983 12.5341 6.43792C12.4046 6.49888 12.2693 6.55792 12.1303 6.61126C11.9912 6.66459 11.8541 6.71602 11.7112 6.76174C11.2761 6.90448 10.8302 7.01213 10.3779 7.08364L10.0769 7.12745C9.63476 7.18398 9.18939 7.21197 8.74361 7.21126C8.19546 7.21039 7.64828 7.16516 7.10742 7.07602C7.10742 7.07602 7.82171 6.92935 7.69409 6.25507Z" fill="white"/>
<path id="Vector_78" d="M11.9163 1.93357C13.5887 2.89929 13.6554 4.43833 12.1201 5.44976C12.0554 5.49357 11.9868 5.53548 11.9163 5.57548C10.1735 6.58119 7.34488 6.58119 5.60774 5.57548C3.87059 4.56976 3.86488 2.93929 5.60774 1.93357C5.67821 1.89357 5.7525 1.85357 5.82678 1.81548C7.57917 0.929764 10.2458 0.969763 11.9163 1.93357Z" fill="#F6AF54"/>
<path id="Vector_79" opacity="0.2" d="M11.9163 1.93357C13.5887 2.89929 13.6554 4.43833 12.1201 5.44976C12.0554 5.49357 11.9868 5.53548 11.9163 5.57548C10.1735 6.58119 7.34488 6.58119 5.60774 5.57548C3.87059 4.56976 3.86488 2.93929 5.60774 1.93357C5.67821 1.89357 5.7525 1.85357 5.82678 1.81548C7.57917 0.929764 10.2458 0.969763 11.9163 1.93357Z" fill="black"/>
<path id="Vector_80" d="M11.7742 2.01332C13.4389 2.97522 13.4389 4.53332 11.7742 5.49522C10.1094 6.45713 7.40845 6.4476 5.74369 5.49522C4.07893 4.54284 4.07893 2.97522 5.74369 2.01332C7.40845 1.05141 10.1094 1.05332 11.7742 2.01332Z" fill="#F6AF54"/>
<path id="Vector_81" opacity="0.5" d="M11.7742 2.01332C13.4389 2.97522 13.4389 4.53332 11.7742 5.49522C10.1094 6.45713 7.40845 6.4476 5.74369 5.49522C4.07893 4.54284 4.07893 2.97522 5.74369 2.01332C7.40845 1.05141 10.1094 1.05332 11.7742 2.01332Z" fill="black"/>
<path id="Vector_82" d="M11.7752 2.70129C10.1104 1.73938 7.40949 1.73938 5.74473 2.70129C5.06473 3.09367 4.66092 3.587 4.53711 4.09938C4.66092 4.60986 5.06473 5.10319 5.74473 5.49558C7.40949 6.44796 10.1104 6.44796 11.7752 5.49558C12.4552 5.10319 12.859 4.60986 12.9828 4.09938C12.859 3.587 12.4552 3.09367 11.7752 2.70129Z" fill="#F6AF54"/>
<path id="Vector_83" opacity="0.35" d="M11.7752 2.70129C10.1104 1.73938 7.40949 1.73938 5.74473 2.70129C5.06473 3.09367 4.66092 3.587 4.53711 4.09938C4.66092 4.60986 5.06473 5.10319 5.74473 5.49558C7.40949 6.44796 10.1104 6.44796 11.7752 5.49558C12.4552 5.10319 12.859 4.60986 12.9828 4.09938C12.859 3.587 12.4552 3.09367 11.7752 2.70129Z" fill="black"/>
<path id="Vector_84" d="M3.06785 3.10482L3.22976 1.87244L3.39167 3.10482L5.5269 3.19816L3.39167 3.29149L3.22976 4.52387L3.06785 3.29149L0.932617 3.19816L3.06785 3.10482Z" fill="white"/>
<path id="Vector_85" d="M12.7114 8.4152C13.2144 7.88807 13.838 7.49125 14.5286 7.25901C17.1476 6.33901 20.4333 7.46091 21.8733 9.76377C22.2592 10.3638 22.4866 11.0519 22.5343 11.7638L22.8162 11.859L22.2809 13.32C21.8714 14.3219 20.9971 15.1561 19.7381 15.6057C17.1209 16.5257 13.8333 15.4038 12.3952 13.1009C11.7038 11.9942 11.5648 10.8152 11.9 9.78853L12.4333 8.32758L12.7114 8.4152Z" fill="#F6AF54"/>
<path id="Vector_86" opacity="0.25" d="M12.7114 8.4152C13.2144 7.88807 13.838 7.49125 14.5286 7.25901C17.1476 6.33901 20.4333 7.46091 21.8733 9.76377C22.2592 10.3638 22.4866 11.0519 22.5343 11.7638L22.8162 11.859L22.2809 13.32C21.8714 14.3219 20.9971 15.1561 19.7381 15.6057C17.1209 16.5257 13.8333 15.4038 12.3952 13.1009C11.7038 11.9942 11.5648 10.8152 11.9 9.78853L12.4333 8.32758L12.7114 8.4152Z" fill="black"/>
<path id="Vector_87" opacity="0.1" d="M18.6423 7.30273C19.9709 7.72937 21.1136 8.59779 21.8804 9.76369C22.2663 10.3638 22.4937 11.0519 22.5413 11.7637L22.8232 11.8589L22.288 13.3199C21.8785 14.3218 21.0042 15.1561 19.7451 15.6056C18.4068 16.0474 16.9595 16.032 15.6309 15.5618L18.6423 7.30273Z" fill="black"/>
<path id="Vector_88" opacity="0.1" d="M21.2326 8.93909C21.4712 9.19298 21.6849 9.46917 21.8707 9.76385C22.2566 10.3639 22.484 11.052 22.5317 11.7639L22.8136 11.8591L22.2784 13.32C21.8688 14.3219 20.9946 15.1562 19.7355 15.6058C19.4001 15.7225 19.0545 15.8074 18.7031 15.8591L21.2326 8.93909Z" fill="black"/>
<path id="Vector_89" opacity="0.5" d="M15.5692 7.00586C15.2173 7.05758 14.871 7.1424 14.535 7.25919C13.8444 7.49143 13.2207 7.88825 12.7178 8.41538L12.4359 8.31824L11.9026 9.77919C11.5673 10.8059 11.7121 11.9849 12.3978 13.0916C12.5837 13.3863 12.7973 13.6624 13.0359 13.9163L15.5692 7.00586Z" fill="#F6AF54"/>
<path id="Vector_90" d="M22.3614 8.42474C23.7995 10.7276 22.8414 13.339 20.2242 14.259C17.9385 15.0628 15.129 14.3047 13.5023 12.5619L13.4395 12.4914C13.2321 12.2637 13.046 12.0176 12.8833 11.7562C11.6833 9.83617 12.15 7.70093 13.8566 6.51236C14.216 6.26414 14.6075 6.06612 15.0204 5.92379C17.6357 5.00188 20.9233 6.12189 22.3614 8.42474Z" fill="#F6AF54"/>
<path id="Vector_91" opacity="0.2" d="M22.3614 8.42474C23.7995 10.7276 22.8414 13.339 20.2242 14.259C17.9385 15.0628 15.129 14.3047 13.5023 12.5619L13.4395 12.4914C13.2321 12.2637 13.046 12.0176 12.8833 11.7562C11.6833 9.83617 12.15 7.70093 13.8566 6.51236C14.216 6.26414 14.6075 6.06612 15.0204 5.92379C17.6357 5.00188 20.9233 6.12189 22.3614 8.42474Z" fill="black"/>
<path id="Vector_92" opacity="0.5" d="M13.8548 6.51038C13.1106 7.10799 12.5903 7.93971 12.3786 8.87038C12.0395 10.3485 13.0452 12.0342 13.4376 12.4894C13.2303 12.2617 13.0441 12.0156 12.8814 11.7542C11.6814 9.83419 12.1405 7.69895 13.8548 6.51038Z" fill="#F5F5F5"/>
<path id="Vector_93" opacity="0.5" d="M21.3887 13.6686C22.1328 13.072 22.6526 12.2407 22.863 11.3105C23.2039 9.83045 22.1982 8.14474 21.8058 7.69141C22.012 7.92006 22.1981 8.16604 22.362 8.42664C23.5696 10.3447 23.0953 12.48 21.3887 13.6686Z" fill="#F5F5F5"/>
<path id="Vector_94" d="M22.5176 11.5321C23.158 9.37167 21.4867 6.97105 18.7846 6.17016C16.0826 5.36927 13.3731 6.47138 12.7327 8.6318C12.0924 10.7922 13.7637 13.1928 16.4657 13.9937C19.1677 14.7946 21.8773 13.6925 22.5176 11.5321Z" fill="#F6AF54"/>
<path id="Vector_95" opacity="0.4" d="M22.5176 11.5321C23.158 9.37167 21.4867 6.97105 18.7846 6.17016C16.0826 5.36927 13.3731 6.47138 12.7327 8.6318C12.0924 10.7922 13.7637 13.1928 16.4657 13.9937C19.1677 14.7946 21.8773 13.6925 22.5176 11.5321Z" fill="white"/>
<path id="Vector_96" opacity="0.2" d="M12.5972 9.65916C12.5872 9.09609 12.717 8.53932 12.9749 8.0387C13.2329 7.53809 13.611 7.10925 14.0753 6.79059C14.2617 6.65749 14.4585 6.53965 14.6639 6.43821C14.8327 6.35428 15.0063 6.2805 15.1839 6.21726C15.2842 6.18171 15.3852 6.14932 15.4867 6.12012C15.121 6.50107 15.0163 7.01726 16.1191 7.49726C18.2791 8.4344 14.3877 10.3982 14.3877 10.3982C14.3877 10.3982 13.302 8.9525 12.5972 9.65916Z" fill="white"/>
<path id="Vector_97" opacity="0.5" d="M13.1234 8.92755C12.8091 8.76183 12.8167 8.23422 13.1405 7.7466C13.4643 7.25898 13.9843 6.99802 14.2986 7.16374C14.6129 7.32945 14.6072 7.85898 14.2815 8.34469C13.9558 8.83041 13.4396 9.09326 13.1234 8.92755Z" fill="white"/>
<path id="Vector_98" d="M15.7583 12.5715C16.284 11.4724 21.0478 9.55623 21.0478 9.55623C21.0478 9.55623 22.0116 9.38671 22.0268 8.52576C22.1237 8.67889 22.2108 8.83793 22.2878 9.00195C22.3393 9.10992 22.3851 9.22055 22.4249 9.33337C23.0306 10.981 22.4154 12.6648 20.8687 13.5791C20.764 13.6419 20.6535 13.701 20.5411 13.7562C20.3857 13.8277 20.2268 13.8913 20.0649 13.9467C19.9021 14.0053 19.7361 14.0549 19.5678 14.0953C19.4383 14.1277 19.3049 14.1543 19.1716 14.1772C19.0383 14.2 18.9068 14.2172 18.7716 14.2305C18.3697 14.2677 17.9651 14.2638 17.564 14.2191C17.4764 14.2096 17.3906 14.1981 17.303 14.1848C16.9256 14.1258 16.554 14.0341 16.1925 13.9105C15.7507 13.7587 15.3271 13.5581 14.9297 13.3124C14.9297 13.3124 15.5773 13.3486 15.7583 12.5715Z" fill="#F6AF54"/>
<path id="Vector_99" opacity="0.3" d="M15.7583 12.5715C16.284 11.4724 21.0478 9.55623 21.0478 9.55623C21.0478 9.55623 22.0116 9.38671 22.0268 8.52576C22.1237 8.67889 22.2108 8.83793 22.2878 9.00195C22.3393 9.10992 22.3851 9.22055 22.4249 9.33337C23.0306 10.981 22.4154 12.6648 20.8687 13.5791C20.764 13.6419 20.6535 13.701 20.5411 13.7562C20.3857 13.8277 20.2268 13.8913 20.0649 13.9467C19.9021 14.0053 19.7361 14.0549 19.5678 14.0953C19.4383 14.1277 19.3049 14.1543 19.1716 14.1772C19.0383 14.2 18.9068 14.2172 18.7716 14.2305C18.3697 14.2677 17.9651 14.2638 17.564 14.2191C17.4764 14.2096 17.3906 14.1981 17.303 14.1848C16.9256 14.1258 16.554 14.0341 16.1925 13.9105C15.7507 13.7587 15.3271 13.5581 14.9297 13.3124C14.9297 13.3124 15.5773 13.3486 15.7583 12.5715Z" fill="white"/>
<path id="Vector_100" d="M20.9023 8.93339C21.8547 10.4572 21.2833 12.1867 19.6376 12.8877C19.5671 12.9182 19.4947 12.9467 19.4204 12.9715C17.6071 13.6096 15.3309 12.8324 14.3366 11.2381C13.3423 9.64386 14.0033 7.83434 15.8166 7.19815C15.8909 7.17148 15.9652 7.14863 16.0414 7.12768C17.8204 6.62672 19.95 7.40386 20.9023 8.93339Z" fill="#F6AF54"/>
<path id="Vector_101" opacity="0.2" d="M20.9023 8.93339C21.8547 10.4572 21.2833 12.1867 19.6376 12.8877C19.5671 12.9182 19.4947 12.9467 19.4204 12.9715C17.6071 13.6096 15.3309 12.8324 14.3366 11.2381C13.3423 9.64386 14.0033 7.83434 15.8166 7.19815C15.8909 7.17148 15.9652 7.14863 16.0414 7.12768C17.8204 6.62672 19.95 7.40386 20.9023 8.93339Z" fill="black"/>
<path id="Vector_102" d="M20.7632 8.98273C21.7156 10.5065 21.0813 12.2361 19.348 12.8437C17.6146 13.4513 15.4375 12.7104 14.487 11.1865C13.5365 9.66273 14.1689 7.9332 15.9022 7.32559C17.6356 6.71797 19.8108 7.45892 20.7632 8.98273Z" fill="#F6AF54"/>
<path id="Vector_103" opacity="0.5" d="M20.7632 8.98273C21.7156 10.5065 21.0813 12.2361 19.348 12.8437C17.6146 13.4513 15.4375 12.7104 14.487 11.1865C13.5365 9.66273 14.1689 7.9332 15.9022 7.32559C17.6356 6.71797 19.8108 7.45892 20.7632 8.98273Z" fill="black"/>
<path id="Vector_104" d="M20.4835 9.74463C19.5311 8.22082 17.3559 7.47796 15.6226 8.08748C14.979 8.29418 14.4318 8.72643 14.0816 9.30463C13.9778 9.96056 14.1225 10.6316 14.4873 11.1865C15.4397 12.7103 17.615 13.4532 19.3483 12.8437C19.9911 12.6356 20.5379 12.2037 20.8892 11.6265C20.9957 10.9705 20.8508 10.2985 20.4835 9.74463Z" fill="#F6AF54"/>
<path id="Vector_105" opacity="0.35" d="M20.4835 9.74463C19.5311 8.22082 17.3559 7.47796 15.6226 8.08748C14.979 8.29418 14.4318 8.72643 14.0816 9.30463C13.9778 9.96056 14.1225 10.6316 14.4873 11.1865C15.4397 12.7103 17.615 13.4532 19.3483 12.8437C19.9911 12.6356 20.5379 12.2037 20.8892 11.6265C20.9957 10.9705 20.8508 10.2985 20.4835 9.74463Z" fill="black"/>
<path id="Vector_106" d="M13.3001 7.80001L13.9325 6.4762L13.5629 7.88763L15.2448 8.57906L13.4868 8.09715L12.8544 9.41906L13.2239 8.00763L11.542 7.3162L13.3001 7.80001Z" fill="white"/>
</g>
</g>
</g>
<defs>
<clipPath id="clip0_1548_14030">
<rect width="22.0952" height="16" fill="white" transform="translate(0.904297)"/>
</clipPath>
</defs>
</svg>
