<svg width="24" height="24" viewBox="0 0 24 24" fill="none" xmlns="http://www.w3.org/2000/svg">
<g id="Frame">
<path id="Vector" d="M3.00391 3.00293H21.0039C21.5562 3.00293 22.0039 3.45064 22.0039 4.00293V20.0029C22.0039 20.5552 21.5562 21.0029 21.0039 21.0029H3.00391C2.45163 21.0029 2.00391 20.5552 2.00391 20.0029V4.00293C2.00391 3.45064 2.45163 3.00293 3.00391 3.00293ZM4.00391 5.00293V19.0029H20.0039V5.00293H4.00391ZM8.50391 14.0029H14.0039C14.28 14.0029 14.5039 13.7791 14.5039 13.5029C14.5039 13.2268 14.28 13.0029 14.0039 13.0029H10.0039C8.6232 13.0029 7.50391 11.8836 7.50391 10.5029C7.50391 9.12222 8.6232 8.00293 10.0039 8.00293H11.0039V6.00293H13.0039V8.00293H15.5039V10.0029H10.0039C9.72777 10.0029 9.50391 10.2268 9.50391 10.5029C9.50391 10.7791 9.72777 11.0029 10.0039 11.0029H14.0039C15.3846 11.0029 16.5039 12.1222 16.5039 13.5029C16.5039 14.8836 15.3846 16.0029 14.0039 16.0029H13.0039V18.0029H11.0039V16.0029H8.50391V14.0029Z" fill="#800020"/>
</g>
</svg>
