<svg width="64" height="64" viewBox="0 0 64 64" fill="none" xmlns="http://www.w3.org/2000/svg">
<rect width="64" height="64" rx="4" fill="white"/>
<path d="M40.7501 34.3333C40.7501 33.3668 39.9666 32.5833 39.0001 32.5833H25.0001C24.0336 32.5833 23.2501 33.3668 23.2501 34.3333C23.2501 35.2998 24.0336 36.0833 25.0001 36.0833H39.0001C39.9666 36.0833 40.7501 35.2998 40.7501 34.3333Z" fill="#2575BB"/>
<path d="M40.7501 43.6667C40.7501 42.7002 39.9666 41.9167 39.0001 41.9167H25.0001C24.0336 41.9167 23.2501 42.7002 23.2501 43.6667C23.2501 44.6332 24.0336 45.4167 25.0001 45.4167H39.0001C39.9666 45.4167 40.7501 44.6332 40.7501 43.6667Z" fill="#2575BB"/>
<path fill-rule="evenodd" clip-rule="evenodd" d="M20.3334 9.25C16.7896 9.25 13.9167 12.1228 13.9167 15.6667V48.3333C13.9167 51.8772 16.7896 54.75 20.3334 54.75H43.6667C47.2106 54.75 50.0834 51.8772 50.0834 48.3333V22.5912C50.0834 21.7027 49.7936 20.8385 49.258 20.1296L42.2632 10.8718C41.4915 9.85036 40.2854 9.25 39.0052 9.25H20.3334ZM17.4167 15.6667C17.4167 14.0558 18.7226 12.75 20.3334 12.75H37.2501V23.0098C37.2501 23.9763 38.0336 24.7598 39.0001 24.7598H46.5834V48.3333C46.5834 49.9442 45.2776 51.25 43.6667 51.25H20.3334C18.7226 51.25 17.4167 49.9442 17.4167 48.3333V15.6667Z" fill="#2575BB"/>
</svg>
