<svg width="40" height="40" viewBox="0 0 40 40" fill="none" xmlns="http://www.w3.org/2000/svg">
<path d="M20 2.5C16.3546 2.5043 12.8597 3.95434 10.282 6.53203C7.70435 9.10973 6.25432 12.6046 6.25001 16.25C6.24565 19.229 7.21874 22.1272 9.02001 24.5C9.02001 24.5 9.39501 24.9937 9.45626 25.065L20 37.5L30.5488 25.0588C30.6038 24.9925 30.98 24.5 30.98 24.5L30.9813 24.4963C32.7816 22.1245 33.7543 19.2277 33.75 16.25C33.7457 12.6046 32.2957 9.10973 29.718 6.53203C27.1403 3.95434 23.6454 2.5043 20 2.5ZM20 21.25C19.0111 21.25 18.0444 20.9568 17.2222 20.4073C16.3999 19.8579 15.7591 19.077 15.3806 18.1634C15.0022 17.2498 14.9032 16.2445 15.0961 15.2745C15.289 14.3046 15.7652 13.4137 16.4645 12.7145C17.1637 12.0152 18.0547 11.539 19.0246 11.3461C19.9945 11.1531 20.9998 11.2522 21.9134 11.6306C22.8271 12.009 23.608 12.6499 24.1574 13.4721C24.7068 14.2944 25 15.2611 25 16.25C24.9984 17.5756 24.471 18.8464 23.5337 19.7837C22.5964 20.721 21.3256 21.2483 20 21.25Z" fill="#03989E"/>
</svg>
