<svg width="20" height="20" viewBox="0 0 20 20" fill="none" xmlns="http://www.w3.org/2000/svg">
<g id="Frame">
<path id="Vector" d="M5 6.66665V5.83331C5 3.07189 7.23857 0.833313 10 0.833313C12.7614 0.833313 15 3.07189 15 5.83331V6.66665H16.6667C17.1269 6.66665 17.5 7.03975 17.5 7.49998V17.5C17.5 17.9602 17.1269 18.3333 16.6667 18.3333H3.33333C2.8731 18.3333 2.5 17.9602 2.5 17.5V7.49998C2.5 7.03975 2.8731 6.66665 3.33333 6.66665H5ZM15.8333 8.33331H4.16667V16.6666H15.8333V8.33331ZM6.66667 6.66665H13.3333V5.83331C13.3333 3.99236 11.8409 2.49998 10 2.49998C8.15905 2.49998 6.66667 3.99236 6.66667 5.83331V6.66665Z" fill="#0A0A0A"/>
</g>
</svg>
