<svg width="238" height="74" viewBox="0 0 238 74" fill="none" xmlns="http://www.w3.org/2000/svg">
<g id="Frame 50">
<g id="Group">
<g id="Group_2">
<path id="Vector" d="M49.7842 38.5209V67.8236C49.7842 70.6838 47.4684 72.9996 44.6175 72.9996C44.0824 72.9996 43.5657 72.9165 43.0859 72.7689C40.9731 72.1138 39.4415 70.1487 39.4415 67.8236V38.5209C39.4415 31.0752 33.4075 25.032 25.9527 25.032H12.2516V14.6801H25.9527C39.1186 14.6801 49.7842 25.3549 49.7842 38.5116V38.5209Z" fill="white"/>
<path id="Vector_2" d="M49.7842 38.521V67.8238C49.7842 70.6839 47.4684 72.9997 44.6175 72.9997C44.0824 72.9997 43.5657 72.9167 43.0859 72.7691C42.6431 71.9387 42.3939 70.9792 42.3939 69.9643V36.3252C42.3939 27.7724 35.5665 20.8434 27.1521 20.8434H12.2516V14.6895H25.9527C39.1186 14.6895 49.7842 25.3643 49.7842 38.521Z" fill="white"/>
<path id="Vector_3" d="M39.1457 46.6312V56.9739H24.7066C11.5406 56.9739 0.875 46.3083 0.875 33.1423V8.17595C0.875 6.08157 2.11133 4.28247 3.89201 3.47055C4.54708 3.16608 5.27596 3 6.04174 3C7.47182 3 8.7635 3.58127 9.69536 4.51313C10.6272 5.44499 11.2085 6.73663 11.2085 8.16671V33.1331C11.2085 40.5787 17.2517 46.622 24.6973 46.622H39.1365L39.1457 46.6312Z" fill="white"/>
<path id="Vector_4" d="M39.1459 46.6312V56.9739H29.7351C15.4527 56.9739 3.87372 45.3949 3.87372 31.1125V4.01487C3.87372 3.83035 3.87372 3.64585 3.9014 3.47055C4.55647 3.16608 5.28534 3 6.05113 3C7.48121 3 8.77289 3.58127 9.70475 4.51313C10.6366 5.44499 11.2179 6.73663 11.2179 8.16671V33.1331C11.2179 40.5787 17.2611 46.622 24.7067 46.622H39.1459V46.6312Z" fill="white"/>
</g>
<g id="Group_3">
<g id="Group_4">
<path id="Vector_5" d="M66.0406 32.0623V10.6296H73.8461C80.526 10.6296 84.9638 15.0121 84.9638 21.3137C84.9638 27.6152 80.526 32.0623 73.8461 32.0623H66.0406ZM70.6354 28.2334H73.8461C77.9518 28.2334 80.2492 25.3825 80.2492 21.3137C80.2492 17.2449 77.9518 14.4585 73.8461 14.4585H70.6354V28.2334Z" fill="white"/>
<path id="Vector_6" d="M86.8001 24.2201C86.8001 19.3209 90.0109 16.1378 94.8824 16.1378C99.7539 16.1378 102.78 19.081 102.845 23.7034C102.845 24.1647 102.817 24.6814 102.725 25.1704H91.3026V25.3826C91.3948 27.6154 92.8341 28.9624 95.0115 28.9624C96.7553 28.9624 97.9824 28.1966 98.3515 26.7296H102.605C102.116 29.7927 99.394 32.2377 95.1961 32.2377C89.9647 32.2377 86.8093 29.0823 86.8093 24.2108L86.8001 24.2201ZM98.4991 22.3563C98.1946 20.428 96.8752 19.3578 94.9193 19.3578C92.9633 19.3578 91.6439 20.4926 91.3948 22.3563H98.4991Z" fill="white"/>
<path id="Vector_7" d="M121.592 24.4051C121.592 29.3043 118.529 32.432 114.303 32.432C112.126 32.432 110.567 31.5463 109.561 30.2546V38.3646H105.243V16.4982H109.007L109.432 18.6756C110.447 17.3285 112.034 16.3137 114.266 16.3137C118.52 16.286 121.583 19.4414 121.583 24.3959L121.592 24.4051ZM117.21 24.3406C117.21 21.6742 115.678 19.8381 113.325 19.8381C110.973 19.8381 109.496 21.6742 109.496 24.3406C109.496 27.007 110.963 28.8984 113.325 28.8984C115.687 28.8984 117.21 27.0346 117.21 24.3406Z" fill="white"/>
<path id="Vector_8" d="M123.327 24.2201C123.327 19.3209 126.538 16.1378 131.409 16.1378C136.281 16.1378 139.307 19.081 139.372 23.7034C139.372 24.1647 139.344 24.6814 139.252 25.1704H127.829V25.3826C127.922 27.6154 129.361 28.9624 131.538 28.9624C133.282 28.9624 134.509 28.1966 134.878 26.7296H139.132C138.643 29.7927 135.921 32.2377 131.723 32.2377C126.492 32.2377 123.336 29.0823 123.336 24.2108L123.327 24.2201ZM135.026 22.3563C134.721 20.428 133.402 19.3578 131.446 19.3578C129.49 19.3578 128.171 20.4926 127.922 22.3563H135.026Z" fill="white"/>
<path id="Vector_9" d="M157.068 23.334V32.0621H152.75V23.7677C152.75 21.1013 151.735 19.6988 149.567 19.6988C147.398 19.6988 146.042 21.295 146.042 24.0167V32.0713H141.724V16.3313H145.489L145.885 18.2872C146.9 17.0601 148.339 16.1467 150.757 16.1467C154.152 16.1467 157.068 17.9551 157.068 23.3432V23.334Z" fill="white"/>
<path id="Vector_10" d="M171.147 10.6306H175.465V32.0633H171.7L171.276 29.8859C170.233 31.2329 168.702 32.2478 166.441 32.2478C162.216 32.2478 159.125 29.157 159.125 24.1656C159.125 19.1741 162.216 16.1387 166.414 16.1387C168.591 16.1387 170.15 16.9967 171.156 18.2792V10.6213L171.147 10.6306ZM171.211 24.2301C171.211 21.5361 169.744 19.6723 167.382 19.6723C165.021 19.6723 163.526 21.5084 163.526 24.2024C163.526 26.8965 165.03 28.7326 167.382 28.7326C169.735 28.7326 171.211 26.8965 171.211 24.2301Z" fill="white"/>
<path id="Vector_11" d="M193.954 28.418V32.0624H191.749C189.516 32.0624 188.806 30.9922 188.843 29.4883C187.745 31.2321 186.148 32.247 183.694 32.247C180.299 32.247 177.845 30.6231 177.845 27.6246C177.845 24.2847 180.354 22.384 185.069 22.384H188.187V21.6182C188.187 20.2066 187.182 19.2932 185.373 19.2932C183.685 19.2932 182.559 20.059 182.375 21.2215H178.214C178.518 18.1584 181.342 16.1378 185.503 16.1378C189.913 16.1378 192.45 18.0938 192.45 21.8674V27.44C192.45 28.2704 192.791 28.418 193.465 28.418H193.954ZM188.197 25.2627H185.041C183.233 25.2627 182.19 26.0007 182.19 27.3109C182.19 28.4088 183.076 29.1192 184.515 29.1192C186.785 29.1192 188.16 27.7076 188.187 25.5671V25.2627H188.197Z" fill="white"/>
<path id="Vector_12" d="M211.991 24.1646C211.991 29.0361 208.928 32.2469 204.675 32.2469C202.405 32.2469 200.846 31.2689 199.84 29.9218L199.416 32.0623H195.651V10.6296H199.969V18.3151C201.012 17.0603 202.544 16.1377 204.712 16.1377C208.937 16.1377 212.001 19.1732 212.001 24.1646H211.991ZM207.609 24.1923C207.609 21.4982 206.077 19.6622 203.725 19.6622C201.372 19.6622 199.896 21.4982 199.896 24.1646C199.896 26.831 201.363 28.7224 203.725 28.7224C206.086 28.7224 207.609 26.8864 207.609 24.1923Z" fill="white"/>
<path id="Vector_13" d="M214.381 10.6296H218.699V32.0623H214.381V10.6296Z" fill="white"/>
<path id="Vector_14" d="M221.079 24.2201C221.079 19.3209 224.29 16.1378 229.162 16.1378C234.033 16.1378 237.059 19.081 237.124 23.7034C237.124 24.1647 237.096 24.6814 237.004 25.1704H225.582V25.3826C225.674 27.6154 227.113 28.9624 229.291 28.9624C231.035 28.9624 232.262 28.1966 232.631 26.7296H236.884C236.395 29.7927 233.673 32.2377 229.475 32.2377C224.244 32.2377 221.089 29.0823 221.089 24.2108L221.079 24.2201ZM232.778 22.3563C232.474 20.428 231.155 19.3578 229.199 19.3578C227.243 19.3578 225.923 20.4926 225.674 22.3563H232.778Z" fill="white"/>
</g>
<g id="Group_5">
<path id="Vector_15" d="M66.0406 43.9644H70.6353V52.5725H79.1512V43.9644H83.7459V65.3971H79.1512V56.5491H70.6353V65.3971H66.0406V43.9644Z" fill="white"/>
<path id="Vector_16" d="M86.4308 57.5543C86.4308 52.6551 89.6416 49.472 94.5131 49.472C99.3846 49.472 102.411 52.4152 102.475 57.0376C102.475 57.4989 102.448 58.0156 102.355 58.5046H90.9333V58.7168C91.0256 60.9496 92.4648 62.2966 94.6423 62.2966C96.386 62.2966 97.6131 61.5308 97.9822 60.0638H102.236C101.747 63.127 99.0248 65.572 94.8268 65.572C89.5955 65.572 86.4401 62.4166 86.4401 57.5451L86.4308 57.5543ZM98.1298 55.6906C97.8253 53.7623 96.506 52.692 94.55 52.692C92.594 52.692 91.2747 53.8269 91.0255 55.6906H98.1298Z" fill="white"/>
<path id="Vector_17" d="M120.319 61.7523V65.3967H118.114C115.881 65.3967 115.171 64.3264 115.208 62.8225C114.101 64.5663 112.514 65.5812 110.06 65.5812C106.664 65.5812 104.21 63.9574 104.21 60.9588C104.21 57.6189 106.72 55.7183 111.434 55.7183H114.553V54.9525C114.553 53.5409 113.547 52.6274 111.739 52.6274C110.05 52.6274 108.925 53.3932 108.74 54.5558H104.579C104.884 51.4926 107.707 49.472 111.868 49.472C116.278 49.472 118.815 51.428 118.815 55.2016V60.7743C118.815 61.6046 119.157 61.7523 119.83 61.7523H120.319ZM114.562 58.5969H111.407C109.598 58.5969 108.556 59.335 108.556 60.6451C108.556 61.743 109.441 62.4535 110.881 62.4535C113.15 62.4535 114.525 61.0418 114.553 58.9013V58.5969H114.562Z" fill="white"/>
<path id="Vector_18" d="M122.007 43.9644H126.325V65.3971H122.007V43.9644Z" fill="white"/>
<path id="Vector_19" d="M130.459 53.3013H127.857V49.6569H130.459V45.2467H134.777V49.6569H138.393V53.3013H134.777V60.1933C134.777 61.2913 135.201 61.7526 136.336 61.7526H138.476V65.397H134.952C131.953 65.397 130.45 63.8931 130.45 60.8945V53.3013H130.459Z" fill="white"/>
<path id="Vector_20" d="M155.803 56.669V65.3971H151.485V57.0381C151.485 54.4639 150.443 53.0246 148.302 53.0246C146.162 53.0246 144.778 54.6208 144.778 57.3149V65.3971H140.46V43.9644H144.778V51.5853C145.793 50.3582 147.195 49.4725 149.428 49.4725C152.915 49.4725 155.794 51.3362 155.794 56.669H155.803Z" fill="white"/>
<path id="Vector_21" d="M165.602 54.6762C165.602 48.0886 169.615 43.7799 176.101 43.7799C181.185 43.7799 184.765 46.963 185.318 51.6223H180.668C180.115 49.2327 178.398 47.6734 175.861 47.6734C172.374 47.6734 170.289 50.552 170.289 54.6854C170.289 58.8188 172.337 61.6974 175.797 61.6974C178.398 61.6974 180.115 60.1381 180.668 57.7485H185.291C184.774 62.3986 181.065 65.5909 175.834 65.5909C169.467 65.5909 165.611 61.2729 165.611 54.6946L165.602 54.6762Z" fill="white"/>
<path id="Vector_22" d="M203.051 61.7523V65.3967H200.846C198.613 65.3967 197.903 64.3264 197.94 62.8225C196.833 64.5663 195.246 65.5812 192.792 65.5812C189.396 65.5812 186.942 63.9574 186.942 60.9588C186.942 57.6189 189.452 55.7183 194.166 55.7183H197.285V54.9525C197.285 53.5409 196.279 52.6274 194.471 52.6274C192.782 52.6274 191.657 53.3932 191.472 54.5558H187.311C187.616 51.4926 190.439 49.472 194.6 49.472C199.01 49.472 201.547 51.428 201.547 55.2016V60.7743C201.547 61.6046 201.889 61.7523 202.562 61.7523H203.051ZM197.294 58.5969H194.139C192.33 58.5969 191.288 59.335 191.288 60.6451C191.288 61.743 192.173 62.4535 193.613 62.4535C195.882 62.4535 197.257 61.0418 197.285 58.9013V58.5969H197.294Z" fill="white"/>
<path id="Vector_23" d="M214.317 49.6565V53.5777H212.601C210.026 53.5777 209.048 55.2938 209.048 57.6834V65.3966H204.731V49.6565H208.652L209.048 52.0184C209.907 50.6068 211.134 49.6565 213.579 49.6565H214.317Z" fill="white"/>
<path id="Vector_24" d="M215.11 57.5543C215.11 52.6551 218.321 49.472 223.192 49.472C228.064 49.472 231.09 52.4152 231.155 57.0376C231.155 57.4989 231.127 58.0156 231.035 58.5046H219.612V58.7168C219.705 60.9496 221.144 62.2966 223.321 62.2966C225.065 62.2966 226.292 61.5308 226.661 60.0638H230.915C230.426 63.127 227.704 65.572 223.506 65.572C218.275 65.572 215.119 62.4166 215.119 57.5451L215.11 57.5543ZM226.809 55.6906C226.504 53.7623 225.185 52.692 223.229 52.692C221.273 52.692 219.954 53.8269 219.705 55.6906H226.809Z" fill="white"/>
</g>
</g>
</g>
</g>
</svg>
