<svg width="63" height="44" viewBox="0 0 63 44" fill="none" xmlns="http://www.w3.org/2000/svg">
<g id="logo.svg" clip-path="url(#clip0_1548_3812)">
<path id="Vector" d="M8.45755 14.1825V28.2053H5.4742V14.1825H0V11.2651H13.9083V14.1825H8.45755Z" fill="#EBEBEB"/>
<path id="Vector_2" d="M30.1244 28.2053H27.1879V26.6644C25.7431 27.7825 23.9279 28.4119 21.8311 28.4119C16.9151 28.4119 13.3031 24.7947 13.3031 19.754C13.3031 14.7133 16.9151 11.0725 21.8311 11.0725C25.9308 11.0725 29.1018 13.567 30.0775 17.2783H26.9299C26.0669 15.2958 24.2046 14.0368 21.8263 14.0368C18.4724 14.0368 16.2584 16.5314 16.2584 19.754C16.2584 22.9767 18.5662 25.4712 21.8263 25.4712C24.5283 25.4712 26.5078 23.9772 27.1833 21.2479H21.8733V18.2601H30.1197V28.2006L30.1244 28.2053Z" fill="#EBEBEB"/>
<path id="Vector_3" d="M35.228 21.2526V28.2053H32.2447V11.2651H39.1636C43.0523 11.2651 45.3602 12.8295 45.3602 16.2589C45.3602 19.6883 43.0523 21.2526 39.1636 21.2526H35.228ZM35.228 14.1825V18.2648H39.1636C41.2369 18.2648 42.4238 17.6353 42.4238 16.2589C42.4238 14.8824 41.2369 14.1825 39.1636 14.1825H35.228Z" fill="#EBEBEB"/>
<path id="Vector_4" d="M46.4063 19.7587C46.4063 14.7179 50.0182 11.0771 54.9341 11.0771C59.0339 11.0771 62.2049 13.5717 63.1806 17.2829H60.033C59.1699 15.3005 57.3077 14.0414 54.9294 14.0414C51.5755 14.0414 49.3614 16.536 49.3614 19.7587C49.3614 22.9813 51.6693 25.4758 54.9294 25.4758C57.6548 25.4758 59.7516 23.794 60.3333 21.2995H63.3636C62.7115 25.5228 59.381 28.4166 54.9294 28.4166C50.0135 28.4166 46.4016 24.7994 46.4016 19.7587H46.4063Z" fill="#EBEBEB"/>
<path id="Vector_5" d="M12.0132 33.4998H50.8812C46.6689 39.7431 39.5389 43.8489 31.4472 43.8489C23.3556 43.8489 16.2208 39.7431 12.0132 33.4998Z" fill="#EBEBEB"/>
</g>
<defs>
<clipPath id="clip0_1548_3812">
<rect width="63" height="44" fill="white"/>
</clipPath>
</defs>
</svg>
