<svg width="63" height="44" viewBox="0 0 63 44" fill="none" xmlns="http://www.w3.org/2000/svg">
<g id="logo.svg" clip-path="url(#clip0_1548_52968)">
<g id="Container">
<g id="HSCT">
<path d="M10.2142 21.2905H2.91833V28.0848H0V11.5324H2.91833V18.3722H10.2142V11.5324H13.1325V28.0848H10.2142V21.2905Z" fill="black"/>
<path d="M23.5415 28.2672C19.4604 28.2672 16.4965 26.2152 15.6301 21.9973H18.7536C19.1184 24.1405 20.9652 25.3944 23.5415 25.3944C25.0007 25.3944 27.5542 25.0069 27.5542 23.3881C27.5542 22.4077 26.3458 21.8605 23.3591 21.4045C18.0696 20.6066 16.3825 19.2386 16.3825 16.3659C16.3825 13.7211 19.0044 11.35 23.1995 11.35C26.8474 11.35 29.3782 13.2651 30.6777 17.141H27.577C26.893 15.1575 25.4111 14.2227 23.1995 14.2227C20.9196 14.2227 19.278 15.1803 19.278 16.3659C19.278 17.4602 20.3724 18.0302 23.9063 18.5546C28.717 19.3526 30.4042 20.6294 30.427 23.3881V23.4337C30.427 26.3064 27.4858 28.2672 23.5415 28.2672Z" fill="black"/>
<path d="M40.9852 28.29C36.1746 28.29 32.6406 24.7561 32.6406 19.8314C32.6406 14.9067 36.1746 11.35 40.9852 11.35C44.9979 11.35 48.0987 13.7895 49.0563 17.4146H45.9783C45.1347 15.4767 43.3108 14.2455 40.9852 14.2455C37.7021 14.2455 35.5362 16.6851 35.5362 19.8314C35.5362 23.0689 37.7933 25.4172 40.9852 25.4172C43.6528 25.4172 45.7047 23.7757 46.2747 21.3361H49.2386C48.6003 25.4628 45.3399 28.29 40.9852 28.29Z" fill="black"/>
<path d="M63.7968 14.3823H58.4617V28.0848H55.5434V14.3823H50.1855V11.5324H63.7968V14.3823Z" fill="black"/>
</g>
</g>
<path id="Vector" d="M12.0132 33.5753H50.8812C46.6689 39.8187 39.5389 43.9245 31.4472 43.9245C23.3556 43.9245 16.2208 39.8187 12.0132 33.5753Z" fill="#0A0A0A"/>
</g>
<defs>
<clipPath id="clip0_1548_52968">
<rect width="63" height="44" fill="white"/>
</clipPath>
</defs>
</svg>
