<svg width="32" height="32" viewBox="0 0 32 32" fill="none" xmlns="http://www.w3.org/2000/svg">
<path d="M8.12566 14.9721C8.04278 14.438 7.99979 13.8908 7.99979 13.3337C7.99979 7.44262 12.8068 2.66699 18.7366 2.66699C24.6664 2.66699 29.4735 7.44262 29.4735 13.3337C29.4735 14.6644 29.2282 15.9383 28.78 17.113C28.687 17.357 28.6404 17.479 28.6193 17.5742C28.5984 17.6686 28.5903 17.735 28.588 17.8316C28.5857 17.9291 28.5989 18.0366 28.6254 18.2514L29.1622 22.6117C29.2203 23.0837 29.2493 23.3197 29.1708 23.4913C29.102 23.6416 28.9798 23.761 28.828 23.8263C28.6546 23.9009 28.4193 23.8664 27.9488 23.7974L23.7018 23.1749C23.48 23.1424 23.3691 23.1261 23.2682 23.1267C23.1683 23.1273 23.0991 23.1346 23.0014 23.1552C22.9026 23.176 22.7763 23.2232 22.5238 23.3178C21.3461 23.759 20.0697 24.0003 18.7366 24.0003C18.179 24.0003 17.6314 23.9581 17.0967 23.8767M10.1753 29.3337C14.1285 29.3337 17.3332 26.0504 17.3332 22.0003C17.3332 17.9502 14.1285 14.667 10.1753 14.667C6.22208 14.667 3.01738 17.9502 3.01738 22.0003C3.01738 22.8144 3.14687 23.5976 3.3859 24.3293C3.48694 24.6386 3.53747 24.7933 3.55405 24.8989C3.57136 25.0092 3.57439 25.0712 3.56794 25.1826C3.56177 25.2894 3.53506 25.4101 3.48163 25.6514L2.6665 29.3337L6.65957 28.7883C6.87752 28.7586 6.9865 28.7437 7.08166 28.7443C7.18186 28.745 7.23505 28.7504 7.33331 28.77C7.42664 28.7886 7.56538 28.8376 7.84287 28.9355C8.57396 29.1936 9.35865 29.3337 10.1753 29.3337Z" stroke="#0A0A0A" stroke-width="2" stroke-linecap="round" stroke-linejoin="round"/>
</svg>
