<svg width="40" height="40" viewBox="0 0 40 40" fill="none" xmlns="http://www.w3.org/2000/svg">
<path d="M27.5941 21.51L26.8358 22.265C26.8358 22.265 25.0308 24.0583 20.1058 19.1617C15.1808 14.265 16.9858 12.4717 16.9858 12.4717L17.4624 11.995C18.6408 10.825 18.7524 8.94501 17.7241 7.57167L15.6241 4.76667C14.3508 3.06667 11.8924 2.84167 10.4341 4.29167L7.81744 6.89167C7.09578 7.61167 6.61244 8.54167 6.67078 9.57501C6.82078 12.22 8.01744 17.9083 14.6908 24.545C21.7691 31.5817 28.4108 31.8617 31.1258 31.6083C31.9858 31.5283 32.7324 31.0917 33.3341 30.4917L35.7008 28.1383C37.3008 26.55 36.8508 23.825 34.8041 22.7133L31.6208 20.9817C30.2774 20.2517 28.6441 20.4667 27.5941 21.51Z" fill="#03989E"/>
</svg>
