<svg width="32" height="32" viewBox="0 0 32 32" fill="none" xmlns="http://www.w3.org/2000/svg">
<path d="M11.1737 11.8045C12.1017 13.7373 13.3667 15.5488 14.9689 17.1509C16.571 18.753 18.3825 20.0181 20.3153 20.9461C20.4816 21.0259 20.5647 21.0658 20.6699 21.0965C21.0437 21.2054 21.5027 21.1272 21.8193 20.9005C21.9083 20.8367 21.9846 20.7605 22.137 20.6081C22.6031 20.1419 22.8362 19.9089 23.0706 19.7565C23.9544 19.1818 25.0938 19.1818 25.9777 19.7565C26.2121 19.9089 26.4451 20.1419 26.9113 20.6081L27.1711 20.8679C27.8797 21.5765 28.234 21.9308 28.4265 22.3113C28.8092 23.068 28.8092 23.9617 28.4265 24.7185C28.234 25.099 27.8797 25.4533 27.1711 26.1619L26.9609 26.372C26.2548 27.0782 25.9017 27.4313 25.4216 27.701C24.889 28.0002 24.0616 28.2153 23.4507 28.2135C22.9001 28.2119 22.5238 28.1051 21.7712 27.8915C17.7267 26.7435 13.9102 24.5775 10.7262 21.3936C7.54224 18.2096 5.37627 14.3931 4.22831 10.3486C4.0147 9.59598 3.9079 9.21969 3.90626 8.66909C3.90444 8.05813 4.11959 7.23081 4.41882 6.69813C4.68848 6.21809 5.04157 5.86501 5.74773 5.15884L5.95791 4.94866C6.6665 4.24007 7.02079 3.88578 7.4013 3.69332C8.15805 3.31056 9.05174 3.31056 9.80848 3.69332C10.189 3.88578 10.5433 4.24007 11.2519 4.94866L11.5117 5.20849C11.9778 5.67463 12.2109 5.9077 12.3633 6.14207C12.938 7.02593 12.938 8.16537 12.3633 9.04922C12.2109 9.28359 11.9778 9.51666 11.5117 9.9828C11.3593 10.1352 11.2831 10.2114 11.2193 10.3005C10.9926 10.6171 10.9143 11.0761 11.0233 11.4499C11.054 11.5551 11.0939 11.6382 11.1737 11.8045Z" stroke="#0A0A0A" stroke-width="2" stroke-linecap="round" stroke-linejoin="round"/>
</svg>
