<svg width="64" height="64" viewBox="0 0 64 64" fill="none" xmlns="http://www.w3.org/2000/svg">
<rect width="64" height="64" rx="4" fill="white"/>
<path fill-rule="evenodd" clip-rule="evenodd" d="M54.75 32C54.75 32.6355 54.4054 33.2211 53.8499 33.5298L48.5244 36.4884C37.9978 42.3365 26.9011 47.0936 15.4072 50.6854L13.8553 51.1704C13.3239 51.3364 12.7453 51.2397 12.2967 50.91C11.8482 50.5802 11.5833 50.0567 11.5833 49.5L11.5833 36.0833C11.5833 35.171 12.2843 34.4117 13.1938 34.3389L13.7242 34.2965C18.7443 33.8949 23.7257 33.1267 28.6288 31.9993C23.6568 30.8562 18.6044 30.0826 13.5128 29.686L13.1974 29.6614C12.2864 29.5904 11.5833 28.8305 11.5833 27.9167L11.5833 14.5C11.5833 13.9433 11.8482 13.4198 12.2967 13.0901C12.7453 12.7603 13.3239 12.6636 13.8553 12.8297L15.4072 13.3146C26.9011 16.9065 37.9978 21.6635 48.5244 27.5117L53.8499 30.4702C54.4054 30.7789 54.75 31.3645 54.75 32ZM49.3965 32L46.8247 30.5712C36.7265 24.9611 26.0931 20.3754 15.0833 16.8821L15.0833 26.3057C21.9202 26.9223 28.6827 28.197 35.2767 30.1128L35.9882 30.3195C36.7364 30.5369 37.2508 31.2226 37.25 32.0017C37.2492 32.7808 36.7335 33.4656 35.985 33.6815L35.0736 33.9443C28.5439 35.8276 21.8501 37.0829 15.0833 37.6934L15.0833 47.118C26.0931 43.6247 36.7265 39.0389 46.8247 33.4288L49.3965 32Z" fill="#2575BB"/>
</svg>
