<svg width="21" height="20" viewBox="0 0 21 20" fill="none" xmlns="http://www.w3.org/2000/svg">
<g id="Frame">
<path id="Vector" d="M10.1665 0.833374L17.0139 2.35502C17.3953 2.43976 17.6665 2.77793 17.6665 3.16852V11.4908C17.6665 13.1625 16.831 14.7237 15.44 15.651L10.1665 19.1667L4.893 15.651C3.50201 14.7237 2.6665 13.1625 2.6665 11.4908V3.16852C2.6665 2.77793 2.93778 2.43976 3.31906 2.35502L10.1665 0.833374ZM10.1665 2.5407L4.33317 3.83699V11.4908C4.33317 12.6053 4.89017 13.646 5.8175 14.2643L10.1665 17.1636L14.5155 14.2643C15.4428 13.646 15.9998 12.6053 15.9998 11.4908V3.83699L10.1665 2.5407ZM13.8768 6.85157L15.0553 8.03007L9.752 13.3334L6.2165 9.79787L7.39501 8.61929L9.75142 10.9758L13.8768 6.85157Z" fill="#606973"/>
</g>
</svg>
