<svg width="21" height="20" viewBox="0 0 21 20" fill="none" xmlns="http://www.w3.org/2000/svg">
<g id="Frame">
<path id="Vector" d="M10.5 0.833374L17.3474 2.35502C17.7287 2.43976 18 2.77793 18 3.16852V11.4908C18 13.1625 17.1645 14.7237 15.7735 15.651L10.5 19.1667L5.2265 15.651C3.83551 14.7237 3 13.1625 3 11.4908V3.16852C3 2.77793 3.27128 2.43976 3.65256 2.35502L10.5 0.833374ZM10.5 2.5407L4.66667 3.83699V11.4908C4.66667 12.6053 5.22367 13.646 6.151 14.2643L10.5 17.1636L14.849 14.2643C15.7763 13.646 16.3333 12.6053 16.3333 11.4908V3.83699L10.5 2.5407ZM14.2103 6.85157L15.3888 8.03007L10.0855 13.3334L6.54999 9.79787L7.72851 8.61929L10.0849 10.9758L14.2103 6.85157Z" fill="#0A0A0A"/>
</g>
</svg>
