<svg width="25" height="24" viewBox="0 0 25 24" fill="none" xmlns="http://www.w3.org/2000/svg">
<g id="Frame">
<path id="Vector" d="M14.3334 4.4375C15.6796 4.4375 16.7709 3.34619 16.7709 2H17.8959C17.8959 3.34619 18.9872 4.4375 20.3334 4.4375V5.5625C18.9872 5.5625 17.8959 6.65381 17.8959 8H16.7709C16.7709 6.65381 15.6796 5.5625 14.3334 5.5625V4.4375ZM1.33337 11C4.64708 11 7.33337 8.31371 7.33337 5H9.33337C9.33337 8.31371 12.0197 11 15.3334 11V13C12.0197 13 9.33337 15.6863 9.33337 19H7.33337C7.33337 15.6863 4.64708 13 1.33337 13V11ZM17.5834 14C17.5834 15.7949 16.1283 17.25 14.3334 17.25V18.75C16.1283 18.75 17.5834 20.2051 17.5834 22H19.0834C19.0834 20.2051 20.5385 18.75 22.3334 18.75V17.25C20.5385 17.25 19.0834 15.7949 19.0834 14H17.5834Z" fill="#343B5C"/>
</g>
</svg>
