<svg width="176" height="72" viewBox="0 0 176 72" fill="none" xmlns="http://www.w3.org/2000/svg">
<path id="8" fill-rule="evenodd" clip-rule="evenodd" d="M166.158 35.8995C166.558 38.4505 167.621 40.9503 168.955 43.3658C169.308 44.021 169.892 44.5351 170.59 44.8682C171.589 45.3714 172.772 45.5087 173.714 45.1756C175.405 44.5772 175.83 42.8277 174.962 41.2521C174.9 41.1478 174.857 41.0526 174.796 40.9483C174.403 40.145 174.011 39.3416 173.67 38.5273C173.505 38.0405 173.348 37.5391 173.216 37.0322C172.828 35.2099 172.557 33.3845 172.287 31.5631C172.143 30.5897 171.999 29.6173 171.837 28.6473C171.44 26.2655 170.859 23.8611 170.283 21.4782L170.238 21.2889C170.173 21.0166 170.108 20.7439 170.043 20.471C169.295 17.3336 168.538 14.1568 167.376 11.0557C166.745 9.41613 166.08 7.79659 165.245 6.20082L165.206 6.12775C164.56 4.91786 163.859 3.60129 162.847 2.55189C161.855 1.53812 160.624 0.771358 159.181 0.742083C158.555 0.720165 157.916 0.857429 157.448 1.15387C157.13 1.34161 156.862 1.57378 156.651 1.83834C156.1 1.80545 155.553 1.80084 155.01 1.83465C151.9 1.97526 148.881 2.49771 145.882 3.01669C145.173 3.13945 144.464 3.262 143.756 3.37927L143.782 3.37378C140.543 3.83497 137.309 4.24314 134.017 4.49388C130.649 4.76112 127.256 4.94232 123.859 5.08508C122.361 5.11985 120.853 5.13086 119.333 5.11809L116.83 5.06873C115.482 5.03217 114.364 5.53354 113.841 6.57297C113.125 7.99304 114.014 9.89071 115.751 10.7837C116.579 11.2193 117.343 11.3291 118.214 11.3638C118.615 11.3821 119.001 11.3382 119.337 11.2137C121.822 11.2539 124.285 11.2466 126.731 11.1386C129.807 10.9995 132.836 10.8183 135.887 10.5931C138.818 10.3808 141.702 10.035 144.572 9.62684C146.824 9.30455 149.067 8.93972 151.303 8.5758C151.772 8.49954 152.24 8.4233 152.708 8.34756C153.985 8.16456 155.272 8.00531 156.584 7.93209C156.672 7.92267 156.766 7.92607 156.855 7.9293C156.887 7.93048 156.918 7.9316 156.949 7.93211C156.956 7.96516 156.961 7.9915 156.964 8.01469C156.966 8.03518 156.968 8.05314 156.97 8.07117C156.983 8.31638 156.996 8.56159 156.991 8.79765C156.913 9.67602 156.769 10.5032 156.593 11.3505L156.515 11.6619C155.735 14.7884 154.947 17.945 153.829 20.9524C153.026 22.9327 151.995 24.7714 150.955 26.6249C150.779 26.9397 150.602 27.255 150.426 27.5715C150.197 27.9369 149.971 28.3026 149.744 28.6679C148.933 29.9761 148.124 31.2795 147.234 32.5527C146.054 34.2162 144.81 35.8284 143.539 37.4461C143.365 37.6456 143.192 37.8455 143.018 38.0453C142.116 39.0837 141.216 40.1207 140.256 41.1152L140.244 41.1275C138.753 42.646 137.261 44.1644 135.74 45.65C134.57 46.8012 133.363 47.9344 132.164 49.0612C131.883 49.3244 131.604 49.5872 131.325 49.8498C130.493 50.6459 129.605 51.3886 128.719 52.1297C128.293 52.4857 127.868 52.8414 127.45 53.2025C127.504 53.1457 127.563 53.0968 127.619 53.0495C127.661 53.0144 127.702 52.9802 127.739 52.9444L127.515 53.1199C125.222 54.9147 122.945 56.6976 120.413 58.266C118.435 59.4354 116.348 60.4584 114.211 61.4009C112.388 62.1713 110.504 62.8374 108.577 63.4084C106.916 63.8568 105.212 64.21 103.458 64.4827C101.394 64.7828 99.3196 64.9677 97.1947 65.072C95.6277 65.1087 94.072 65.0776 92.4841 64.9751C90.98 64.8416 89.4764 64.6165 87.9588 64.3292C86.4013 63.9852 84.8659 63.5972 83.3419 63.1416C81.458 62.5413 79.6185 61.8533 77.805 61.0683C75.9335 60.2174 74.0881 59.2695 72.2796 58.2484C71.8766 58.0087 71.4917 57.7781 71.0887 57.5384C75.322 57.046 79.4808 56.2042 83.257 54.7658C87.4786 53.1664 91.7948 50.9722 94.1441 47.4385C96.3868 44.0712 97.165 40.0398 96.8438 35.84C96.5357 31.8854 95.2929 27.6619 92.9904 23.9141C90.4535 19.7729 86.8164 16.2338 82.3394 13.5932C77.9351 10.9892 72.955 9.61863 68.1047 9.70836C63.3492 9.79078 59.21 11.6336 56.3831 14.5781C53.3254 17.7549 51.076 21.6327 49.5725 25.7026C48.1392 29.5876 47.1812 33.8405 47.7346 38.2123C48.2811 42.5073 50.3867 46.8717 53.4944 50.603C53.6971 50.8336 53.8816 51.055 54.0843 51.2856C53.3198 51.1758 52.5444 51.0422 51.7947 50.9031C49.4363 50.431 47.0934 49.8382 44.7657 49.1245C42.8746 48.509 41.018 47.8251 39.1629 47.0563C39.1014 47.0272 39.0389 47.0001 38.9741 46.9775C38.9609 46.9712 38.9475 46.9647 38.9341 46.9579C36.7573 45.9899 34.632 44.9194 32.5585 43.7464L32.5403 43.7372C32.4727 43.7031 32.401 43.66 32.3259 43.6168C29.832 42.139 27.4463 40.5747 25.1103 38.9117L24.4338 38.3969C22.0278 36.5673 19.6393 34.7509 17.4224 32.7448C16.4766 31.8646 15.553 30.9404 14.6804 30.0053C13.9929 29.2002 13.349 28.3986 12.7455 27.5623C12.1244 26.6254 11.5544 25.6775 11.0172 24.7095C10.4772 23.6115 9.98823 22.5025 9.53217 21.3734C8.77165 19.3567 8.11333 17.3182 7.60088 15.2613C7.43044 14.5147 7.30375 13.7717 7.22067 13.0324C7.18656 12.6482 7.17052 12.273 7.18004 11.8924C7.19332 11.7153 7.22268 11.5464 7.25203 11.3775C7.26666 11.2932 7.2813 11.209 7.29394 11.1237C7.31263 11.0414 7.35687 10.9535 7.37557 10.8712C7.41781 10.7628 7.46538 10.657 7.51669 10.5502C7.55966 10.4605 7.60524 10.37 7.65236 10.2764C8.36768 8.85636 7.50452 6.95323 5.74265 6.06575C3.98079 5.17826 1.93026 5.63204 1.22231 7.03748L1.1412 7.19851C0.565487 8.43194 0.196809 9.75131 0.228422 11.1805C0.258401 12.8843 0.543206 14.6246 1.00681 16.3265C1.4704 18.0284 2.0468 19.732 2.62332 21.4357C3.67919 24.629 5.32878 27.8643 7.49423 30.7539C9.90549 33.9691 12.9057 36.7836 16.1221 39.3949C20.3212 42.8132 24.8204 45.9973 29.5738 48.7221C30.7069 49.3663 31.8364 49.972 32.97 50.5246C39.6362 53.8825 46.8186 56.2156 54.0268 57.2769C56.4442 57.6319 58.8841 57.8515 61.2957 57.9466C62.4963 58.8634 63.7264 59.7216 64.9894 60.5597C73.8271 66.3881 84.1316 70.661 94.4295 71.1494C97.1395 71.2848 99.8218 71.2042 102.443 70.9279C104.78 70.6735 107.129 70.3514 109.365 69.8445C113.861 68.7867 118.079 67.1488 121.968 65.1248C126.529 62.7604 130.504 59.7519 134.254 56.5567C136.756 54.4394 139.126 52.2195 141.439 49.9339C142.645 48.7609 143.84 47.564 145.017 46.358C146.153 45.1868 147.235 43.9882 148.306 42.7658C150.467 40.33 152.352 37.7187 154.189 35.0652C154.835 34.1234 155.418 33.1507 156.002 32.1781C156.197 31.8542 156.391 31.5303 156.588 31.2076C157.622 29.5624 158.561 27.8331 159.395 26.0872C160.736 23.2937 161.628 20.3025 162.417 17.2818C162.839 18.8735 163.22 20.4674 163.6 22.0586L163.683 22.4108L163.809 22.9741C164.418 25.7026 165.029 28.4393 165.435 31.1855C165.662 32.7685 165.905 34.3221 166.158 35.8995ZM38.9785 46.9796C39.0399 47.0052 39.1015 47.0309 39.1629 47.0563C39.2106 47.0788 39.2577 47.1025 39.3047 47.1262C39.2412 47.0942 39.1803 47.0682 39.1194 47.0421C39.0727 47.0221 39.0262 47.0022 38.9785 46.9796ZM38.9785 46.9796L38.9704 46.9762L38.9741 46.9775L38.9785 46.9796ZM74.9176 16.5725C75.5795 16.7957 76.2266 17.0483 76.8918 17.3099C77.2625 17.4783 77.6257 17.6613 78.0146 17.8388C78.3779 18.0218 78.723 18.1956 79.0789 18.3933C79.8486 18.8544 80.6036 19.3448 81.3438 19.8645C82.0693 20.4135 82.7727 21.0064 83.4505 21.6048C83.9359 22.088 84.4138 22.5857 84.8844 23.098C85.38 23.6964 85.8502 24.3003 86.3056 24.9335C86.7246 25.5484 87.0999 26.1596 87.4604 26.8001C87.8675 27.5741 88.2128 28.3354 88.5433 29.126C88.934 30.2038 89.2556 31.2835 89.526 32.3742C89.7102 33.2745 89.8506 34.1712 89.9473 35.0642C90.0184 35.9627 90.0278 36.8485 89.9826 37.7067C89.9164 38.4259 89.8065 39.1414 89.6783 39.8478C89.5253 40.4681 89.3212 41.0995 89.1062 41.707C88.8918 42.2231 88.6485 42.7062 88.387 43.1802C88.1259 43.5626 87.8723 43.9304 87.575 44.2946C87.1937 44.6899 86.8123 45.0851 86.3948 45.4621C85.7797 45.9599 85.1249 46.4009 84.4518 46.8328C83.4133 47.4477 82.3426 47.9913 81.2064 48.4835C79.8331 49.0399 78.42 49.5395 76.9746 49.9677C75.0805 50.4886 73.1596 50.893 71.1756 51.2121C68.911 51.5415 66.6224 51.7878 64.2868 51.8729C63.9151 51.8875 63.5251 51.893 63.1353 51.8985C62.7873 51.5947 62.4211 51.2818 62.0732 50.978C61.2035 50.1729 60.374 49.3329 59.5741 48.4344C58.9155 47.6621 58.2791 46.846 57.6937 46.0188C57.2026 45.2759 56.7444 44.5128 56.3117 43.7442C56.0022 43.0927 55.711 42.4504 55.4452 41.8026C55.2339 41.1823 55.0481 40.5564 54.8878 39.9251C54.8031 39.4602 54.7293 39.0193 54.6628 38.5636C54.5922 37.5736 54.5761 36.611 54.611 35.6375C54.7129 34.4407 54.8873 33.2805 55.131 32.1184C55.4786 30.6599 55.9351 29.2563 56.4717 27.8747C57.1699 26.2625 57.9408 24.6868 58.8389 23.1753C59.5157 22.1029 60.2214 21.0634 61.0435 20.0642C61.6597 19.3835 62.305 18.7357 62.9972 18.13C63.2046 17.9744 63.4097 17.8235 63.617 17.6763C63.7756 17.5638 63.9354 17.4535 64.0986 17.3449C64.5702 17.0869 65.0417 16.8288 65.5422 16.6037C65.9293 16.4683 66.3089 16.3475 66.6886 16.2267C67.1301 16.1187 67.5387 16.0309 67.9837 15.9614C68.4286 15.8918 68.8843 15.8461 69.3509 15.8241C70.0104 15.8259 70.6625 15.8424 71.3254 15.8826C71.9736 15.9521 72.6144 16.0363 73.2586 16.1589C73.8154 16.2742 74.3574 16.4187 74.9176 16.5725Z" fill="#BA8827"/>
</svg>
