<svg width="568" height="568" viewBox="0 0 568 568" fill="none" xmlns="http://www.w3.org/2000/svg">
<path d="M372.694 404.175L366.295 407.886C366.295 407.886 371.356 411.345 371.382 411.345C371.394 411.345 372.707 404.175 372.707 404.175H372.694Z" fill="#E8E8E8"/>
<path d="M448.326 452.039C447.089 448.113 444.388 444.73 441.889 443.708C439.466 436.993 434.429 431.502 430.264 431.149C427.121 424.623 422.148 419.574 417.768 418.767C414.436 411.774 408.97 406.435 404.401 406.157C400.475 405.917 398.279 409.451 398.393 414.778C396.55 412.922 394.568 411.736 392.751 411.534C390.176 406.081 385.922 401.929 382.375 401.701C380.04 401.55 378.5 403.14 377.945 405.74C376.708 404.63 375.408 403.923 374.221 403.847C371.848 403.708 370.637 406.056 370.952 409.464L378.727 413.958L383.246 416.57L387.916 419.271L394.707 423.197L400.374 426.466L401.965 427.388L405.108 429.205L411.823 433.08L418.828 437.119L422.59 439.29L425.657 441.057L433.117 445.362L435.351 448.744L442.394 458.198L448.856 454.462C448.755 453.692 448.604 452.897 448.326 452.039Z" fill="#E8E8E8"/>
<path d="M380.128 402.219L374.031 405.766L378.474 407.76L381.314 404.516L380.128 402.219Z" fill="#E8E8E8"/>
<path d="M401.347 406.926L395.806 410.195L400.817 413.439L403.821 410.599L401.347 406.926Z" fill="#E8E8E8"/>
<path d="M441.864 455.776C440.627 451.85 437.926 448.48 435.427 447.445C433.004 440.73 427.967 435.239 423.802 434.886C420.659 428.36 415.686 423.311 411.306 422.503C407.974 415.511 402.508 410.171 397.939 409.894C394.014 409.654 391.83 413.188 391.931 418.515C390.088 416.659 388.106 415.473 386.289 415.271C383.714 409.818 379.46 405.653 375.913 405.438C373.578 405.287 372.038 406.877 371.483 409.477C370.246 408.367 368.946 407.66 367.759 407.584C365.386 407.445 364.175 409.793 364.478 413.201L372.253 417.694L376.784 420.307L381.454 423.008L388.245 426.921L393.913 430.19L395.503 431.112L398.646 432.929L405.361 436.804L412.366 440.844L416.128 443.015L419.195 444.782L426.655 449.086L431.085 451.648L436.765 454.93L442.395 458.174C442.294 457.404 442.142 456.609 441.877 455.75L441.864 455.776Z" fill="#F6F6F6"/>
<g style="mix-blend-mode:multiply">
<path d="M272.713 498.276L84.2379 389.409L156.866 347.478L355.855 462.328C355.855 462.328 313.735 486.423 299.825 494.666C290.498 500.194 277.812 499.841 272.7 498.276H272.713Z" fill="#E2E7E8"/>
</g>
<path d="M90.0323 377.493L156.198 338.907L156.337 338.818H156.349L344.534 449.086L273.004 498.376L83.5066 388.79C83.5066 384.637 86.4223 379.563 90.0323 377.493Z" fill="url(#paint0_linear_2297_19397)"/>
<path d="M279.541 487.067L344.546 449.036V456.559L273.016 498.364C273.016 494.198 275.944 489.137 279.541 487.054V487.067Z" fill="url(#paint1_linear_2297_19397)"/>
<g style="mix-blend-mode:multiply">
<path d="M315.994 450.462L322.318 454.186L328.667 450.525L322.356 446.852L315.994 450.462Z" fill="#DDE4E8"/>
</g>
<g style="mix-blend-mode:multiply">
<path d="M301.668 442.119L307.992 445.818L314.366 442.17L308.042 438.459L301.668 442.119Z" fill="#DDE4E8"/>
</g>
<g style="mix-blend-mode:multiply">
<path d="M294.41 437.852L300.721 441.563L307.083 437.915L300.759 434.229L294.41 437.852Z" fill="#DDE4E8"/>
</g>
<g style="mix-blend-mode:multiply">
<path d="M287.127 433.638L293.476 437.323L299.812 433.713L293.527 429.99L287.127 433.638Z" fill="#DDE4E8"/>
</g>
<g style="mix-blend-mode:multiply">
<path d="M271.325 475.643L277.674 479.316L284.048 475.731L277.712 471.995L271.325 475.643Z" fill="#DDE4E8"/>
</g>
<g style="mix-blend-mode:multiply">
<path d="M264.092 471.39L270.441 475.076L276.79 471.453L270.479 467.768L264.092 471.39Z" fill="#DDE4E8"/>
</g>
<g style="mix-blend-mode:multiply">
<path d="M256.81 467.137L263.146 470.835L269.495 467.212L263.184 463.501L256.81 467.137Z" fill="#DDE4E8"/>
</g>
<g style="mix-blend-mode:multiply">
<path d="M279.857 429.371L286.193 433.056L292.542 429.434L286.231 425.748L279.857 429.371Z" fill="#DDE4E8"/>
</g>
<g style="mix-blend-mode:multiply">
<path d="M305.177 456.534L311.513 460.257L317.875 456.61L311.551 452.924L305.177 456.534Z" fill="#DDE4E8"/>
</g>
<g style="mix-blend-mode:multiply">
<path d="M297.907 452.267L304.243 455.99L310.63 452.343L304.281 448.682L297.907 452.267Z" fill="#DDE4E8"/>
</g>
<g style="mix-blend-mode:multiply">
<path d="M290.662 448.051L296.973 451.724L303.348 448.114L297.011 444.428L290.662 448.051Z" fill="#DDE4E8"/>
</g>
<g style="mix-blend-mode:multiply">
<path d="M283.429 443.797L289.727 447.52L296.102 443.86L289.765 440.174L283.429 443.797Z" fill="#DDE4E8"/>
</g>
<g style="mix-blend-mode:multiply">
<path d="M275.969 439.494L282.293 443.154L288.68 439.557L282.331 435.846L275.969 439.494Z" fill="#DDE4E8"/>
</g>
<g style="mix-blend-mode:multiply">
<path d="M268.736 435.252L275.035 438.925L281.384 435.315L275.073 431.592L268.736 435.252Z" fill="#DDE4E8"/>
</g>
<g style="mix-blend-mode:multiply">
<path d="M261.454 430.973L267.753 434.684L274.14 431.049L267.791 427.338L261.454 430.973Z" fill="#DDE4E8"/>
</g>
<g style="mix-blend-mode:multiply">
<path d="M254.184 426.744L260.52 430.443L266.856 426.808L260.558 423.084L254.184 426.744Z" fill="#DDE4E8"/>
</g>
<g style="mix-blend-mode:multiply">
<path d="M247.014 422.529L253.338 426.253L259.712 422.592L253.401 418.944L247.014 422.529Z" fill="#DDE4E8"/>
</g>
<g style="mix-blend-mode:multiply">
<path d="M239.756 418.288L246.118 422.012L252.441 418.364L246.156 414.691L239.756 418.288Z" fill="#DDE4E8"/>
</g>
<g style="mix-blend-mode:multiply">
<path d="M232.486 414.085L238.822 417.771L245.171 414.148L238.86 410.437L232.486 414.085Z" fill="#DDE4E8"/>
</g>
<g style="mix-blend-mode:multiply">
<path d="M225.228 409.831L231.552 413.542L237.938 409.882L231.59 406.208L225.228 409.831Z" fill="#DDE4E8"/>
</g>
<g style="mix-blend-mode:multiply">
<path d="M217.806 405.489L224.117 409.175L230.517 405.578L224.168 401.854L217.806 405.489Z" fill="#DDE4E8"/>
</g>
<g style="mix-blend-mode:multiply">
<path d="M210.562 401.248L216.898 404.921L223.222 401.311L216.936 397.612L210.562 401.248Z" fill="#DDE4E8"/>
</g>
<g style="mix-blend-mode:multiply">
<path d="M203.29 397.02L209.576 400.693L216.001 397.083L209.614 393.347L203.29 397.02Z" fill="#DDE4E8"/>
</g>
<g style="mix-blend-mode:multiply">
<path d="M196.058 392.765L202.344 396.451L208.718 392.829L202.381 389.105L196.058 392.765Z" fill="#DDE4E8"/>
</g>
<g style="mix-blend-mode:multiply">
<path d="M265.392 420.913L271.69 424.586L278.026 420.989L271.728 417.252L265.392 420.913Z" fill="#DDE4E8"/>
</g>
<g style="mix-blend-mode:multiply">
<path d="M258.109 416.673L264.42 420.346L270.819 416.736L264.458 413.013L258.109 416.673Z" fill="#DDE4E8"/>
</g>
<g style="mix-blend-mode:multiply">
<path d="M250.851 412.381L257.174 416.092L263.511 412.457L257.212 408.771L250.851 412.381Z" fill="#DDE4E8"/>
</g>
<g style="mix-blend-mode:multiply">
<path d="M243.568 408.165L249.929 411.851L256.278 408.228L249.967 404.517L243.568 408.165Z" fill="#DDE4E8"/>
</g>
<g style="mix-blend-mode:multiply">
<path d="M228.913 399.582L235.224 403.293L241.586 399.645L235.262 395.947L228.913 399.582Z" fill="#DDE4E8"/>
</g>
<g style="mix-blend-mode:multiply">
<path d="M221.618 395.341L227.967 399.014L234.328 395.404L228.004 391.731L221.618 395.341Z" fill="#DDE4E8"/>
</g>
<g style="mix-blend-mode:multiply">
<path d="M214.4 391.1L220.736 394.811L227.085 391.175L220.774 387.477L214.4 391.1Z" fill="#DDE4E8"/>
</g>
<g style="mix-blend-mode:multiply">
<path d="M207.117 386.821L213.453 390.52L219.827 386.897L213.491 383.186L207.117 386.821Z" fill="#DDE4E8"/>
</g>
<g style="mix-blend-mode:multiply">
<path d="M184.155 424.688L190.454 428.361L196.841 424.751L190.492 421.065L184.155 424.688Z" fill="#DDE4E8"/>
</g>
<g style="mix-blend-mode:multiply">
<path d="M176.885 420.446L183.221 424.119L189.57 420.522L183.259 416.811L176.885 420.446Z" fill="#DDE4E8"/>
</g>
<g style="mix-blend-mode:multiply">
<path d="M169.601 416.205L175.95 419.878L182.312 416.268L175.988 412.545L169.601 416.205Z" fill="#DDE4E8"/>
</g>
<g style="mix-blend-mode:multiply">
<path d="M162.369 411.951L168.693 415.611L175.054 412.014L168.743 408.315L162.369 411.951Z" fill="#DDE4E8"/>
</g>
<g style="mix-blend-mode:multiply">
<path d="M194.304 379.311L200.59 383.022L206.977 379.374L200.628 375.688L194.304 379.311Z" fill="#DDE4E8"/>
</g>
<g style="mix-blend-mode:multiply">
<path d="M187.033 375.069L193.357 378.768L199.706 375.132L193.395 371.447L187.033 375.069Z" fill="#DDE4E8"/>
</g>
<g style="mix-blend-mode:multiply">
<path d="M179.763 370.829L186.087 374.514L192.486 370.904L186.125 367.181L179.763 370.829Z" fill="#DDE4E8"/>
</g>
<g style="mix-blend-mode:multiply">
<path d="M137.504 371.434L143.841 375.145L150.202 371.497L143.878 367.811L137.504 371.434Z" fill="#DDE4E8"/>
</g>
<g style="mix-blend-mode:multiply">
<path d="M130.258 367.194L136.582 370.905L142.918 367.27L136.619 363.571L130.258 367.194Z" fill="#DDE4E8"/>
</g>
<g style="mix-blend-mode:multiply">
<path d="M122.987 362.977L129.336 366.688L135.672 363.053L129.374 359.33L122.987 362.977Z" fill="#DDE4E8"/>
</g>
<g style="mix-blend-mode:multiply">
<path d="M129.943 375.763L136.242 379.474L142.628 375.839L136.279 372.166L129.943 375.763Z" fill="#DDE4E8"/>
</g>
<g style="mix-blend-mode:multiply">
<path d="M122.661 371.51L128.984 375.246L135.371 371.586L129.022 367.913L122.661 371.51Z" fill="#DDE4E8"/>
</g>
<g style="mix-blend-mode:multiply">
<path d="M115.39 367.294L121.752 370.967L128.113 367.382L121.79 363.659L115.39 367.294Z" fill="#DDE4E8"/>
</g>
<g style="mix-blend-mode:multiply">
<path d="M183.611 385.432L189.91 389.131L196.259 385.495L189.948 381.835L183.611 385.432Z" fill="#DDE4E8"/>
</g>
<g style="mix-blend-mode:multiply">
<path d="M176.342 381.166L182.628 384.852L189.027 381.242L182.678 377.569L176.342 381.166Z" fill="#DDE4E8"/>
</g>
<g style="mix-blend-mode:multiply">
<path d="M169.034 376.937L175.396 380.61L181.757 377L175.434 373.327L169.034 376.937Z" fill="#DDE4E8"/>
</g>
<g style="mix-blend-mode:multiply">
<path d="M176.001 389.749L182.312 393.447L188.661 389.812L182.35 386.101L176.001 389.749Z" fill="#DDE4E8"/>
</g>
<g style="mix-blend-mode:multiply">
<path d="M168.731 385.508L175.08 389.194L181.403 385.571L175.117 381.885L168.731 385.508Z" fill="#DDE4E8"/>
</g>
<g style="mix-blend-mode:multiply">
<path d="M161.448 381.304L167.797 384.952L174.159 381.38L167.835 377.644L161.448 381.304Z" fill="#DDE4E8"/>
</g>
<g style="mix-blend-mode:multiply">
<path d="M122.369 380.106L128.681 383.804L135.067 380.169L128.718 376.483L122.369 380.106Z" fill="#DDE4E8"/>
</g>
<g style="mix-blend-mode:multiply">
<path d="M115.087 375.84L121.436 379.563L127.772 375.903L121.473 372.205L115.087 375.84Z" fill="#DDE4E8"/>
</g>
<g style="mix-blend-mode:multiply">
<path d="M100.256 375.929L106.605 379.614L120.54 371.675L114.216 367.989L100.256 375.929Z" fill="#DDE4E8"/>
</g>
<g style="mix-blend-mode:multiply">
<path d="M114.784 384.397L121.12 388.121L127.495 384.46L121.158 380.787L114.784 384.397Z" fill="#DDE4E8"/>
</g>
<g style="mix-blend-mode:multiply">
<path d="M107.501 380.17L113.812 383.855L120.187 380.245L113.863 376.56L107.501 380.17Z" fill="#DDE4E8"/>
</g>
<g style="mix-blend-mode:multiply">
<path d="M159.138 359.128L165.487 362.801L171.824 359.203L165.525 355.455L159.138 359.128Z" fill="#DDE4E8"/>
</g>
<g style="mix-blend-mode:multiply">
<path d="M151.894 354.874L158.218 358.534L164.604 354.95L158.256 351.239L151.894 354.874Z" fill="#DDE4E8"/>
</g>
<g style="mix-blend-mode:multiply">
<path d="M144.661 350.633L150.946 354.331L157.308 350.696L150.984 346.985L144.661 350.633Z" fill="#DDE4E8"/>
</g>
<g style="mix-blend-mode:multiply">
<path d="M152.89 397.336L159.214 401.047L165.575 397.412L159.251 393.701L152.89 397.336Z" fill="#DDE4E8"/>
</g>
<g style="mix-blend-mode:multiply">
<path d="M152.549 405.918L158.886 409.616L165.272 405.981L158.923 402.295L152.549 405.918Z" fill="#DDE4E8"/>
</g>
<g style="mix-blend-mode:multiply">
<path d="M145.292 401.689L151.616 405.362L158.002 401.739L151.653 398.054L145.292 401.689Z" fill="#DDE4E8"/>
</g>
<g style="mix-blend-mode:multiply">
<path d="M138.046 397.41L144.37 401.121L150.731 397.473L144.408 393.8L138.046 397.41Z" fill="#DDE4E8"/>
</g>
<g style="mix-blend-mode:multiply">
<path d="M294.688 459.147L303.953 464.549L310.289 460.939L301.05 455.549L294.688 459.147Z" fill="#DDE4E8"/>
</g>
<g style="mix-blend-mode:multiply">
<path d="M287.379 454.905L293.716 458.629L300.128 454.981L293.766 451.295L287.379 454.905Z" fill="#DDE4E8"/>
</g>
<g style="mix-blend-mode:multiply">
<path d="M280.172 450.651L286.483 454.374L292.845 450.726L286.521 447.066L280.172 450.651Z" fill="#DDE4E8"/>
</g>
<g style="mix-blend-mode:multiply">
<path d="M272.864 446.409L279.187 450.12L285.587 446.485L279.225 442.812L272.864 446.409Z" fill="#DDE4E8"/>
</g>
<g style="mix-blend-mode:multiply">
<path d="M265.467 442.082L271.778 445.767L278.14 442.157L271.816 438.459L265.467 442.082Z" fill="#DDE4E8"/>
</g>
<g style="mix-blend-mode:multiply">
<path d="M258.196 437.851L264.508 441.562L270.882 437.914L264.545 434.191L258.196 437.851Z" fill="#DDE4E8"/>
</g>
<g style="mix-blend-mode:multiply">
<path d="M250.914 433.612L257.238 437.272L263.625 433.687L257.276 429.951L250.914 433.612Z" fill="#DDE4E8"/>
</g>
<g style="mix-blend-mode:multiply">
<path d="M243.683 429.344L249.981 433.03L256.343 429.42L250.019 425.722L243.683 429.344Z" fill="#DDE4E8"/>
</g>
<g style="mix-blend-mode:multiply">
<path d="M236.526 425.167L242.862 428.891L249.198 425.23L242.9 421.544L236.526 425.167Z" fill="#DDE4E8"/>
</g>
<g style="mix-blend-mode:multiply">
<path d="M229.243 420.927L235.617 424.638L241.966 421.003L235.655 417.317L229.243 420.927Z" fill="#DDE4E8"/>
</g>
<g style="mix-blend-mode:multiply">
<path d="M222.01 416.66L228.321 420.396L234.657 416.723L228.371 413.063L222.01 416.66Z" fill="#DDE4E8"/>
</g>
<g style="mix-blend-mode:multiply">
<path d="M214.726 412.456L221.075 416.142L227.462 412.532L221.113 408.833L214.726 412.456Z" fill="#DDE4E8"/>
</g>
<g style="mix-blend-mode:multiply">
<path d="M207.279 408.115L213.628 411.8L220.015 408.178L213.666 404.454L207.279 408.115Z" fill="#DDE4E8"/>
</g>
<g style="mix-blend-mode:multiply">
<path d="M200.071 403.848L206.332 407.559L212.719 403.924L206.382 400.2L200.071 403.848Z" fill="#DDE4E8"/>
</g>
<g style="mix-blend-mode:multiply">
<path d="M188.435 397.082L199.113 403.293L205.475 399.683L194.796 393.435L188.435 397.082Z" fill="#DDE4E8"/>
</g>
<g style="mix-blend-mode:multiply">
<path d="M283.72 461.494L296.367 468.878L302.741 465.231L290.056 457.821L283.72 461.494Z" fill="#DDE4E8"/>
</g>
<g style="mix-blend-mode:multiply">
<path d="M276.335 457.152L282.684 460.876L289.008 457.215L282.709 453.567L276.335 457.152Z" fill="#DDE4E8"/>
</g>
<g style="mix-blend-mode:multiply">
<path d="M269.065 452.923L275.388 456.634L281.75 452.999L275.426 449.288L269.065 452.923Z" fill="#DDE4E8"/>
</g>
<g style="mix-blend-mode:multiply">
<path d="M261.845 448.683L268.156 452.394L274.492 448.746L268.194 445.06L261.845 448.683Z" fill="#DDE4E8"/>
</g>
<g style="mix-blend-mode:multiply">
<path d="M254.372 444.354L260.709 448.027L267.07 444.417L260.747 440.681L254.372 444.354Z" fill="#DDE4E8"/>
</g>
<g style="mix-blend-mode:multiply">
<path d="M247.115 440.1L253.426 443.811L259.788 440.163L253.477 436.477L247.115 440.1Z" fill="#DDE4E8"/>
</g>
<g style="mix-blend-mode:multiply">
<path d="M239.858 435.858L246.169 439.557L252.543 435.934L246.207 432.21L239.858 435.858Z" fill="#DDE4E8"/>
</g>
<g style="mix-blend-mode:multiply">
<path d="M232.574 431.617L238.897 435.29L245.297 431.693L238.923 427.957L232.574 431.617Z" fill="#DDE4E8"/>
</g>
<g style="mix-blend-mode:multiply">
<path d="M225.455 427.439L231.766 431.124L238.153 427.514L231.804 423.816L225.455 427.439Z" fill="#DDE4E8"/>
</g>
<g style="mix-blend-mode:multiply">
<path d="M218.171 423.185L224.52 426.883L230.856 423.248L224.571 419.55L218.171 423.185Z" fill="#DDE4E8"/>
</g>
<g style="mix-blend-mode:multiply">
<path d="M210.888 418.943L217.237 422.654L223.599 419.006L217.275 415.308L210.888 418.943Z" fill="#DDE4E8"/>
</g>
<g style="mix-blend-mode:multiply">
<path d="M203.656 414.704L209.979 418.389L216.341 414.779L210.017 411.068L203.656 414.704Z" fill="#DDE4E8"/>
</g>
<g style="mix-blend-mode:multiply">
<path d="M196.222 410.373L202.571 414.071L208.907 410.436L202.621 406.738L196.222 410.373Z" fill="#DDE4E8"/>
</g>
<g style="mix-blend-mode:multiply">
<path d="M180.862 401.375L195.062 409.68L201.474 406.07L187.248 397.752L180.862 401.375Z" fill="#DDE4E8"/>
</g>
<g style="mix-blend-mode:multiply">
<path d="M272.27 463.564L288.667 473.144L295.028 469.509L278.645 459.954L272.27 463.564Z" fill="#DDE4E8"/>
</g>
<g style="mix-blend-mode:multiply">
<path d="M192.927 429.825L254.322 465.684L260.671 462.062L199.327 426.189L192.927 429.825Z" fill="#DDE4E8"/>
</g>
<g style="mix-blend-mode:multiply">
<path d="M265.102 459.386L271.438 463.097L277.8 459.449L271.489 455.75L265.102 459.386Z" fill="#DDE4E8"/>
</g>
<g style="mix-blend-mode:multiply">
<path d="M257.858 455.132L264.194 458.843L270.53 455.195L264.232 451.497L257.858 455.132Z" fill="#DDE4E8"/>
</g>
<g style="mix-blend-mode:multiply">
<path d="M250.435 450.815L256.759 454.475L263.12 450.865L256.796 447.167L250.435 450.815Z" fill="#DDE4E8"/>
</g>
<g style="mix-blend-mode:multiply">
<path d="M243.164 446.548L249.475 450.247L255.862 446.624L249.513 442.913L243.164 446.548Z" fill="#DDE4E8"/>
</g>
<g style="mix-blend-mode:multiply">
<path d="M235.88 442.32L242.229 446.005L248.591 442.383L242.267 438.659L235.88 442.32Z" fill="#DDE4E8"/>
</g>
<g style="mix-blend-mode:multiply">
<path d="M228.649 438.054L234.973 441.765L241.297 438.117L235.011 434.432L228.649 438.054Z" fill="#DDE4E8"/>
</g>
<g style="mix-blend-mode:multiply">
<path d="M221.492 433.889L227.816 437.587L234.152 433.952L227.866 430.241L221.492 433.889Z" fill="#DDE4E8"/>
</g>
<g style="mix-blend-mode:multiply">
<path d="M214.246 429.647L220.545 433.346L226.906 429.71L220.583 425.987L214.246 429.647Z" fill="#DDE4E8"/>
</g>
<g style="mix-blend-mode:multiply">
<path d="M206.95 425.42L213.312 429.081L219.648 425.483L213.35 421.747L206.95 425.42Z" fill="#DDE4E8"/>
</g>
<g style="mix-blend-mode:multiply">
<path d="M199.68 421.141L206.029 424.852L212.391 421.216L206.067 417.531L199.68 421.141Z" fill="#DDE4E8"/>
</g>
<g style="mix-blend-mode:multiply">
<path d="M192.272 416.812L198.595 420.485L204.957 416.875L198.646 413.189L192.272 416.812Z" fill="#DDE4E8"/>
</g>
<g style="mix-blend-mode:multiply">
<path d="M173.186 405.653L191.211 416.192L197.61 412.582L179.573 402.005L173.186 405.653Z" fill="#DDE4E8"/>
</g>
<path d="M315.932 450.096L322.256 453.819L328.604 450.159L322.293 446.486L315.932 450.096Z" fill="#E2ECF2"/>
<path d="M316.713 449.628L322.242 452.872L327.771 449.691L322.267 446.498L316.713 449.628Z" fill="white"/>
<path d="M301.605 441.753L307.941 445.451L314.29 441.816L307.966 438.092L301.605 441.753Z" fill="#E2ECF2"/>
<path d="M302.4 441.285L307.916 444.504L313.457 441.348L307.954 438.104L302.4 441.285Z" fill="white"/>
<path d="M294.347 437.474L300.671 441.197L307.02 437.549L300.708 433.864L294.347 437.474Z" fill="#E2ECF2"/>
<path d="M295.142 437.019L300.645 440.263L306.174 437.082L300.683 433.876L295.142 437.019Z" fill="white"/>
<path d="M287.064 433.283L293.413 436.957L299.749 433.334L293.451 429.623L287.064 433.283Z" fill="#E2ECF2"/>
<path d="M287.847 432.816L293.388 436.023L298.917 432.867L293.426 429.623L287.847 432.816Z" fill="white"/>
<path d="M271.261 475.29L277.61 478.951L283.972 475.354L277.648 471.643L271.261 475.29Z" fill="#E2ECF2"/>
<path d="M272.055 474.823L277.597 478.017L283.138 474.886L277.622 471.643L272.055 474.823Z" fill="white"/>
<path d="M264.029 471.023L270.378 474.709L276.727 471.087L270.415 467.401L264.029 471.023Z" fill="#E2ECF2"/>
<path d="M264.825 470.569L270.353 473.775L275.895 470.62L270.391 467.401L264.825 470.569Z" fill="white"/>
<path d="M256.733 466.77L263.082 470.481L269.431 466.833L263.12 463.135L256.733 466.77Z" fill="#E2ECF2"/>
<path d="M257.529 466.316L263.07 469.534L268.586 466.366L263.095 463.135L257.529 466.316Z" fill="white"/>
<path d="M279.794 429.004L286.118 432.702L292.479 429.079L286.168 425.394L279.794 429.004Z" fill="#E2ECF2"/>
<path d="M280.601 428.549L286.104 431.755L291.646 428.6L286.142 425.394L280.601 428.549Z" fill="white"/>
<path d="M305.115 456.168L311.451 459.891L317.812 456.243L311.489 452.558L305.115 456.168Z" fill="#E2ECF2"/>
<path d="M305.91 455.713L311.438 458.957L316.979 455.776L311.476 452.558L305.91 455.713Z" fill="white"/>
<path d="M297.843 451.901L304.167 455.624L310.566 451.976L304.217 448.316L297.843 451.901Z" fill="#E2ECF2"/>
<path d="M298.639 451.434L304.155 454.69L309.722 451.497L304.193 448.316L298.639 451.434Z" fill="white"/>
<path d="M290.599 447.673L296.91 451.358L303.284 447.761L296.948 444.075L290.599 447.673Z" fill="#E2ECF2"/>
<path d="M291.393 447.218L296.884 450.424L302.438 447.281L296.922 444.075L291.393 447.218Z" fill="white"/>
<path d="M283.366 443.431L289.652 447.154L296.039 443.494L289.703 439.808L283.366 443.431Z" fill="#E2ECF2"/>
<path d="M284.149 442.977L289.64 446.221L295.206 443.027L289.678 439.821L284.149 442.977Z" fill="white"/>
<path d="M275.894 439.127L282.23 442.788L288.617 439.203L282.268 435.479L275.894 439.127Z" fill="#E2ECF2"/>
<path d="M276.701 438.66L282.204 441.854L287.771 438.723L282.242 435.479L276.701 438.66Z" fill="white"/>
<path d="M268.661 434.886L274.972 438.572L281.321 434.936L275.01 431.226L268.661 434.886Z" fill="#E2ECF2"/>
<path d="M269.469 434.419L274.947 437.625L280.476 434.482L274.972 431.238L269.469 434.419Z" fill="white"/>
<path d="M261.402 430.62L267.688 434.318L274.075 430.683L267.726 426.972L261.402 430.62Z" fill="#E2ECF2"/>
<path d="M262.186 430.152L267.677 433.383L273.23 430.203L267.702 426.984L262.186 430.152Z" fill="white"/>
<path d="M254.12 426.366L260.457 430.077L266.793 426.441L260.494 422.718L254.12 426.366Z" fill="#E2ECF2"/>
<path d="M254.916 425.913L260.431 429.131L265.96 425.976L260.469 422.732L254.916 425.913Z" fill="white"/>
<path d="M246.964 422.176L253.275 425.887L259.649 422.227L253.338 418.579L246.964 422.176Z" fill="#E2ECF2"/>
<path d="M247.759 421.709L253.263 424.953L258.816 421.773L253.313 418.579L247.759 421.709Z" fill="white"/>
<path d="M239.694 417.923L246.055 421.646L252.392 417.998L246.093 414.325L239.694 417.923Z" fill="#E2ECF2"/>
<path d="M240.489 417.481L246.03 420.712L251.546 417.531L246.068 414.325L240.489 417.481Z" fill="white"/>
<path d="M232.423 413.719L238.759 417.392L245.108 413.782L238.797 410.071L232.423 413.719Z" fill="#E2ECF2"/>
<path d="M233.217 413.252L238.746 416.458L244.262 413.315L238.771 410.083L233.217 413.252Z" fill="white"/>
<path d="M225.165 409.452L231.489 413.175L237.876 409.515L231.527 405.842L225.165 409.452Z" fill="#E2ECF2"/>
<path d="M225.961 408.998L231.477 412.242L237.03 409.048L231.502 405.855L225.961 408.998Z" fill="white"/>
<path d="M217.731 405.136L224.067 408.809L230.454 405.211L224.105 401.488L217.731 405.136Z" fill="#E2ECF2"/>
<path d="M218.539 404.669L224.042 407.862L229.608 404.732L224.08 401.488L218.539 404.669Z" fill="white"/>
<path d="M210.498 400.882L216.834 404.555L223.158 400.958L216.86 397.247L210.498 400.882Z" fill="#E2ECF2"/>
<path d="M211.292 400.415L216.808 403.621L222.324 400.478L216.834 397.247L211.292 400.415Z" fill="white"/>
<path d="M203.228 396.654L209.514 400.327L215.938 396.717L209.552 392.981L203.228 396.654Z" fill="#E2ECF2"/>
<path d="M204.023 396.187L209.501 399.38L215.093 396.237L209.539 392.993L204.023 396.187Z" fill="white"/>
<path d="M195.995 392.399L202.281 396.085L208.655 392.475L202.319 388.751L195.995 392.399Z" fill="#E2ECF2"/>
<path d="M196.778 391.933L202.268 395.151L207.81 391.996L202.294 388.765L196.778 391.933Z" fill="white"/>
<path d="M265.329 420.559L271.628 424.22L277.964 420.622L271.665 416.886L265.329 420.559Z" fill="#E2ECF2"/>
<path d="M266.123 420.092L271.601 423.286L277.13 420.143L271.639 416.886L266.123 420.092Z" fill="white"/>
<path d="M258.046 416.294L264.357 419.992L270.757 416.357L264.395 412.646L258.046 416.294Z" fill="#E2ECF2"/>
<path d="M258.841 415.827L264.345 419.045L269.911 415.89L264.383 412.646L258.841 415.827Z" fill="white"/>
<path d="M250.776 412.015L257.112 415.713L263.448 412.078L257.15 408.405L250.776 412.015Z" fill="#E2ECF2"/>
<path d="M251.57 411.559L257.086 414.778L262.614 411.61L257.124 408.417L251.57 411.559Z" fill="white"/>
<path d="M243.493 407.799L249.867 411.484L256.203 407.862L249.892 404.151L243.493 407.799Z" fill="#E2ECF2"/>
<path d="M244.3 407.331L249.842 410.55L255.37 407.394L249.879 404.163L244.3 407.331Z" fill="white"/>
<path d="M228.838 399.216L235.149 402.927L241.523 399.279L235.187 395.593L228.838 399.216Z" fill="#E2ECF2"/>
<path d="M229.632 398.749L235.136 401.993L240.677 398.812L235.161 395.593L229.632 398.749Z" fill="white"/>
<path d="M221.555 394.975L227.904 398.648L234.253 395.038L227.942 391.365L221.555 394.975Z" fill="#E2ECF2"/>
<path d="M222.35 394.507L227.891 397.713L233.407 394.57L227.917 391.377L222.35 394.507Z" fill="white"/>
<path d="M214.334 390.746L220.671 394.444L227.02 390.796L220.708 387.123L214.334 390.746Z" fill="#E2ECF2"/>
<path d="M215.13 390.279L220.646 393.497L226.188 390.329L220.684 387.123L215.13 390.279Z" fill="white"/>
<path d="M207.051 386.468L213.388 390.166L219.762 386.531L213.425 382.82L207.051 386.468Z" fill="#E2ECF2"/>
<path d="M207.847 385.988L213.363 389.232L218.917 386.064L213.401 382.82L207.847 385.988Z" fill="white"/>
<path d="M184.079 424.321L190.391 427.994L196.777 424.384L190.428 420.699L184.079 424.321Z" fill="#E2ECF2"/>
<path d="M184.887 423.855L190.365 427.061L195.932 423.918L190.403 420.712L184.887 423.855Z" fill="white"/>
<path d="M176.821 420.093L183.158 423.766L189.507 420.156L183.208 416.445L176.821 420.093Z" fill="#E2ECF2"/>
<path d="M177.604 419.626L183.145 422.82L188.661 419.677L183.17 416.458L177.604 419.626Z" fill="white"/>
<path d="M169.539 415.827L175.888 419.525L182.25 415.89L175.926 412.179L169.539 415.827Z" fill="#E2ECF2"/>
<path d="M170.347 415.372L175.863 418.578L181.417 415.423L175.901 412.179L170.347 415.372Z" fill="white"/>
<path d="M162.294 411.585L168.643 415.258L174.992 411.648L168.668 407.95L162.294 411.585Z" fill="#E2ECF2"/>
<path d="M163.101 411.118L168.617 414.324L174.146 411.181L168.642 407.95L163.101 411.118Z" fill="white"/>
<path d="M194.24 378.944L200.526 382.668L206.913 379.007L200.564 375.322L194.24 378.944Z" fill="#E2ECF2"/>
<path d="M195.036 378.477L200.514 381.721L206.067 378.54L200.539 375.322L195.036 378.477Z" fill="white"/>
<path d="M186.958 374.703L193.295 378.401L199.644 374.778L193.332 371.08L186.958 374.703Z" fill="#E2ECF2"/>
<path d="M187.752 374.237L193.281 377.456L198.81 374.3L193.306 371.094L187.752 374.237Z" fill="white"/>
<path d="M179.7 370.462L186.023 374.148L192.423 370.538L186.061 366.827L179.7 370.462Z" fill="#E2ECF2"/>
<path d="M180.495 370.008L186.011 373.227L191.577 370.071L186.036 366.827L180.495 370.008Z" fill="white"/>
<path d="M137.442 371.056L143.778 374.78L150.14 371.132L143.816 367.459L137.442 371.056Z" fill="#E2ECF2"/>
<path d="M138.235 370.602L143.751 373.846L149.292 370.665L143.789 367.459L138.235 370.602Z" fill="white"/>
<path d="M130.195 366.828L136.519 370.539L142.855 366.891L136.557 363.205L130.195 366.828Z" fill="#E2ECF2"/>
<path d="M130.991 366.373L136.494 369.605L142.022 366.424L136.532 363.205L130.991 366.373Z" fill="white"/>
<path d="M122.937 362.624L129.261 366.309L135.61 362.687L129.311 358.963L122.937 362.624Z" fill="#E2ECF2"/>
<path d="M123.72 362.169L129.249 365.375L134.765 362.207L129.287 358.976L123.72 362.169Z" fill="white"/>
<path d="M129.881 375.397L136.179 379.108L142.566 375.473L136.217 371.8L129.881 375.397Z" fill="#E2ECF2"/>
<path d="M130.674 374.943L136.152 378.174L141.719 375.006L136.178 371.8L130.674 374.943Z" fill="white"/>
<path d="M122.596 371.143L128.92 374.867L135.294 371.219L128.97 367.546L122.596 371.143Z" fill="#E2ECF2"/>
<path d="M123.392 370.688L128.908 373.932L134.449 370.752L128.945 367.558L123.392 370.688Z" fill="white"/>
<path d="M115.327 366.927L121.689 370.6L128.05 367.003L121.727 363.292L115.327 366.927Z" fill="#E2ECF2"/>
<path d="M116.133 366.473L121.662 369.666L127.203 366.536L121.7 363.292L116.133 366.473Z" fill="white"/>
<path d="M183.536 385.067L189.847 388.765L196.196 385.13L189.885 381.469L183.536 385.067Z" fill="#E2ECF2"/>
<path d="M184.345 384.6L189.823 387.831L195.352 384.663L189.861 381.469L184.345 384.6Z" fill="white"/>
<path d="M176.292 380.813L182.565 384.486L188.965 380.876L182.616 377.203L176.292 380.813Z" fill="#E2ECF2"/>
<path d="M177.075 380.346L182.553 383.539L188.12 380.409L182.591 377.203L177.075 380.346Z" fill="white"/>
<path d="M168.972 376.572L175.346 380.258L181.695 376.635L175.384 372.962L168.972 376.572Z" fill="#E2ECF2"/>
<path d="M169.778 376.104L175.319 379.323L180.848 376.168L175.344 372.974L169.778 376.104Z" fill="white"/>
<path d="M175.951 389.383L182.249 393.094L188.598 389.446L182.3 385.735L175.951 389.383Z" fill="#E2ECF2"/>
<path d="M176.734 388.916L182.237 392.147L187.766 388.979L182.262 385.735L176.734 388.916Z" fill="white"/>
<path d="M168.668 385.142L175.017 388.84L181.341 385.205L175.055 381.519L168.668 385.142Z" fill="#E2ECF2"/>
<path d="M169.464 384.688L174.992 387.894L180.496 384.738L175.03 381.532L169.464 384.688Z" fill="white"/>
<path d="M161.397 380.939L167.746 384.587L174.095 381.014L167.784 377.278L161.397 380.939Z" fill="#E2ECF2"/>
<path d="M162.193 380.485L167.721 383.64L173.25 380.535L167.759 377.292L162.193 380.485Z" fill="white"/>
<path d="M122.306 379.739L128.618 383.438L135.004 379.802L128.655 376.117L122.306 379.739Z" fill="#E2ECF2"/>
<path d="M123.102 379.272L128.593 382.491L134.159 379.335L128.631 376.117L123.102 379.272Z" fill="white"/>
<path d="M115.024 375.474L121.373 379.197L127.696 375.537L121.41 371.838L115.024 375.474Z" fill="#E2ECF2"/>
<path d="M115.818 375.019L121.347 378.263L126.875 375.07L121.372 371.838L115.818 375.019Z" fill="white"/>
<path d="M100.193 375.562L106.529 379.248L120.477 371.309L114.14 367.623L100.193 375.562Z" fill="#E2ECF2"/>
<path d="M100.987 375.108L106.515 378.327L119.63 370.829L114.114 367.623L100.987 375.108Z" fill="white"/>
<path d="M114.721 384.031L121.057 387.755L127.431 384.107L121.095 380.409L114.721 384.031Z" fill="#E2ECF2"/>
<path d="M115.516 383.576L121.032 386.82L126.586 383.627L121.057 380.433L115.516 383.576Z" fill="white"/>
<g style="mix-blend-mode:multiply">
<path d="M144.762 375.625L151.086 379.348L157.46 375.688L151.124 372.015L144.762 375.625Z" fill="#DDE4E8"/>
</g>
<g style="mix-blend-mode:multiply">
<path d="M137.187 379.955L143.498 383.666L149.873 380.03L143.524 376.357L137.187 379.955Z" fill="#DDE4E8"/>
</g>
<g style="mix-blend-mode:multiply">
<path d="M129.627 384.296L135.938 387.982L142.325 384.372L135.976 380.674L129.627 384.296Z" fill="#DDE4E8"/>
</g>
<g style="mix-blend-mode:multiply">
<path d="M122.042 388.588L128.378 392.312L134.752 388.664L128.416 384.979L122.042 388.588Z" fill="#DDE4E8"/>
</g>
<path d="M144.699 375.246L151.023 378.969L157.397 375.321L151.073 371.636L144.699 375.246Z" fill="#E2ECF2"/>
<path d="M145.493 374.792L151.009 378.036L156.55 374.855L151.034 371.649L145.493 374.792Z" fill="white"/>
<g style="mix-blend-mode:multiply">
<path d="M144.799 367.27L151.123 370.993L157.484 367.333L151.161 363.672L144.799 367.27Z" fill="#DDE4E8"/>
</g>
<g style="mix-blend-mode:multiply">
<path d="M137.542 363.029L143.866 366.752L150.202 363.105L143.904 359.419L137.542 363.029Z" fill="#DDE4E8"/>
</g>
<g style="mix-blend-mode:multiply">
<path d="M130.284 358.825L136.62 362.511L142.957 358.889L136.658 355.165L130.284 358.825Z" fill="#DDE4E8"/>
</g>
<path d="M144.723 366.903L151.06 370.64L157.421 366.979L151.098 363.306L144.723 366.903Z" fill="#E2ECF2"/>
<path d="M145.531 366.449L151.035 369.68L156.576 366.512L151.072 363.306L145.531 366.449Z" fill="white"/>
<path d="M137.491 362.675L143.802 366.386L150.151 362.738L143.84 359.052L137.491 362.675Z" fill="#E2ECF2"/>
<path d="M138.286 362.207L143.79 365.451L149.306 362.271L143.815 359.064L138.286 362.207Z" fill="white"/>
<path d="M130.222 358.458L136.558 362.157L142.882 358.534L136.596 354.811L130.222 358.458Z" fill="#E2ECF2"/>
<path d="M131.003 357.991L136.532 361.222L142.048 358.054L136.582 354.823L131.003 357.991Z" fill="white"/>
<g style="mix-blend-mode:multiply">
<path d="M152.044 371.459L158.368 375.183L164.742 371.535L158.406 367.862L152.044 371.459Z" fill="#DDE4E8"/>
</g>
<path d="M151.981 371.093L158.305 374.817L164.679 371.169L158.343 367.496L151.981 371.093Z" fill="#E2ECF2"/>
<path d="M152.776 370.639L158.292 373.87L163.833 370.689L158.33 367.496L152.776 370.639Z" fill="white"/>
<path d="M137.138 379.588L143.424 383.299L149.824 379.664L143.475 375.991L137.138 379.588Z" fill="#E2ECF2"/>
<path d="M137.932 379.134L143.41 382.365L148.977 379.197L143.448 375.991L137.932 379.134Z" fill="white"/>
<path d="M129.564 383.93L135.875 387.616L142.262 383.993L135.913 380.308L129.564 383.93Z" fill="#E2ECF2"/>
<path d="M130.36 383.463L135.851 386.694L141.417 383.526L135.888 380.32L130.36 383.463Z" fill="white"/>
<path d="M121.978 388.234L128.302 391.945L134.688 388.298L128.34 384.612L121.978 388.234Z" fill="#E2ECF2"/>
<path d="M122.774 387.767L128.29 391.011L133.844 387.831L128.315 384.612L122.774 387.767Z" fill="white"/>
<path d="M107.438 379.816L113.762 383.502L120.124 379.879L113.8 376.193L107.438 379.816Z" fill="#E2ECF2"/>
<path d="M108.246 379.349L113.736 382.555L119.277 379.412L113.774 376.193L108.246 379.349Z" fill="white"/>
<path d="M159.075 358.762L165.412 362.435L171.761 358.837L165.462 355.101L159.075 358.762Z" fill="#E2ECF2"/>
<path d="M159.883 358.295L165.399 361.501L170.927 358.358L165.437 355.114L159.883 358.295Z" fill="white"/>
<path d="M151.829 354.507L158.153 358.168L164.54 354.57L158.191 350.885L151.829 354.507Z" fill="#E2ECF2"/>
<path d="M152.625 354.053L158.141 357.234L163.708 354.103L158.166 350.885L152.625 354.053Z" fill="white"/>
<path d="M144.598 350.28L150.884 353.965L157.246 350.343L150.922 346.632L144.598 350.28Z" fill="#E2ECF2"/>
<path d="M145.393 349.813L150.858 353.019L156.399 349.863L150.896 346.632L145.393 349.813Z" fill="white"/>
<path d="M152.827 396.982L159.151 400.681L165.512 397.045L159.188 393.334L152.827 396.982Z" fill="#E2ECF2"/>
<path d="M153.623 396.515L159.138 399.746L164.667 396.578L159.164 393.347L153.623 396.515Z" fill="white"/>
<path d="M152.486 405.552L158.822 409.25L165.196 405.615L158.86 401.917L152.486 405.552Z" fill="#E2ECF2"/>
<path d="M153.281 405.085L158.81 408.317L164.364 405.148L158.835 401.942L153.281 405.085Z" fill="white"/>
<path d="M145.228 401.312L151.552 404.997L157.939 401.387L151.59 397.702L145.228 401.312Z" fill="#E2ECF2"/>
<path d="M146.024 400.845L151.527 404.063L157.094 400.908L151.565 397.702L146.024 400.845Z" fill="white"/>
<path d="M137.971 397.045L144.307 400.768L150.669 397.108L144.345 393.435L137.971 397.045Z" fill="#E2ECF2"/>
<path d="M138.766 396.577L144.282 399.821L149.836 396.641L144.32 393.435L138.766 396.577Z" fill="white"/>
<path d="M294.625 458.78L303.89 464.183L310.214 460.573L300.987 455.183L294.625 458.78Z" fill="#E2ECF2"/>
<path d="M295.42 458.326L303.864 463.249L309.38 460.106L300.961 455.183L295.42 458.326Z" fill="white"/>
<path d="M287.317 454.539L293.653 458.263L300.065 454.602L293.704 450.929L287.317 454.539Z" fill="#E2ECF2"/>
<path d="M288.111 454.085L293.64 457.329L299.219 454.135L293.678 450.929L288.111 454.085Z" fill="white"/>
<path d="M280.11 450.285L286.421 454.009L292.782 450.349L286.458 446.713L280.11 450.285Z" fill="#E2ECF2"/>
<path d="M280.906 449.831L286.396 453.075L291.938 449.894L286.434 446.713L280.906 449.831Z" fill="white"/>
<path d="M272.801 446.057L279.125 449.768L285.524 446.12L279.163 442.447L272.801 446.057Z" fill="#E2ECF2"/>
<path d="M273.597 445.59L279.101 448.822L284.68 445.653L279.139 442.46L273.597 445.59Z" fill="white"/>
<path d="M265.404 441.727L271.716 445.4L278.077 441.791L271.766 438.08L265.404 441.727Z" fill="#E2ECF2"/>
<path d="M266.2 441.26L271.703 444.454L277.231 441.311L271.728 438.092L266.2 441.26Z" fill="white"/>
<path d="M258.134 437.486L264.445 441.197L270.819 437.549L264.483 433.826L258.134 437.486Z" fill="#E2ECF2"/>
<path d="M258.916 437.019L264.419 440.263L269.985 437.082L264.457 433.851L258.916 437.019Z" fill="white"/>
<path d="M250.851 433.245L257.175 436.906L263.562 433.321L257.213 429.585L250.851 433.245Z" fill="#E2ECF2"/>
<path d="M251.645 432.791L257.161 435.959L262.728 432.842L257.186 429.585L251.645 432.791Z" fill="white"/>
<path d="M243.618 428.979L249.917 432.677L256.278 429.055L249.955 425.369L243.618 428.979Z" fill="#E2ECF2"/>
<path d="M244.414 428.525L249.892 431.731L255.445 428.588L249.929 425.369L244.414 428.525Z" fill="white"/>
<path d="M236.449 424.813L242.798 428.512L249.135 424.877L242.836 421.178L236.449 424.813Z" fill="#E2ECF2"/>
<path d="M237.257 424.346L242.773 427.59L248.302 424.397L242.811 421.178L237.257 424.346Z" fill="white"/>
<path d="M229.166 420.56L235.552 424.284L241.901 420.623L235.59 416.963L229.166 420.56Z" fill="#E2ECF2"/>
<path d="M229.973 420.106L235.527 423.35L241.056 420.169L235.565 416.963L229.973 420.106Z" fill="white"/>
<path d="M221.946 416.294L228.257 420.03L234.594 416.357L228.295 412.697L221.946 416.294Z" fill="#E2ECF2"/>
<path d="M222.73 415.839L228.246 419.096L233.762 415.89L228.271 412.709L222.73 415.839Z" fill="white"/>
<path d="M214.663 412.09L221.012 415.776L227.386 412.153L221.049 408.467L214.663 412.09Z" fill="#E2ECF2"/>
<path d="M215.458 411.623L220.986 414.842L226.553 411.686L221.024 408.467L215.458 411.623Z" fill="white"/>
<path d="M207.217 407.748L213.566 411.434L219.94 407.811L213.604 404.088L207.217 407.748Z" fill="#E2ECF2"/>
<path d="M208.024 407.281L213.553 410.487L219.106 407.344L213.578 404.088L208.024 407.281Z" fill="white"/>
<path d="M199.996 403.494L206.269 407.193L212.656 403.558L206.32 399.834L199.996 403.494Z" fill="#E2ECF2"/>
<path d="M200.778 403.027L206.256 406.259L211.81 403.091L206.294 399.834L200.778 403.027Z" fill="white"/>
<path d="M188.371 396.717L199.049 402.927L205.398 399.317L194.733 393.069L188.371 396.717Z" fill="#E2ECF2"/>
<path d="M189.166 396.25L199.024 401.993L204.565 398.85L194.695 393.069L189.166 396.25Z" fill="white"/>
<path d="M283.657 461.128L296.304 468.512L302.679 464.864L289.993 457.455L283.657 461.128Z" fill="#E2ECF2"/>
<path d="M284.439 460.661L296.278 467.578L301.832 464.397L289.967 457.467L284.439 460.661Z" fill="white"/>
<path d="M276.273 456.786L282.622 460.497L288.945 456.849L282.659 453.201L276.273 456.786Z" fill="#E2ECF2"/>
<path d="M277.081 456.331L282.597 459.563L288.101 456.382L282.635 453.201L277.081 456.331Z" fill="white"/>
<path d="M269.002 452.558L275.326 456.269L281.688 452.633L275.364 448.935L269.002 452.558Z" fill="#E2ECF2"/>
<path d="M269.798 452.103L275.314 455.334L280.843 452.166L275.339 448.935L269.798 452.103Z" fill="white"/>
<path d="M261.77 448.316L268.093 452.027L274.43 448.392L268.131 444.693L261.77 448.316Z" fill="#E2ECF2"/>
<path d="M262.566 447.849L268.069 451.093L273.585 447.912L268.107 444.693L262.566 447.849Z" fill="white"/>
<path d="M254.31 443.987L260.646 447.66L267.008 444.05L260.697 440.326L254.31 443.987Z" fill="#E2ECF2"/>
<path d="M255.106 443.52L260.635 446.726L266.163 443.583L260.66 440.326L255.106 443.52Z" fill="white"/>
<path d="M247.051 439.733L253.375 443.457L259.724 439.797L253.413 436.111L247.051 439.733Z" fill="#E2ECF2"/>
<path d="M247.847 439.279L253.35 442.51L258.879 439.329L253.388 436.123L247.847 439.279Z" fill="white"/>
<path d="M239.793 435.493L246.104 439.191L252.466 435.568L246.142 431.845L239.793 435.493Z" fill="#E2ECF2"/>
<path d="M240.588 435.038L246.079 438.244L251.633 435.089L246.117 431.845L240.588 435.038Z" fill="white"/>
<path d="M232.524 431.251L238.822 434.924L245.222 431.327L238.873 427.591L232.524 431.251Z" fill="#E2ECF2"/>
<path d="M233.307 430.796L238.811 433.99L244.39 430.847L238.836 427.603L233.307 430.796Z" fill="white"/>
<path d="M225.38 427.073L231.704 430.759L238.078 427.149L231.742 423.451L225.38 427.073Z" fill="#E2ECF2"/>
<path d="M226.188 426.619L231.679 429.825L237.245 426.682L231.717 423.451L226.188 426.619Z" fill="white"/>
<path d="M218.109 422.807L224.458 426.518L230.794 422.882L224.508 419.197L218.109 422.807Z" fill="#E2ECF2"/>
<path d="M218.904 422.352L224.445 425.584L229.961 422.415L224.483 419.197L218.904 422.352Z" fill="white"/>
<path d="M210.826 418.579L217.162 422.29L223.536 418.642L217.212 414.956L210.826 418.579Z" fill="#E2ECF2"/>
<path d="M211.622 418.112L217.15 421.356L222.691 418.175L217.188 414.956L211.622 418.112Z" fill="white"/>
<path d="M203.593 414.337L209.929 418.023L216.278 414.4L209.955 410.702L203.593 414.337Z" fill="#E2ECF2"/>
<path d="M204.389 413.87L209.905 417.089L215.434 413.933L209.93 410.714L204.389 413.87Z" fill="white"/>
<path d="M196.172 410.007L202.508 413.706L208.845 410.07L202.546 406.372L196.172 410.007Z" fill="#E2ECF2"/>
<path d="M196.967 409.54L202.483 412.759L208.012 409.591L202.521 406.372L196.967 409.54Z" fill="white"/>
<path d="M180.797 401.02L194.997 409.313L201.409 405.703L187.184 397.373L180.797 401.02Z" fill="#E2ECF2"/>
<path d="M181.592 400.554L194.972 408.38L200.563 405.224L187.159 397.386L181.592 400.554Z" fill="white"/>
<path d="M272.208 463.198L288.604 472.765L294.953 469.143L278.569 459.575L272.208 463.198Z" fill="#E2ECF2"/>
<path d="M273.003 462.731L288.579 471.844L294.12 468.688L278.544 459.575L273.003 462.731Z" fill="white"/>
<path d="M192.865 429.459L254.259 465.319L260.608 461.697L199.264 425.837L192.865 429.459Z" fill="#E2ECF2"/>
<path d="M193.659 428.992L254.233 464.385L259.774 461.23L199.238 425.837L193.659 428.992Z" fill="white"/>
<path d="M265.039 459.019L271.388 462.73L277.737 459.083L271.414 455.384L265.039 459.019Z" fill="#E2ECF2"/>
<path d="M265.834 458.553L271.362 461.797L276.891 458.603L271.387 455.397L265.834 458.553Z" fill="white"/>
<path d="M257.793 454.767L264.129 458.477L270.466 454.83L264.167 451.131L257.793 454.767Z" fill="#E2ECF2"/>
<path d="M258.589 454.312L264.118 457.53L269.634 454.362L264.143 451.144L258.589 454.312Z" fill="white"/>
<path d="M250.372 450.437L256.683 454.11L263.058 450.5L256.734 446.802L250.372 450.437Z" fill="#E2ECF2"/>
<path d="M251.166 449.983L256.67 453.176L262.211 450.033L256.708 446.802L251.166 449.983Z" fill="white"/>
<path d="M243.102 446.183L249.413 449.869L255.8 446.259L249.451 442.548L243.102 446.183Z" fill="#E2ECF2"/>
<path d="M243.896 445.729L249.399 448.935L254.953 445.78L249.425 442.561L243.896 445.729Z" fill="white"/>
<path d="M235.818 441.955L242.167 445.641L248.528 442.018L242.192 438.307L235.818 441.955Z" fill="#E2ECF2"/>
<path d="M236.613 441.488L242.142 444.694L247.695 441.551L242.179 438.307L236.613 441.488Z" fill="white"/>
<path d="M228.586 437.688L234.91 441.399L241.233 437.751L234.948 434.065L228.586 437.688Z" fill="#E2ECF2"/>
<path d="M229.38 437.221L234.884 440.464L240.399 437.284L234.921 434.078L229.38 437.221Z" fill="white"/>
<path d="M221.429 433.522L227.765 437.221L234.089 433.585L227.803 429.875L221.429 433.522Z" fill="#E2ECF2"/>
<path d="M222.224 433.056L227.74 436.288L233.256 433.107L227.778 429.888L222.224 433.056Z" fill="white"/>
<path d="M214.184 429.281L220.482 432.979L226.844 429.344L220.52 425.621L214.184 429.281Z" fill="#E2ECF2"/>
<path d="M214.979 428.814L220.457 432.045L226.011 428.877L220.495 425.621L214.979 428.814Z" fill="white"/>
<path d="M206.888 425.054L213.25 428.714L219.573 425.117L213.287 421.381L206.888 425.054Z" fill="#E2ECF2"/>
<path d="M207.684 424.587L213.225 427.78L218.741 424.637L213.251 421.381L207.684 424.587Z" fill="white"/>
<path d="M199.618 420.774L205.967 424.485L212.328 420.85L206.004 417.151L199.618 420.774Z" fill="#E2ECF2"/>
<path d="M200.413 420.32L205.941 423.551L211.495 420.383L205.979 417.177L200.413 420.32Z" fill="white"/>
<path d="M192.209 416.445L198.533 420.118L204.895 416.508L198.571 412.822L192.209 416.445Z" fill="#E2ECF2"/>
<path d="M193.003 415.978L198.519 419.184L204.048 416.041L198.545 412.822L193.003 415.978Z" fill="white"/>
<path d="M173.124 405.286L191.148 415.826L197.548 412.229L179.511 401.639L173.124 405.286Z" fill="#E2ECF2"/>
<path d="M173.919 404.819L191.123 414.892L196.702 411.749L179.485 401.639L173.919 404.819Z" fill="white"/>
<path d="M104.647 247.598L97.4397 251.776C97.4397 251.776 103.145 255.664 103.158 255.664C103.183 255.664 104.647 247.585 104.647 247.585V247.598Z" fill="#E8E8E8"/>
<path d="M189.822 301.507C188.421 297.09 185.391 293.278 182.577 292.129C179.85 284.568 174.17 278.383 169.487 277.992C165.953 270.646 160.336 264.953 155.414 264.045C151.652 256.168 145.505 250.16 140.368 249.845C135.95 249.567 133.476 253.556 133.59 259.551C131.52 257.468 129.286 256.118 127.228 255.903C124.325 249.769 119.541 245.073 115.54 244.834C112.915 244.67 111.185 246.462 110.554 249.39C109.153 248.141 107.702 247.345 106.351 247.257C103.688 247.093 102.312 249.744 102.665 253.581L111.425 258.642L116.525 261.583L121.788 264.625L129.437 269.043L135.824 272.729L137.616 273.764L141.151 275.809L148.711 280.176L156.6 284.732L160.841 287.181L164.287 289.175L172.681 294.022L175.205 297.822L183.145 308.462L190.428 304.259C190.314 303.401 190.15 302.492 189.834 301.533L189.822 301.507Z" fill="#E8E8E8"/>
<path d="M113.016 245.389L106.137 249.39L111.148 251.637L114.354 247.989L113.016 245.389Z" fill="#E8E8E8"/>
<path d="M136.896 250.703L130.661 254.376L136.315 258.024L139.698 254.83L136.896 250.703Z" fill="#E8E8E8"/>
<path d="M182.538 305.711C181.137 301.293 178.108 297.493 175.293 296.332C172.567 288.772 166.887 282.587 162.191 282.195C158.657 274.849 153.04 269.157 148.117 268.248C144.356 260.372 138.209 254.363 133.059 254.048C128.641 253.77 126.167 257.759 126.293 263.754C124.223 261.672 121.989 260.321 119.932 260.106C117.029 253.972 112.245 249.277 108.244 249.037C105.618 248.873 103.889 250.665 103.258 253.593C101.869 252.344 100.405 251.549 99.0547 251.46C96.3915 251.296 95.0156 253.947 95.369 257.784L104.129 262.845L109.228 265.786L114.492 268.828L122.141 273.246L128.528 276.932L130.32 277.967L133.854 280.012L141.415 284.379L149.304 288.936L153.545 291.384L157.003 293.379L165.397 298.226L170.396 301.116L176.795 304.814L183.131 308.475C183.018 307.604 182.841 306.708 182.538 305.748V305.711Z" fill="#F6F6F6"/>
<path d="M340.973 72.7168L330.648 78.6997C330.648 78.6997 338.814 84.2787 338.852 84.2787C338.89 84.2787 340.985 72.7168 340.985 72.7168H340.973Z" fill="#E8E8E8"/>
<path d="M462.967 149.927C460.973 143.59 456.618 138.15 452.579 136.497C448.678 125.667 440.55 116.819 433.822 116.251C428.761 105.736 420.72 97.5824 413.677 96.2697C408.3 84.9855 399.49 76.3771 392.118 75.9353C385.795 75.544 382.26 81.2493 382.412 89.8324C379.446 86.8409 376.24 84.9223 373.311 84.6068C369.146 75.8217 362.305 69.1067 356.574 68.7533C352.813 68.5261 350.326 71.0758 349.43 75.279C347.436 73.4866 345.34 72.338 343.422 72.2244C339.597 71.9972 337.628 75.7839 338.133 81.2745L350.68 88.5197L357.975 92.7355L365.511 97.0902L376.467 103.414L385.605 108.69L388.168 110.167L393.242 113.095L404.072 119.343L415.368 125.869L421.44 129.378L426.388 132.23L438.417 139.173L442.027 144.625L453.387 159.873L463.812 153.852C463.648 152.615 463.409 151.328 462.967 149.952V149.927Z" fill="#E8E8E8"/>
<path d="M352.965 69.561L343.107 75.2789L350.302 78.4976L354.871 73.272L352.965 69.561Z" fill="#E8E8E8"/>
<path d="M387.182 77.1465L378.246 82.4226L386.324 87.6482L391.184 83.0789L387.182 77.1465Z" fill="#E8E8E8"/>
<path d="M452.541 155.947C450.534 149.61 446.192 144.17 442.153 142.517C438.253 131.687 430.124 122.839 423.396 122.271C418.335 111.756 410.295 103.602 403.251 102.29C397.874 91.0055 389.064 82.3971 381.693 81.9553C375.369 81.5641 371.835 87.2693 371.999 95.8524C369.032 92.8609 365.826 90.9424 362.898 90.6268C358.733 81.8417 351.892 75.1141 346.161 74.7733C342.4 74.5461 339.913 77.0958 339.017 81.299C337.023 79.5066 334.927 78.358 332.996 78.2444C329.172 78.0172 327.202 81.8039 327.707 87.3072L340.254 94.5523L347.562 98.7681L355.098 103.123L366.041 109.447L375.18 114.723L377.742 116.199L382.816 119.128L393.646 125.376L404.943 131.901L411.014 135.41L415.962 138.263L427.991 145.205L435.148 149.333L444.324 154.621L453.399 159.86C453.235 158.623 452.996 157.335 452.554 155.959L452.541 155.947Z" fill="#F6F6F6"/>
<path d="M410.621 140.27C412.729 136.042 417.412 135.739 421.628 139.261C424.909 132.836 432.571 133.114 438.807 139.93C442.227 143.666 444.486 148.588 445.32 153.36C447.339 153.7 449.498 154.95 451.479 157.108C453.499 159.317 454.963 162.082 455.758 164.896C457.298 164.429 459.229 165.098 460.921 166.954C463.533 169.819 464.556 174.35 463.193 177.077C463.167 177.115 463.142 177.14 463.13 177.178L452.779 183.199L443.843 171.977L440.7 166.335L434.452 160.617L427.648 156.692L421.123 152.918L409.599 146.266C409.447 144.044 409.75 141.949 410.596 140.258L410.621 140.27Z" fill="#E8E8E8"/>
<path d="M412.528 137.922L402.859 143.577L410.685 150.266L414.749 143.021L412.528 137.922Z" fill="#E8E8E8"/>
<path d="M424.91 135.65L415.065 141.482L419.091 145.306L427.573 139.475L424.91 135.65Z" fill="#E8E8E8"/>
<path d="M400.22 146.392C402.328 142.163 407.01 141.86 411.226 145.382C414.508 138.957 422.17 139.235 428.405 146.051C431.826 149.787 434.085 154.71 434.931 159.481C436.95 159.822 439.109 161.071 441.078 163.23C443.097 165.438 444.562 168.203 445.357 171.017C446.897 170.55 448.828 171.219 450.519 173.075C453.132 175.94 454.154 180.472 452.791 183.198C452.779 183.236 452.741 183.261 452.728 183.299L445.634 179.197L442.933 177.632L432.873 171.825L424.063 166.739L417.272 162.813L410.747 159.039L399.235 152.387C399.084 150.166 399.387 148.07 400.232 146.379L400.22 146.392Z" fill="#F6F6F6"/>
<path d="M104.66 108.148C106.818 103.818 111.615 103.515 115.932 107.113C119.289 100.537 127.14 100.827 133.514 107.794C137.011 111.619 139.333 116.655 140.192 121.54C142.262 121.893 144.47 123.168 146.49 125.377C148.547 127.637 150.049 130.476 150.87 133.354C152.435 132.875 154.429 133.569 156.159 135.462C158.835 138.391 159.882 143.036 158.494 145.825C158.469 145.863 158.443 145.888 158.431 145.926L151.817 149.65L148.396 140.132L138.096 134.187L129.084 128.987L122.129 124.973L115.439 121.111L103.65 114.307C103.499 112.035 103.814 109.89 104.673 108.16L104.66 108.148Z" fill="#E8E8E8"/>
<path d="M113.003 107.024L119.718 103.174L119.264 110.28L114.051 109.068L113.003 107.024Z" fill="#E8E8E8"/>
<path d="M106.868 105.561L100.532 109.171L103.195 115.166L106.868 112.692L108.85 108.502L106.868 105.561Z" fill="#E8E8E8"/>
<path d="M97.9694 111.972C100.128 107.643 104.924 107.34 109.241 110.937C112.599 104.361 120.45 104.652 126.824 111.619C130.32 115.444 132.643 120.48 133.501 125.365C135.558 125.718 137.78 126.993 139.8 129.202C141.87 131.461 143.359 134.301 144.179 137.179C145.745 136.699 147.739 137.394 149.468 139.287C152.144 142.215 153.192 146.86 151.791 149.65C151.765 149.688 151.74 149.713 151.727 149.751L144.457 145.56L141.693 143.957L131.393 138.012L122.381 132.812L115.426 128.798L108.736 124.936L96.9471 118.132C96.7956 115.86 97.1111 113.714 97.9694 111.972Z" fill="#F6F6F6"/>
<path d="M430.035 290.525C432.194 286.195 436.99 285.892 441.307 289.49C444.677 282.914 452.516 283.204 458.89 290.171C462.386 293.996 464.709 299.032 465.567 303.917C467.637 304.27 469.846 305.545 471.865 307.754C473.923 310.013 475.425 312.853 476.245 315.731C477.811 315.252 479.805 315.946 481.534 317.839C484.21 320.768 485.258 325.413 483.857 328.202C483.831 328.24 483.806 328.265 483.793 328.303L477.179 332.027L473.759 322.509L463.459 316.564L454.447 311.364L447.492 307.35L440.802 303.488L429.013 296.684C428.862 294.412 429.177 292.267 430.035 290.537V290.525Z" fill="#E8E8E8"/>
<path d="M438.378 289.401L445.093 285.551L444.638 292.644L439.425 291.445L438.378 289.401Z" fill="#E8E8E8"/>
<path d="M432.231 287.924L425.907 291.547L428.571 297.542L432.231 295.056L434.213 290.865L432.231 287.924Z" fill="#E8E8E8"/>
<path d="M423.345 294.349C425.503 290.02 430.299 289.717 434.616 293.314C437.974 286.738 445.825 287.029 452.199 293.996C455.695 297.821 458.018 302.857 458.876 307.742C460.934 308.095 463.155 309.37 465.175 311.579C467.245 313.838 468.734 316.678 469.555 319.556C471.12 319.076 473.114 319.771 474.843 321.664C477.519 324.592 478.567 329.237 477.178 332.027C477.153 332.065 477.128 332.09 477.103 332.128L469.832 327.937L467.068 326.334L456.768 320.389L447.756 315.189L440.801 311.175L434.111 307.312L422.322 300.509C422.171 298.237 422.486 296.091 423.345 294.349Z" fill="#F6F6F6"/>
<g style="mix-blend-mode:multiply">
<path d="M260.103 343.399C245.158 351.995 245.158 365.967 260.103 374.563L271.564 381.215C286.483 389.823 310.693 389.823 325.549 381.215C340.443 372.594 340.443 358.659 325.549 350.063L314.05 343.412C299.118 334.791 274.972 334.791 260.103 343.412V343.399Z" fill="#E2E7E8"/>
</g>
<path d="M246.066 352.879H246.571C247.783 348.423 251.317 344.144 257.275 340.711C272.144 332.128 296.277 332.128 311.222 340.711L322.721 347.388C328.565 350.758 332.087 354.961 333.336 359.341H333.892V363.077H333.866C333.816 368.682 330.105 374.286 322.708 378.552C307.852 387.161 283.63 387.161 268.71 378.552L257.262 371.926C249.55 367.47 245.852 361.588 246.104 355.769H246.054V352.891L246.066 352.879Z" fill="url(#paint2_linear_2297_19397)"/>
<path d="M257.287 337.037C242.343 345.633 242.343 359.606 257.287 368.201L268.736 374.853C283.655 383.474 307.865 383.474 322.734 374.853C337.628 366.232 337.628 352.297 322.734 343.702L311.235 337.05C296.29 328.429 272.156 328.429 257.287 337.05V337.037Z" fill="url(#paint3_linear_2297_19397)"/>
<path d="M304.862 361.31L275.503 344.371V276.627L304.862 293.592L308.156 321.424L304.862 361.31Z" fill="#C4CED6"/>
<path d="M304.923 361.31L310.932 357.801V290.057L304.923 293.566V361.31Z" fill="#AFBBC4"/>
<path d="M186.78 244.643L403.92 223.917L406.634 205.615L190.983 81.7783L186.78 84.1765V244.643Z" fill="#FCFCFC"/>
<path d="M401.219 368.366L186.78 244.58V84.1387L401.219 207.937V368.366Z" fill="#D6DEE5"/>
<path d="M387.84 347.173L196.184 236.527L196.285 106.606L387.259 217.24L387.84 347.173Z" fill="#BEC7D0"/>
<path d="M387.84 343.576L201.511 235.997V110.002L387.84 217.569V343.576Z" fill="url(#paint4_linear_2297_19397)"/>
<path d="M406.634 205.615L401.219 207.938V368.366L406.078 365.93L406.634 205.615Z" fill="#BEC7D0"/>
<mask id="mask0_2297_19397" style="mask-type:luminance" maskUnits="userSpaceOnUse" x="201" y="110" width="187" height="234">
<path d="M387.84 343.577L280.198 281.425L254.663 304.448L221.883 292.406L225.998 250.134L201.511 235.997V110.002L387.84 217.569V343.577Z" fill="white"/>
</mask>
<g mask="url(#mask0_2297_19397)">
<g style="mix-blend-mode:multiply">
<path d="M252.174 176.61L205.194 199.898V233.789L237.217 252.28L263.433 244.984L317.494 216.105L252.174 176.61Z" fill="#E2E7E8"/>
</g>
<path d="M289.107 107.983L226.841 144.032L207.668 132.949L270.022 96.9256L268.81 96.2188L205.194 132.949L226.841 145.445L290.47 108.715L289.107 107.983Z" fill="#656565"/>
<path d="M286.811 109.383L226.842 144.031L207.669 132.949L270.023 96.9253H270.036V100.169L286.811 109.383Z" fill="#252728"/>
<path d="M226.855 246.272L290.458 209.554V108.715L226.855 145.446L225.403 190.596L226.855 246.272Z" fill="#252728"/>
<path d="M226.854 246.272L205.195 233.776V132.937L226.854 145.446V246.272Z" fill="url(#paint5_linear_2297_19397)"/>
<path d="M286.811 109.383L226.842 144.031L210.396 134.527L270.036 100.169L286.811 109.383Z" fill="#FCFBFA"/>
<path d="M221.881 150.708L210.167 143.942V188.562L221.881 195.315V150.708Z" fill="#FCFBFA"/>
<path d="M220.113 182.592L211.947 177.871V178.414L220.113 183.135V182.592Z" fill="#BBBCBB"/>
<path d="M220.113 180.206L211.947 175.485V176.028L220.113 180.749V180.206Z" fill="#BBBCBB"/>
<path d="M220.113 177.82L211.947 173.099V173.642L220.113 178.363V177.82Z" fill="#BBBCBB"/>
<path d="M220.113 175.435L211.947 170.727V171.269L220.113 175.977V175.435Z" fill="#BBBCBB"/>
<path d="M220.113 173.049L211.947 168.341V168.871L220.113 173.592V173.049Z" fill="#BBBCBB"/>
<path d="M220.113 170.665L211.947 165.957V166.499L220.113 171.207V170.665Z" fill="#BBBCBB"/>
<path d="M220.113 168.278L211.947 163.57V164.1L220.113 168.821V168.278Z" fill="#BBBCBB"/>
<path d="M220.113 165.905L211.947 161.185V161.727L220.113 166.435V165.905Z" fill="#BBBCBB"/>
<path d="M220.113 163.519L211.947 158.798V159.341L220.113 164.061V163.519Z" fill="#BBBCBB"/>
<path d="M220.113 154.961L211.947 150.241V154.482L220.113 159.202V154.961Z" fill="#BBBCBB"/>
<path d="M220.568 221.925C220.568 225.244 218.246 226.582 215.368 224.929C212.49 223.262 210.168 219.236 210.168 215.916C210.168 212.597 212.503 211.246 215.368 212.912C218.246 214.566 220.568 218.605 220.568 221.925Z" fill="#252728"/>
<path d="M219.95 224.435C219.054 225.798 217.337 226.063 215.381 224.927C212.503 223.273 210.168 219.234 210.168 215.915C210.168 214.4 210.648 213.315 211.455 212.734C211.064 213.352 210.837 214.198 210.837 215.22C210.837 218.527 213.159 222.567 216.037 224.22C217.602 225.129 219.004 225.142 219.95 224.447V224.435Z" fill="#5A5A5A"/>
<g style="mix-blend-mode:overlay">
<path d="M283.616 112.666L227.334 145.445L226.854 235.884L226.4 145.9L206.797 133.871L226.854 145.054L283.616 112.666Z" fill="#B6BDBF"/>
</g>
<g style="mix-blend-mode:multiply">
<path d="M276.776 190.305L229.796 213.593V247.471L261.818 265.963L288.035 258.667L342.096 229.8L276.776 190.305Z" fill="#E2E7E8"/>
</g>
<path d="M313.695 121.677L251.443 157.714L232.27 146.632L294.623 110.62L293.412 109.914L229.796 146.632L251.443 159.128L315.071 122.41L313.695 121.677Z" fill="#656565"/>
<path d="M311.412 123.078L251.444 157.714L232.271 146.631L294.625 110.62H294.637V113.864L311.412 123.078Z" fill="#252728"/>
<path d="M251.456 259.954L315.06 223.236V122.41L251.456 159.128L249.992 204.291L251.456 259.954Z" fill="#252728"/>
<path d="M251.456 259.954L229.796 247.458V146.632L251.456 159.128V259.954Z" fill="url(#paint6_linear_2297_19397)"/>
<path d="M311.412 123.078L251.444 157.714L234.997 148.209L294.637 113.864L311.412 123.078Z" fill="#FCFBFA"/>
<path d="M246.482 164.392L234.769 157.639V202.246L246.482 209.011V164.392Z" fill="#FCFBFA"/>
<path d="M244.715 196.288L236.536 191.567V192.098L244.715 196.818V196.288Z" fill="#BBBCBB"/>
<path d="M244.715 193.902L236.536 189.182V189.724L244.715 194.432V193.902Z" fill="#BBBCBB"/>
<path d="M244.715 191.516L236.536 186.795V187.338L244.715 192.059V191.516Z" fill="#BBBCBB"/>
<path d="M244.715 189.131L236.536 184.411V184.953L244.715 189.661V189.131Z" fill="#BBBCBB"/>
<path d="M244.715 186.746L236.536 182.038V182.568L244.715 187.288V186.746Z" fill="#BBBCBB"/>
<path d="M244.715 184.361L236.536 179.653V180.183L244.715 184.904V184.361Z" fill="#BBBCBB"/>
<path d="M244.715 181.975L236.536 177.267V177.797L244.715 182.517V181.975Z" fill="#BBBCBB"/>
<path d="M244.715 179.602L236.536 174.881V175.411L244.715 180.132V179.602Z" fill="#BBBCBB"/>
<path d="M244.715 177.215L236.536 172.494V173.037L244.715 177.745V177.215Z" fill="#BBBCBB"/>
<path d="M244.715 168.645L236.536 163.937V168.178L244.715 172.886V168.645Z" fill="#BBBCBB"/>
<path d="M245.17 235.619C245.17 238.939 242.847 240.277 239.97 238.623C237.104 236.957 234.769 232.931 234.769 229.611C234.769 226.291 237.104 224.941 239.97 226.607C242.847 228.261 245.17 232.3 245.17 235.619Z" fill="#252728"/>
<path d="M244.552 238.13C243.656 239.493 241.939 239.758 239.983 238.622C237.105 236.969 234.77 232.93 234.77 229.61C234.77 228.108 235.249 227.01 236.057 226.429C235.666 227.048 235.439 227.893 235.439 228.916C235.439 232.223 237.761 236.262 240.639 237.915C242.204 238.824 243.605 238.837 244.552 238.143V238.13Z" fill="#5A5A5A"/>
<g style="mix-blend-mode:overlay">
<path d="M308.218 126.36L251.935 159.128L251.456 249.578L251.001 159.582L231.399 147.553L251.456 158.736L308.218 126.36Z" fill="#B6BDBF"/>
</g>
<path d="M309.898 161.942L247.645 197.979L228.472 186.896L290.825 150.872L289.601 150.178L225.998 186.896L247.645 199.392L311.261 162.674L309.898 161.942Z" fill="#359DB5"/>
<path d="M307.613 163.343L247.645 197.979L228.472 186.896L290.826 150.873H290.838V154.116L307.613 163.343Z" fill="#1D7085"/>
<path d="M247.645 300.219L311.261 263.501V162.675L247.645 199.393L246.206 244.543L247.645 300.219Z" fill="#1D7085"/>
<path d="M247.645 300.219L225.997 287.723V186.896L247.645 199.392V300.219Z" fill="#46B4C6"/>
<path d="M307.613 163.343L247.645 197.978L231.198 188.474L290.838 154.116L307.613 163.343Z" fill="#FCFBFA"/>
<path d="M242.684 204.655L230.97 197.89V242.509L242.684 249.275V204.655Z" fill="#FCFBFA"/>
<path d="M240.903 236.539L232.737 231.831V232.361L240.903 237.081V236.539Z" fill="#BBBCBB"/>
<path d="M240.903 234.153L232.737 229.445V229.975L240.903 234.696V234.153Z" fill="#BBBCBB"/>
<path d="M240.903 231.769L232.737 227.061V227.591L240.903 232.311V231.769Z" fill="#BBBCBB"/>
<path d="M240.903 229.395L232.737 224.674V225.204L240.903 229.925V229.395Z" fill="#BBBCBB"/>
<path d="M240.903 227.009L232.737 222.289V222.831L240.903 227.539V227.009Z" fill="#BBBCBB"/>
<path d="M240.903 224.625L232.737 219.904V220.447L240.903 225.155V224.625Z" fill="#BBBCBB"/>
<path d="M240.903 222.238L232.737 217.518V218.06L240.903 222.768V222.238Z" fill="#BBBCBB"/>
<path d="M240.903 219.853L232.737 215.132V215.675L240.903 220.383V219.853Z" fill="#BBBCBB"/>
<path d="M240.903 217.466L232.737 212.745V213.288L240.903 218.009V217.466Z" fill="#BBBCBB"/>
<path d="M240.903 208.91L232.737 204.189V208.43L240.903 213.151V208.91Z" fill="#BBBCBB"/>
<path d="M241.371 275.871C241.371 276.906 241.144 277.752 240.727 278.383C239.781 279.09 238.392 279.064 236.814 278.156C233.937 276.502 231.614 272.463 231.614 269.156C231.614 268.134 231.841 267.288 232.233 266.669C233.179 265.937 234.58 265.95 236.158 266.859C239.023 268.525 241.358 272.564 241.358 275.871H241.371Z" fill="#252728"/>
<path d="M240.74 278.382C240.299 279.064 239.63 279.48 238.847 279.568C238.733 279.581 238.632 279.594 238.506 279.594C237.799 279.594 237.004 279.354 236.184 278.887C233.306 277.233 230.971 273.194 230.971 269.862V269.837C230.971 269.66 230.971 269.483 230.996 269.319C230.996 269.168 231.021 269.029 231.046 268.903C231.11 268.549 231.185 268.208 231.312 267.931C231.362 267.792 231.425 267.666 231.488 267.539C231.539 267.438 231.602 267.35 231.665 267.262C231.766 267.136 231.867 267.022 231.968 266.934C232.056 266.833 232.157 266.757 232.258 266.681C231.867 267.3 231.64 268.145 231.64 269.168C231.64 272.475 233.962 276.514 236.84 278.167C238.418 279.064 239.806 279.089 240.753 278.395L240.74 278.382Z" fill="#359DB5"/>
<g style="mix-blend-mode:overlay">
<path d="M304.407 166.625L248.125 199.392L247.645 289.831L247.203 199.847L227.588 187.805L247.645 199.001L304.407 166.625Z" fill="#B6BDBF"/>
</g>
<g style="mix-blend-mode:multiply">
<path d="M311.261 162.675L248.49 199.936L247.645 300.219L286.66 277.701L311.261 187.818V162.675Z" fill="#E2E7E8"/>
</g>
<g style="mix-blend-mode:multiply">
<path d="M333.625 222.756L286.658 246.032V279.922L318.681 298.414L344.884 291.118L398.958 262.251L333.625 222.756Z" fill="#E2E7E8"/>
</g>
<path d="M370.559 154.129L308.293 190.165L289.12 179.083L351.486 143.059L350.262 142.365L286.659 179.083L308.293 191.579L371.922 154.861L370.559 154.129Z" fill="#656565"/>
<path d="M368.26 155.53L308.292 190.165L289.118 179.083L351.485 143.059H351.497V146.303L368.26 155.53Z" fill="#252728"/>
<path d="M308.306 292.406L371.922 255.688V154.861L308.306 191.579L306.854 236.729L308.306 292.406Z" fill="#252728"/>
<path d="M308.305 292.405L286.658 279.909V179.083L308.305 191.579V292.405Z" fill="url(#paint7_linear_2297_19397)"/>
<path d="M368.26 155.53L308.292 190.165L291.857 180.661L351.497 146.303L368.26 155.53Z" fill="#FCFBFA"/>
<path d="M303.345 196.842L291.619 190.077V234.696L303.345 241.462V196.842Z" fill="#FCFBFA"/>
<path d="M301.564 228.738L293.398 224.017V224.547L301.564 229.268V228.738Z" fill="#BBBCBB"/>
<path d="M301.564 226.353L293.398 221.632V222.162L301.564 226.883V226.353Z" fill="#BBBCBB"/>
<path d="M301.564 223.968L293.398 219.247V219.79L301.564 224.498V223.968Z" fill="#BBBCBB"/>
<path d="M301.564 221.582L293.398 216.861V217.404L301.564 222.112V221.582Z" fill="#BBBCBB"/>
<path d="M301.564 219.196L293.398 214.475V215.018L301.564 219.726V219.196Z" fill="#BBBCBB"/>
<path d="M301.564 216.811L293.398 212.103V212.633L301.564 217.354V216.811Z" fill="#BBBCBB"/>
<path d="M301.564 214.425L293.398 209.704V210.247L301.564 214.955V214.425Z" fill="#BBBCBB"/>
<path d="M301.564 212.039L293.398 207.331V207.861L301.564 212.581V212.039Z" fill="#BBBCBB"/>
<path d="M301.564 209.653L293.398 204.932V205.475L301.564 210.196V209.653Z" fill="#BBBCBB"/>
<path d="M301.564 201.096L293.398 196.388V200.629L301.564 205.337V201.096Z" fill="#BBBCBB"/>
<path d="M302.032 268.07C302.032 271.39 299.697 272.728 296.832 271.075C293.954 269.408 291.632 265.382 291.632 262.062C291.632 258.743 293.967 257.392 296.832 259.058C299.697 260.712 302.032 264.751 302.032 268.07Z" fill="#252728"/>
<path d="M301.4 270.569C300.504 271.932 298.788 272.197 296.831 271.061C293.953 269.408 291.618 265.369 291.618 262.049C291.618 260.534 292.098 259.449 292.906 258.868C292.514 259.487 292.287 260.332 292.287 261.355C292.287 264.662 294.61 268.701 297.488 270.354C299.053 271.263 300.454 271.276 301.4 270.569Z" fill="#5A5A5A"/>
<g style="mix-blend-mode:overlay">
<path d="M365.067 158.812L308.785 191.579L308.305 282.017L307.863 192.033L288.249 180.004L308.305 191.188L365.067 158.812Z" fill="#B6BDBF"/>
</g>
<g style="mix-blend-mode:multiply">
<path d="M359.098 237.057L312.118 260.345V294.236L344.141 312.727L370.344 305.432L424.418 276.552L359.098 237.057Z" fill="#E2E7E8"/>
</g>
<path d="M396.019 168.43L333.766 204.466L314.58 193.397L376.946 157.373L375.722 156.666L312.119 193.397L333.766 205.893L397.382 169.162L396.019 168.43Z" fill="#656565"/>
<path d="M393.734 169.831L333.766 204.466L314.58 193.396L376.947 157.373H376.959V160.616L393.734 169.831Z" fill="#252728"/>
<path d="M333.778 306.72L397.382 269.989V169.163L333.778 205.893L332.314 251.043L333.778 306.72Z" fill="#252728"/>
<path d="M333.778 306.719L312.119 294.211V193.384L333.778 205.893V306.719Z" fill="url(#paint8_linear_2297_19397)"/>
<path d="M393.734 169.83L333.766 204.466L317.319 194.974L376.959 160.616L393.734 169.83Z" fill="#FCFBFA"/>
<path d="M328.805 211.155L317.079 204.389V248.996L328.805 255.762V211.155Z" fill="#FCFBFA"/>
<path d="M327.024 243.039L318.858 238.318V238.861L327.024 243.569V243.039Z" fill="#BBBCBB"/>
<path d="M327.024 240.653L318.858 235.932V236.475L327.024 241.196V240.653Z" fill="#BBBCBB"/>
<path d="M327.024 238.267L318.858 233.546V234.089L327.024 238.809V238.267Z" fill="#BBBCBB"/>
<path d="M327.024 235.882L318.858 231.161V231.717L327.024 236.412V235.882Z" fill="#BBBCBB"/>
<path d="M327.024 233.496L318.858 228.788V229.318L327.024 234.039V233.496Z" fill="#BBBCBB"/>
<path d="M327.024 231.111L318.858 226.403V226.933L327.024 231.654V231.111Z" fill="#BBBCBB"/>
<path d="M327.024 228.725L318.858 224.017V224.547L327.024 229.268V228.725Z" fill="#BBBCBB"/>
<path d="M327.024 226.352L318.858 221.631V222.161L327.024 226.882V226.352Z" fill="#BBBCBB"/>
<path d="M327.024 223.965L318.858 219.245V219.787L327.024 224.495V223.965Z" fill="#BBBCBB"/>
<path d="M327.024 215.409L318.858 210.688V214.93L327.024 219.638V215.409Z" fill="#BBBCBB"/>
<path d="M327.492 282.371C327.492 285.69 325.157 287.028 322.292 285.375C319.427 283.709 317.091 279.682 317.091 276.363C317.091 273.043 319.427 271.692 322.292 273.359C325.17 275.012 327.492 279.051 327.492 282.371Z" fill="#252728"/>
<path d="M326.86 284.882C325.977 286.245 324.248 286.51 322.291 285.374C319.413 283.721 317.078 279.682 317.078 276.362C317.078 274.847 317.558 273.762 318.366 273.181C317.974 273.8 317.747 274.645 317.747 275.668C317.747 278.975 320.07 283.014 322.947 284.667C324.513 285.576 325.914 285.589 326.86 284.895V284.882Z" fill="#5A5A5A"/>
<g style="mix-blend-mode:overlay">
<path d="M390.54 173.113L334.245 205.893L333.778 296.331L333.324 206.347L313.709 194.306L333.778 205.489L390.54 173.113Z" fill="#B6BDBF"/>
</g>
<g style="mix-blend-mode:multiply">
<path d="M384.555 251.662L337.575 274.95V308.828L369.598 327.332L395.814 320.037L449.875 291.157L384.555 251.662Z" fill="#E2E7E8"/>
</g>
<path d="M421.475 183.035L359.222 219.071L340.049 207.989L402.403 171.978L401.191 171.271L337.575 207.989L359.222 220.498L422.851 183.767L421.475 183.035Z" fill="#656565"/>
<path d="M419.191 184.436L359.223 219.071L340.05 207.989L402.404 171.978H402.416V175.209L419.191 184.436Z" fill="#252728"/>
<path d="M359.235 321.312L422.839 284.594V183.768L359.235 220.498L357.784 265.648L359.235 321.312Z" fill="#252728"/>
<path d="M359.235 321.312L337.576 308.816V207.989L359.235 220.498V321.312Z" fill="url(#paint9_linear_2297_19397)"/>
<path d="M419.191 184.436L359.223 219.071L342.776 209.579L402.416 175.209L419.191 184.436Z" fill="#FCFBFA"/>
<path d="M354.262 225.747L342.548 218.994V263.601L354.262 270.367V225.747Z" fill="#FCFBFA"/>
<path d="M352.481 257.644L344.315 252.923V253.453L352.481 258.174V257.644Z" fill="#BBBCBB"/>
<path d="M352.481 255.258L344.315 250.537V251.08L352.481 255.788V255.258Z" fill="#BBBCBB"/>
<path d="M352.481 252.872L344.315 248.151V248.694L352.481 253.414V252.872Z" fill="#BBBCBB"/>
<path d="M352.481 250.487L344.315 245.766V246.309L352.481 251.017V250.487Z" fill="#BBBCBB"/>
<path d="M352.481 248.101L344.315 243.393V243.923L352.481 248.644V248.101Z" fill="#BBBCBB"/>
<path d="M352.481 245.716L344.315 241.008V241.538L352.481 246.259V245.716Z" fill="#BBBCBB"/>
<path d="M352.481 243.33L344.315 238.622V239.152L352.481 243.873V243.33Z" fill="#BBBCBB"/>
<path d="M352.481 240.944L344.315 236.236V236.766L352.481 241.487V240.944Z" fill="#BBBCBB"/>
<path d="M352.481 238.558L344.315 233.85V234.38L352.481 239.1V238.558Z" fill="#BBBCBB"/>
<path d="M352.481 230.001L344.315 225.292V229.534L352.481 234.242V230.001Z" fill="#BBBCBB"/>
<path d="M352.949 296.977C352.949 300.296 350.614 301.634 347.749 299.981C344.871 298.315 342.549 294.288 342.549 290.969C342.549 287.649 344.884 286.298 347.749 287.964C350.627 289.618 352.949 293.657 352.949 296.977Z" fill="#252728"/>
<path d="M352.331 299.474C351.435 300.838 349.718 301.115 347.762 299.979C344.884 298.326 342.549 294.287 342.549 290.967C342.549 289.452 343.028 288.367 343.836 287.786C343.445 288.392 343.218 289.25 343.218 290.273C343.218 293.58 345.54 297.619 348.418 299.272C349.983 300.181 351.384 300.194 352.331 299.487V299.474Z" fill="#5A5A5A"/>
<g style="mix-blend-mode:overlay">
<path d="M415.997 187.718L359.715 220.498L359.235 310.936L358.781 220.939L339.178 208.91L359.235 220.094L415.997 187.718Z" fill="#B6BDBF"/>
</g>
<g style="mix-blend-mode:multiply">
<path d="M410.053 266.619L363.086 289.907V323.797L395.108 342.289L421.312 334.993L475.373 306.114L410.053 266.619Z" fill="#E2E7E8"/>
</g>
<path d="M446.985 197.991L384.733 234.041L365.547 222.958L427.913 186.934L426.689 186.228L363.086 222.958L384.733 235.454L448.349 198.724L446.985 197.991Z" fill="#656565"/>
<path d="M444.689 199.392L384.734 234.04L365.548 222.958L427.915 186.934H427.927V190.178L444.689 199.392Z" fill="#252728"/>
<path d="M384.733 336.281L448.349 299.563V198.724L384.733 235.455L383.281 280.604L384.733 336.281Z" fill="#252728"/>
<path d="M384.733 336.281L363.086 323.785V222.946L384.733 235.454V336.281Z" fill="url(#paint10_linear_2297_19397)"/>
<path d="M444.689 199.392L384.734 234.04L368.275 224.535L427.927 190.178L444.689 199.392Z" fill="#FCFBFA"/>
<path d="M379.771 240.717L368.045 233.952V278.571L379.771 285.324V240.717Z" fill="#FCFBFA"/>
<path d="M377.991 272.6L369.825 267.879V268.422L377.991 273.143V272.6Z" fill="#BBBCBB"/>
<path d="M377.991 270.215L369.825 265.507V266.037L377.991 270.758V270.215Z" fill="#BBBCBB"/>
<path d="M377.991 267.83L369.825 263.122V263.652L377.991 268.372V267.83Z" fill="#BBBCBB"/>
<path d="M377.991 265.444L369.825 260.736V261.279L377.991 265.987V265.444Z" fill="#BBBCBB"/>
<path d="M377.991 263.071L369.825 258.351V258.881L377.991 263.601V263.071Z" fill="#BBBCBB"/>
<path d="M377.991 260.673L369.825 255.965V256.508L377.991 261.216V260.673Z" fill="#BBBCBB"/>
<path d="M377.991 258.299L369.825 253.579V254.109L377.991 258.829V258.299Z" fill="#BBBCBB"/>
<path d="M377.991 255.915L369.825 251.194V251.737L377.991 256.445V255.915Z" fill="#BBBCBB"/>
<path d="M377.991 253.528L369.825 248.807V249.35L377.991 254.071V253.528Z" fill="#BBBCBB"/>
<path d="M377.991 244.971L369.825 240.25V244.491L377.991 249.212V244.971Z" fill="#BBBCBB"/>
<path d="M378.459 311.933C378.459 315.253 376.124 316.591 373.259 314.937C370.381 313.271 368.058 309.245 368.058 305.925C368.058 302.605 370.393 301.255 373.259 302.921C376.124 304.575 378.459 308.614 378.459 311.933Z" fill="#252728"/>
<path d="M377.829 314.443C376.933 315.807 375.216 316.072 373.26 314.936C370.382 313.282 368.047 309.243 368.047 305.923C368.047 304.421 368.527 303.323 369.334 302.743C368.943 303.361 368.716 304.207 368.716 305.229C368.716 308.536 371.038 312.575 373.916 314.229C375.481 315.138 376.882 315.163 377.829 314.443Z" fill="#5A5A5A"/>
<g style="mix-blend-mode:overlay">
<path d="M441.495 202.674L385.213 235.454L384.733 325.892L384.291 235.909L364.676 223.88L384.733 235.063L441.495 202.674Z" fill="#B6BDBF"/>
</g>
<g style="mix-blend-mode:multiply">
<path d="M181.781 111.782L449.713 266.467V232.198L181.781 77.5127V111.782Z" fill="#E2E7E8"/>
</g>
</g>
<defs>
<linearGradient id="paint0_linear_2297_19397" x1="234.102" y1="383.652" x2="192.739" y2="453.024" gradientUnits="userSpaceOnUse">
<stop stop-color="#EEF0F3"/>
<stop offset="0.6" stop-color="#ECEEF1"/>
<stop offset="0.81" stop-color="#E5E9ED"/>
<stop offset="0.97" stop-color="#D9E0E7"/>
<stop offset="1" stop-color="#D6DEE5"/>
</linearGradient>
<linearGradient id="paint1_linear_2297_19397" x1="344.546" y1="473.7" x2="273.003" y2="473.7" gradientUnits="userSpaceOnUse">
<stop stop-color="#D3D7DD"/>
<stop offset="0.6" stop-color="#D1D5DB"/>
<stop offset="0.82" stop-color="#CAD0D7"/>
<stop offset="0.98" stop-color="#BEC7D0"/>
<stop offset="1" stop-color="#BCC6CF"/>
</linearGradient>
<linearGradient id="paint2_linear_2297_19397" x1="333.904" y1="359.631" x2="246.066" y2="359.631" gradientUnits="userSpaceOnUse">
<stop stop-color="#C2CCD3"/>
<stop offset="0.32" stop-color="#B2BBC1"/>
<stop offset="1" stop-color="#C4CED6"/>
</linearGradient>
<linearGradient id="paint3_linear_2297_19397" x1="246.079" y1="355.933" x2="333.892" y2="355.933" gradientUnits="userSpaceOnUse">
<stop stop-color="#F5F5F6"/>
<stop offset="1" stop-color="#D1D5DE"/>
</linearGradient>
<linearGradient id="paint4_linear_2297_19397" x1="387.84" y1="226.795" x2="201.511" y2="226.795" gradientUnits="userSpaceOnUse">
<stop stop-color="#1C819F"/>
<stop offset="0.5" stop-color="#00719A"/>
<stop offset="1" stop-color="#005C86"/>
</linearGradient>
<linearGradient id="paint5_linear_2297_19397" x1="205.207" y1="189.598" x2="226.867" y2="189.598" gradientUnits="userSpaceOnUse">
<stop stop-color="#4F5050"/>
<stop offset="1" stop-color="#3F4142"/>
</linearGradient>
<linearGradient id="paint6_linear_2297_19397" x1="229.809" y1="203.293" x2="251.456" y2="203.293" gradientUnits="userSpaceOnUse">
<stop stop-color="#4F5050"/>
<stop offset="1" stop-color="#3F4142"/>
</linearGradient>
<linearGradient id="paint7_linear_2297_19397" x1="286.658" y1="235.744" x2="308.317" y2="235.744" gradientUnits="userSpaceOnUse">
<stop stop-color="#4F5050"/>
<stop offset="1" stop-color="#3F4142"/>
</linearGradient>
<linearGradient id="paint8_linear_2297_19397" x1="312.119" y1="250.045" x2="333.778" y2="250.045" gradientUnits="userSpaceOnUse">
<stop stop-color="#4F5050"/>
<stop offset="1" stop-color="#3F4142"/>
</linearGradient>
<linearGradient id="paint9_linear_2297_19397" x1="337.588" y1="264.65" x2="359.235" y2="264.65" gradientUnits="userSpaceOnUse">
<stop stop-color="#4F5050"/>
<stop offset="1" stop-color="#3F4142"/>
</linearGradient>
<linearGradient id="paint10_linear_2297_19397" x1="363.086" y1="279.62" x2="384.746" y2="279.62" gradientUnits="userSpaceOnUse">
<stop stop-color="#4F5050"/>
<stop offset="1" stop-color="#3F4142"/>
</linearGradient>
</defs>
</svg>
