<svg width="64" height="64" viewBox="0 0 64 64" fill="none" xmlns="http://www.w3.org/2000/svg">
<rect width="64" height="64" rx="4" fill="white"/>
<path fill-rule="evenodd" clip-rule="evenodd" d="M13.9167 15.6667C13.9167 12.1228 16.7896 9.25 20.3334 9.25H38.9694C40.2848 9.25 41.5196 9.88367 42.2866 10.9523L49.3173 20.7474C49.8155 21.4414 50.0834 22.2742 50.0834 23.1284V48.3333C50.0834 51.8772 47.2106 54.75 43.6667 54.75H20.3334C16.7896 54.75 13.9167 51.8772 13.9167 48.3333V15.6667ZM20.3334 12.75C18.7226 12.75 17.4167 14.0558 17.4167 15.6667V48.3333C17.4167 49.9442 18.7226 51.25 20.3334 51.25H43.6667C45.2776 51.25 46.5834 49.9442 46.5834 48.3333V24.7598H39.0001C38.0336 24.7598 37.2501 23.9763 37.2501 23.0098V12.75H20.3334Z" fill="#2575BB"/>
<path d="M39.2 34.8432C38.5962 35.5979 37.495 35.7203 36.7403 35.1165L33.7502 32.7245V40.75C33.7502 41.7165 32.9667 42.5 32.0002 42.5C31.0337 42.5 30.2502 41.7165 30.2502 40.75V32.7244L27.26 35.1165C26.5053 35.7203 25.4041 35.5979 24.8003 34.8432C24.1965 34.0885 24.3189 32.9872 25.0736 32.3835L30.9007 27.7218C31.1976 27.4817 31.5747 27.3368 31.9855 27.3334C31.9904 27.3334 31.9953 27.3333 32.0002 27.3333L32.0059 27.3333C32.4238 27.3347 32.8072 27.4825 33.1075 27.7281L38.9267 32.3835C39.6814 32.9872 39.8038 34.0885 39.2 34.8432Z" fill="#2575BB"/>
</svg>
