<svg width="40" height="40" viewBox="0 0 40 40" fill="none" xmlns="http://www.w3.org/2000/svg">
<path d="M33.334 6.66663H6.66732C4.83398 6.66663 3.35065 8.16663 3.35065 9.99996L3.33398 30C3.33398 31.8333 4.83398 33.3333 6.66732 33.3333H33.334C35.1673 33.3333 36.6673 31.8333 36.6673 30V9.99996C36.6673 8.16663 35.1673 6.66663 33.334 6.66663ZM32.6673 13.75L20.884 21.1166C20.3507 21.45 19.6507 21.45 19.1173 21.1166L7.33398 13.75C7.16686 13.6561 7.02052 13.5294 6.9038 13.3774C6.78708 13.2254 6.70242 13.0513 6.65494 12.8656C6.60747 12.6799 6.59816 12.4865 6.62758 12.2971C6.657 12.1078 6.72454 11.9263 6.82612 11.7638C6.9277 11.6013 7.06119 11.4611 7.21853 11.3516C7.37586 11.2422 7.55377 11.1658 7.74148 11.1271C7.92918 11.0884 8.12279 11.0882 8.31058 11.1265C8.49836 11.1648 8.67642 11.2408 8.83398 11.35L20.0007 18.3333L31.1673 11.35C31.3249 11.2408 31.5029 11.1648 31.6907 11.1265C31.8785 11.0882 32.0721 11.0884 32.2598 11.1271C32.4475 11.1658 32.6254 11.2422 32.7828 11.3516C32.9401 11.4611 33.0736 11.6013 33.1752 11.7638C33.2768 11.9263 33.3443 12.1078 33.3737 12.2971C33.4031 12.4865 33.3938 12.6799 33.3464 12.8656C33.2989 13.0513 33.2142 13.2254 33.0975 13.3774C32.9808 13.5294 32.8344 13.6561 32.6673 13.75Z" fill="#03989E"/>
</svg>
